<?xml version="1.0" standalone="no"?>
<!DOCTYPE svg PUBLIC "-//W3C//DTD SVG 1.1//EN" "http://www.w3.org/Graphics/SVG/1.1/DTD/svg11.dtd" >
<svg xmlns="http://www.w3.org/2000/svg" xmlns:xlink="http://www.w3.org/1999/xlink" version="1.1">
<metadata>
Created by FontForge 20200427 at Sat Mar 21 18:49:44 2015
 By www
(c) 2015 Connary Fagen
</metadata>
<defs>
<font id="VisbyRoundCF-Heavy" horiz-adv-x="615" >
  <font-face 
    font-family="Visby Round CF Heavy"
    font-weight="900"
    font-stretch="normal"
    units-per-em="1000"
    panose-1="0 0 10 0 0 0 0 0 0 0"
    ascent="800"
    descent="-200"
    x-height="520"
    cap-height="700"
    bbox="-248.909 -249.154 1236 988"
    underline-thickness="50"
    underline-position="-150"
    unicode-range="U+0020-FB02"
  />
<missing-glyph horiz-adv-x="495" 
d="M406 800v-990h-314v990h314zM330 734h-164v-33h65v-37h-66v-32h165v32h-66v37h66v33zM264 606h-99v-103h165v34h-66v69zM231 572v-35h-33v35h33zM330 476h-165v-32h66v-37h-66v-33h99v70h66v32zM330 417h-33v-65h-132v-34h165v99zM330 296h-99v-55h33v22h33v-46h-99v79
h-33v-112h165v112zM330 125h-165v-112h165v112zM297 92v-46h-99v46h99zM330 -10h-165v-32h70l-70 -47v-33h165v33h-101l69 47h32v32z" />
    <glyph glyph-name="fl" unicode="fl" horiz-adv-x="649" 
d="M517 707q29 0 49 -20t20 -48v-577q0 -28 -20 -48t-49 -20q-28 0 -48 20t-20 48v464q-2 1 -15.5 11t-20.5 15t-23 14t-28.5 13.5t-30.5 8.5t-35 4q-40 0 -59 -18t-19 -45v-9h52q24 0 41 -16.5t17 -40.5q0 -25 -17 -41.5t-41 -16.5h-52v-344q0 -28 -20 -47.5t-47 -19.5
t-47 19.5t-20 47.5v344h-13q-24 0 -41.5 17t-17.5 41t17.5 40.5t41.5 16.5h13v16q0 44 15.5 77t37.5 50.5t53.5 28t55 13t50.5 2.5q75 0 155 -50q6 22 24.5 36t41.5 14z" />
    <glyph glyph-name="f_f" unicode="ff" horiz-adv-x="824" 
d="M382 671q24 -16 24 -46q0 -23 -16 -38.5t-39 -15.5q-16 0 -25 5q-34 16 -66 16q-7 0 -12.5 -1t-9.5 -2.5t-7.5 -4.5t-5.5 -5t-3.5 -6.5t-2 -7t-1 -7.5t-0.5 -6.5v-6.5v-6v-19h52q24 0 41 -16.5t17 -40.5q0 -25 -17 -41.5t-41 -16.5h-52v-344q0 -28 -20 -47.5t-47 -19.5
t-47 19.5t-20 47.5v344h-13q-24 0 -41.5 17t-17.5 41t17.5 40.5t41.5 16.5h13v26q0 40 12.5 70.5t31 47t44 27t46 13.5t42.5 3q64 0 122 -36zM785 671q24 -16 24 -46q0 -23 -16 -38.5t-39 -15.5q-16 0 -25 5q-34 16 -66 16q-7 0 -12.5 -1t-9.5 -2.5t-7.5 -4.5t-5.5 -5
t-3.5 -6.5t-2 -7t-1 -7.5t-0.5 -6.5v-6.5v-6v-19h52q24 0 41 -16.5t17 -40.5q0 -25 -17 -41.5t-41 -16.5h-52v-344q0 -28 -20 -47.5t-47 -19.5t-47 19.5t-20 47.5v344h-13q-24 0 -41.5 17t-17.5 41t17.5 40.5t41.5 16.5h13v26q0 40 12.5 70.5t31 47t44 27t46 13.5t42.5 3
q64 0 122 -36z" />
    <glyph glyph-name="f_t" unicode="ft" horiz-adv-x="783" 
d="M699 108q21 2 38 -13.5t17 -40.5q0 -35 -27 -48.5t-82 -13.5q-68 0 -106 34.5t-38 128.5v250h-283v-344q0 -28 -20 -47.5t-47 -19.5t-47 19.5t-20 47.5v344h-13q-24 0 -41.5 17t-17.5 41t17.5 40.5t41.5 16.5h13v26q0 40 12.5 70.5t31 47t44 27t46 13.5t42.5 3
q64 0 122 -36q24 -16 24 -46q0 -23 -16 -38.5t-39 -15.5q-16 0 -25 5q-34 16 -66 16q-7 0 -12.5 -1t-9.5 -2.5t-7.5 -4.5t-5.5 -5t-3.5 -6.5t-2 -7t-1 -7.5t-0.5 -6.5v-6.5v-6v-19h283v30q0 28 20 47.5t47 19.5q28 0 47.5 -19.5t19.5 -47.5v-30h58q24 0 41 -16.5t17 -40.5
q0 -25 -17 -41.5t-41 -16.5h-58v-255q0 -43 30 -43q22 0 34 1z" />
    <glyph glyph-name=".notdef" horiz-adv-x="495" 
d="M406 800v-990h-314v990h314zM330 734h-164v-33h65v-37h-66v-32h165v32h-66v37h66v33zM264 606h-99v-103h165v34h-66v69zM231 572v-35h-33v35h33zM330 476h-165v-32h66v-37h-66v-33h99v70h66v32zM330 417h-33v-65h-132v-34h165v99zM330 296h-99v-55h33v22h33v-46h-99v79
h-33v-112h165v112zM330 125h-165v-112h165v112zM297 92v-46h-99v46h99zM330 -10h-165v-32h70l-70 -47v-33h165v33h-101l69 47h32v32z" />
    <glyph glyph-name=".null" horiz-adv-x="0" 
 />
    <glyph glyph-name="nonmarkingreturn" horiz-adv-x="333" 
 />
    <glyph glyph-name="space" unicode=" " horiz-adv-x="288" 
 />
    <glyph glyph-name="exclam" unicode="!" horiz-adv-x="307" 
d="M155 703q30 0 52 -22.5t22 -53.5v-337q0 -31 -22 -53.5t-52 -22.5q-31 0 -53.5 22.5t-22.5 53.5v337q0 31 22.5 53.5t53.5 22.5zM155 -4q-32 0 -55 22.5t-23 55.5q0 31 23 53.5t55 22.5q31 0 53.5 -22.5t22.5 -53.5q0 -33 -22 -55.5t-54 -22.5z" />
    <glyph glyph-name="quotedbl" unicode="&#x22;" horiz-adv-x="470" 
d="M107 707q27 0 47 -19.5t20 -47.5v-56q0 -27 -20 -47t-47 -20t-47 20t-20 47v56q0 28 20 47.5t47 19.5zM353 707q27 0 47 -19.5t20 -47.5v-56q0 -27 -20 -47t-47 -20q-28 0 -47.5 20t-19.5 47v56q0 28 19.5 47.5t47.5 19.5z" />
    <glyph glyph-name="numbersign" unicode="#" horiz-adv-x="565" 
d="M462 295q24 0 41 -16.5t17 -40.5t-17 -41t-41 -17h-22l-9 -125q-1 -27 -20.5 -45t-45.5 -18q-29 0 -49 22t-18 51l9 115h-79l-9 -125q-1 -27 -20.5 -45t-45.5 -18q-29 0 -49 22t-18 51l9 116q-21 3 -35.5 19t-14.5 38q0 23 17 40t41 17l8 110h-8q-24 0 -41 17t-17 41
t17 40.5t41 16.5h16l9 125q1 27 20.5 45t45.5 18q29 0 49 -22t18 -51l-8 -115h78l9 125q1 27 20.5 45t45.5 18q29 0 49 -22t18 -51l-8 -115q23 -1 39 -17.5t16 -39.5q0 -24 -17 -41t-41 -17h-6l-7 -110h13zM237 295h78l8 110h-79z" />
    <glyph glyph-name="dollar" unicode="$" horiz-adv-x="569" 
d="M524 197q0 -77 -53 -127.5t-129 -68.5l1 -7v-33q0 -24 -17 -41t-40 -17q-25 0 -41.5 17t-16.5 41v33v3q-102 18 -171 99q-12 16 -12 36q0 26 18.5 44.5t43.5 18.5q33 0 50 -26q52 -58 122 -58q43 0 75.5 21.5t32.5 64.5q0 39 -27.5 65t-89.5 46l-31 10q-191 61 -191 203
q0 71 51 120t129 62v36q0 24 16.5 41t41.5 17q23 0 40 -17t17 -41v-39q70 -17 123 -70q12 -15 12 -39q0 -25 -16.5 -41.5t-40.5 -16.5q-32 0 -48 23q-33 34 -96 34q-39 0 -65.5 -19t-26.5 -50q0 -30 18.5 -47t68.5 -36l31 -10q118 -40 169.5 -97t51.5 -134z" />
    <glyph glyph-name="percent" unicode="%" horiz-adv-x="698" 
d="M158 705q52 0 88 -35.5t36 -87.5q0 -51 -36 -87t-88 -36q-51 0 -87 36t-36 87q0 52 36 87.5t87 35.5zM472 657q20 29 53 29q25 0 43.5 -18.5t18.5 -44.5q0 -21 -11 -35l-364 -543q-19 -28 -52 -28q-26 0 -44 18.5t-18 43.5q0 21 9 35zM158 603q-10 0 -17 -6t-7 -15
t7 -15.5t17 -6.5q7 0 13 6.5t6 15.5t-6 15t-13 6zM539 241q52 0 88 -35.5t36 -87.5q0 -51 -36 -87t-88 -36q-51 0 -87 36t-36 87q0 52 36 87.5t87 35.5zM539 139q-10 0 -17 -6t-7 -15t7 -15.5t17 -6.5q7 0 13 6.5t6 15.5t-6 15t-13 6z" />
    <glyph glyph-name="ampersand" unicode="&#x26;" horiz-adv-x="765" 
d="M679 111q23 2 39.5 -15.5t16.5 -42.5q0 -34 -22.5 -46t-65.5 -12q-57 0 -86.5 29.5t-29.5 81.5v8q-66 -123 -207 -123q-102 0 -180.5 62t-78.5 162q0 85 49.5 143t113.5 64l-81 148q-27 48 -1 89t82 41h269q24 0 41 -16.5t17 -40.5q0 -25 -17 -41.5t-41 -16.5h-232
l95 -178q17 -25 8.5 -50t-46.5 -25q-63 0 -93 -35.5t-30 -81.5q0 -44 33.5 -76.5t91.5 -32.5q161 0 161 120v122q0 33 21.5 54.5t54.5 21.5h76q24 0 41 -16.5t17 -40.5t-17 -41t-41 -17h-18v-144q0 -35 12.5 -45.5t47.5 -8.5z" />
    <glyph glyph-name="quotesingle" unicode="'" horiz-adv-x="214" 
d="M107 707q27 0 47 -19.5t20 -47.5v-56q0 -27 -20 -47t-47 -20t-47 20t-20 47v56q0 28 20 47.5t47 19.5z" />
    <glyph glyph-name="parenleft" unicode="(" horiz-adv-x="280" 
d="M186 752q24 0 41.5 -17.5t17.5 -41.5q0 -5 -4 -21q-61 -150 -61 -352q0 -216 62 -377q3 -9 3 -22q0 -24 -16.5 -41t-41.5 -17q-36 0 -53 32q-89 187 -89 425q0 226 89 401q16 31 52 31z" />
    <glyph glyph-name="parenright" unicode=")" horiz-adv-x="280" 
d="M145 721q90 -174 90 -401q0 -239 -90 -425q-15 -32 -53 -32q-24 0 -40.5 17t-16.5 41q0 13 3 22q62 165 62 377q0 199 -61 352q-4 16 -4 21q0 25 17.5 42t41.5 17q36 0 51 -31z" />
    <glyph glyph-name="asterisk" unicode="*" horiz-adv-x="510" 
d="M202 691q-1 22 15 38.5t37 16.5q22 0 37.5 -16t15.5 -37l-1 -67l72 16q23 6 40 -11.5t17 -41.5q0 -19 -12 -33.5t-29 -19.5l-51 -15l34 -47q11 -11 11 -32q0 -22 -15.5 -38t-37.5 -16q-29 0 -44 22l-36 50l-36 -50q-15 -22 -44 -22q-22 0 -37.5 16t-15.5 38q0 21 11 32
l34 47l-51 15q-17 5 -29 19.5t-12 33.5q0 24 17 41.5t40 11.5l72 -16z" />
    <glyph glyph-name="plus" unicode="+" horiz-adv-x="441" 
d="M337 330q24 0 41.5 -16t17.5 -39t-17.5 -39t-41.5 -16h-61v-63q0 -23 -16.5 -41t-38.5 -18q-23 0 -39 17.5t-16 41.5v63h-62q-24 0 -41.5 16t-17.5 39t17.5 39t41.5 16h62v60q0 24 16 41.5t39 17.5q22 0 38.5 -18t16.5 -41v-60h61z" />
    <glyph glyph-name="comma" unicode="," horiz-adv-x="213" 
d="M77 -135q-29 0 -43 17t-6 46l13 65q15 50 61 50h52q34 0 45.5 -17.5t-4.5 -50.5l-36 -69q-21 -41 -67 -41h-15z" />
    <glyph glyph-name="hyphen" unicode="-" horiz-adv-x="415" 
d="M315 330q22 0 38.5 -16t16.5 -39t-16.5 -39t-38.5 -16h-215q-22 0 -38.5 16t-16.5 39t16.5 39t38.5 16h215z" />
    <glyph glyph-name="period" unicode="." horiz-adv-x="225" 
d="M113 -4q-32 0 -55 22.5t-23 55.5q0 31 23 53.5t55 22.5q31 0 53.5 -22.5t22.5 -53.5q0 -33 -22 -55.5t-54 -22.5z" />
    <glyph glyph-name="slash" unicode="/" horiz-adv-x="513" 
d="M404 752q35 0 53.5 -29t6.5 -57l-296 -762q-6 -17 -23 -29t-36 -12q-35 0 -53.5 29t-7.5 57l296 762q7 18 23.5 29.5t36.5 11.5z" />
    <glyph glyph-name="zero" unicode="0" horiz-adv-x="690" 
d="M345 707q126 0 213 -90.5t87 -253.5v-24q0 -164 -87 -254t-213 -90t-213 90.5t-87 253.5v24q0 163 87 253.5t213 90.5zM345 592q-46 0 -80 -21t-52 -55.5t-26 -72.5t-8 -80v-24q0 -58 13.5 -106.5t52.5 -85.5t100 -37t100 37t52.5 85.5t13.5 106.5v24q0 42 -8 80
t-26 72.5t-52 55.5t-80 21z" />
    <glyph glyph-name="one" unicode="1" horiz-adv-x="377" 
d="M226 700q33 0 54.5 -21.5t21.5 -54.5v-563q0 -28 -20 -47.5t-47 -19.5q-28 0 -47.5 19.5t-19.5 47.5v524h-65q-24 0 -41 17t-17 41t17 40.5t41 16.5h123z" />
    <glyph glyph-name="two" unicode="2" horiz-adv-x="564" 
d="M277 707q103 0 170 -65t67 -146q0 -32 -6.5 -56t-29 -54t-41 -49t-68.5 -67q-20 -19 -31 -30l-129 -125h252q24 0 41 -16.5t17 -40.5t-17 -41t-41 -17h-306q-47 0 -78 28.5t-31 66t32 73.5l116 110q21 20 51 48.5t43.5 41.5t32.5 32t26.5 28.5t16 22.5t11 23.5t2.5 21.5
q0 51 -30.5 72t-69.5 21q-78 0 -101 -63q-6 -20 -24 -34t-40 -14q-36 0 -55 28t-8 62q25 61 84.5 100t143.5 39z" />
    <glyph glyph-name="three" unicode="3" horiz-adv-x="594" 
d="M426 700q60 0 88.5 -47t-8.5 -93l-130 -142q68 -18 120.5 -70t52.5 -132q0 -98 -77 -162t-182 -64q-84 0 -147.5 37.5t-91.5 100.5q-14 31 6 60.5t55 29.5q22 0 39 -12.5t24 -33.5q15 -36 48.5 -51.5t66.5 -15.5q24 0 50 7.5t50.5 34.5t24.5 69q0 14 -2 25.5t-9 21.5
t-11 17t-16 14t-16.5 10.5t-20 8.5t-18.5 6t-21 6l-18 5q-21 5 -33 20.5t-12 34.5q0 29 25 57l123 143h-260q-24 0 -41 16.5t-17 41.5q0 24 17 40.5t41 16.5h300z" />
    <glyph glyph-name="four" unicode="4" horiz-adv-x="568" 
d="M451 303h24q24 0 41 -16.5t17 -40.5q0 -25 -17 -41.5t-41 -16.5h-24v-129q0 -27 -19.5 -46.5t-47.5 -19.5q-27 0 -47 19.5t-20 46.5v129h-181q-64 0 -84.5 42t15.5 88l256 342q24 33 55 39.5t52 -14t21 -56.5v-326zM317 439l-98 -136h98v136z" />
    <glyph glyph-name="five" unicode="5" horiz-adv-x="556" 
d="M395 700q24 0 41 -16.5t17 -40.5t-17 -41t-41 -17h-199l-14 -121q11 -3 14.5 -1.5t23 5t42.5 3.5q102 0 175.5 -67.5t73.5 -172.5q0 -103 -72 -172t-173 -69q-130 0 -208 86q-13 16 -13 39q0 26 17.5 44t42.5 18q29 0 48 -23q16 -16 25.5 -24t33 -16.5t54.5 -8.5
q35 0 73 31.5t38 94.5q0 36 -12.5 62.5t-31.5 39t-37 18t-34 5.5q-53 0 -78 -11q-22 -15 -48 -15q-40 0 -66 30t-21 70l25 206q4 28 24 46t48 18h249z" />
    <glyph glyph-name="six" unicode="6" horiz-adv-x="559" 
d="M353 707q26 0 43.5 -17t17.5 -42q0 -18 -12 -35l-121 -168q3 0 0.5 -1t-0.5 -1q88 0 160.5 -70t72.5 -160q0 -93 -71.5 -158t-161.5 -65t-163 65.5t-73 157.5q0 30 6.5 59.5t12.5 48.5t25.5 51.5t26.5 43t36 50.5t35 48l117 168q17 25 49 25zM280 319q-50 0 -79.5 -31.5
t-29.5 -74.5q0 -44 31.5 -75.5t77.5 -31.5q45 0 76 31.5t31 75.5q0 42 -31 74t-76 32z" />
    <glyph glyph-name="seven" unicode="7" horiz-adv-x="563" 
d="M437 700q52 0 77.5 -39.5t3.5 -86.5l-249 -543q-17 -38 -58 -38q-26 0 -45 19t-19 45q0 17 6 27l237 501h-297q-24 0 -41 17t-17 41t17 40.5t41 16.5h344z" />
    <glyph glyph-name="eight" unicode="8" horiz-adv-x="553" 
d="M430 400q85 -63 85 -180q0 -99 -74 -163t-164 -64t-164.5 64t-74.5 163q0 117 85 180q-42 51 -42 117q0 81 54 135.5t142 54.5q87 0 141.5 -54.5t54.5 -135.5q0 -64 -43 -117zM213 517q0 -27 19 -48t45 -21q27 0 45.5 21t18.5 48q0 29 -19 50t-45 21t-45 -21t-19 -50z
M277 114q37 0 66.5 30.5t29.5 75.5q0 50 -29 78.5t-67 28.5q-31 0 -62.5 -29.5t-31.5 -77.5q0 -46 27.5 -76t66.5 -30z" />
    <glyph glyph-name="nine" unicode="9" horiz-adv-x="563" 
d="M210 -8q-26 0 -43.5 17t-17.5 42q0 18 12 35l121 168q-3 0 -0.5 1t0.5 1q-88 0 -160.5 70t-72.5 160q0 93 71.5 158t161.5 65t163 -65.5t73 -157.5q0 -30 -6.5 -59.5t-12.5 -48.5t-25.5 -51.5t-26.5 -43t-36 -50.5t-35 -48l-117 -168q-17 -25 -49 -25zM283 380
q50 0 79.5 31.5t29.5 74.5q0 44 -31.5 75.5t-77.5 31.5q-45 0 -76 -31.5t-31 -75.5q0 -42 31 -74t76 -32z" />
    <glyph glyph-name="colon" unicode=":" horiz-adv-x="264" 
d="M118 366q-32 0 -55 22.5t-23 55.5q0 31 23 53.5t55 22.5q31 0 53.5 -22.5t22.5 -53.5q0 -33 -22 -55.5t-54 -22.5zM118 -4q-32 0 -55 22.5t-23 55.5q0 31 23 53.5t55 22.5q31 0 53.5 -22.5t22.5 -53.5q0 -33 -22 -55.5t-54 -22.5z" />
    <glyph glyph-name="semicolon" unicode=";" horiz-adv-x="285" 
d="M129 450q-32 0 -55 22.5t-23 55.5q0 31 23 53.5t55 22.5q31 0 53.5 -22.5t22.5 -53.5q0 -33 -22 -55.5t-54 -22.5zM39 -135q-29 0 -43 17t-6 46l13 65q15 50 61 50h52q34 0 45.5 -17.5t-4.5 -50.5l-36 -69q-21 -41 -67 -41h-15z" />
    <glyph glyph-name="less" unicode="&#x3c;" horiz-adv-x="442" 
d="M326 443q14 6 25 6q23 0 39.5 -16t16.5 -40q0 -32 -30 -48l-207 -105l207 -103q30 -15 30 -49q0 -23 -16.5 -39.5t-38.5 -16.5q-11 0 -27 7l-224 116q-56 29 -56 84.5t57 85.5z" />
    <glyph glyph-name="equal" unicode="=" horiz-adv-x="426" 
d="M338 410q24 0 41.5 -16t17.5 -39t-17.5 -39t-41.5 -16h-233q-24 0 -41.5 16t-17.5 39t17.5 39t41.5 16h233zM338 250q24 0 41.5 -16t17.5 -39t-17.5 -39t-41.5 -16h-233q-24 0 -41.5 16t-17.5 39t17.5 39t41.5 16h233z" />
    <glyph glyph-name="greater" unicode="&#x3e;" horiz-adv-x="497" 
d="M171 443l224 -118q57 -30 57 -85.5t-56 -84.5l-224 -116q-16 -7 -27 -7q-22 0 -38.5 16.5t-16.5 39.5q0 34 30 49l207 103l-207 105q-30 16 -30 48q0 24 16.5 40t39.5 16q12 0 25 -6z" />
    <glyph glyph-name="question" unicode="?" horiz-adv-x="558" 
d="M283 707q93 0 161.5 -58t68.5 -152q0 -41 -14 -72t-34 -50.5l-40 -39t-34 -48t-14 -66.5v-3h-140v3q0 46 14.5 82t35.5 59t42 42.5t35.5 42.5t14.5 50q0 95 -96 95q-55 0 -79.5 -33t-24.5 -75h-134q0 101 72.5 162t165.5 61zM304 -4q-32 0 -55 22.5t-23 55.5
q0 31 23 53.5t55 22.5q31 0 54 -22.5t23 -53.5q0 -33 -22.5 -55.5t-54.5 -22.5z" />
    <glyph glyph-name="at" unicode="@" horiz-adv-x="803" 
d="M514 526q22 0 35.5 -14t13.5 -35v-159q0 -23 7.5 -32t25.5 -9q19 0 24 16.5t5 53.5q0 107 -64.5 173.5t-154.5 66.5q-98 0 -163.5 -66t-65.5 -175q0 -104 66 -169t163 -65q48 0 95 30q14 10 34 10q25 0 43.5 -18t18.5 -44q0 -33 -30 -51q-75 -46 -161 -46
q-89 0 -170.5 44t-134.5 126.5t-53 182.5q0 155 109.5 258t248.5 103t244 -102.5t105 -258.5q0 -87 -44.5 -137.5t-111.5 -50.5q-36 0 -65.5 12.5t-40.5 13.5q-6 1 -39 -14t-62 -15q-64 0 -116 52t-52 140q0 86 52.5 137.5t115.5 51.5q22 0 51 -15.5t30 -26.5v-7
q0 15 11.5 27t29.5 12zM394 413q-30 0 -44 -21t-14 -45q0 -25 14 -47.5t44 -22.5q31 0 45.5 22t14.5 48q0 23 -14.5 44.5t-45.5 21.5z" />
    <glyph glyph-name="A" unicode="A" horiz-adv-x="725" 
d="M362 704q32 0 55 -46l257 -570q6 -16 6 -28q0 -28 -20 -48t-48 -20q-19 0 -36 11.5t-25 29.5l-68 149h-242l-67 -149q-8 -17 -25 -28.5t-37 -11.5q-27 0 -47 19.5t-20 47.5q0 16 6 28l257 570q23 46 54 46zM362 474l-78 -176h157z" />
    <glyph glyph-name="B" unicode="B" horiz-adv-x="631" 
d="M459 389q127 -55 127 -181q0 -97 -66.5 -152.5t-191.5 -55.5h-182q-33 0 -54.5 21.5t-21.5 54.5v548q0 33 21.5 54.5t54.5 21.5h171q98 0 159 -47t61 -139q0 -39 -19.5 -73t-58.5 -52zM206 584v-152h111q42 0 64 23.5t22 58.5q0 33 -26 51.5t-60 18.5h-111zM328 116
q63 0 93.5 26.5t30.5 65.5q0 46 -30.5 77t-93.5 31h-122v-200h122z" />
    <glyph glyph-name="C" unicode="C" horiz-adv-x="630" 
d="M392 707q85 0 166 -45q32 -20 32 -57q0 -28 -20 -48t-48 -20q-20 0 -36 11q-51 28 -91 28q-84 0 -145 -66t-61 -160q0 -96 61 -161t145 -65q41 0 90 28q14 11 37 11q28 0 48 -20t20 -48q0 -37 -32 -57q-78 -45 -166 -45q-137 0 -242 102t-105 254q0 102 50.5 185.5
t129.5 128t167 44.5z" />
    <glyph glyph-name="D" unicode="D" horiz-adv-x="713" 
d="M311 700q142 0 247 -102t105 -244q0 -147 -105 -250.5t-247 -103.5h-165q-33 0 -54.5 21.5t-21.5 54.5v548q0 33 21.5 54.5t54.5 21.5h165zM311 116q94 0 153.5 68t59.5 170q0 97 -59.5 163.5t-153.5 66.5h-103v-468h103z" />
    <glyph glyph-name="E" unicode="E" horiz-adv-x="603" 
d="M207 120h285q25 0 43 -17.5t18 -41.5q0 -25 -18 -43t-43 -18h-351q-33 0 -54.5 21.5t-21.5 54.5v548q0 33 21.5 54.5t54.5 21.5h341q25 0 43 -17.5t18 -41.5q0 -25 -18 -43t-43 -18h-275v-169h175q25 0 43 -17t18 -42t-18 -43t-43 -18h-175v-171z" />
    <glyph glyph-name="F" unicode="F" horiz-adv-x="582" 
d="M542 641q0 -25 -18 -43t-43 -18h-276v-175h220q25 0 43 -18t18 -43t-18 -43t-43 -18h-220v-220q0 -29 -20.5 -49.5t-48.5 -20.5q-29 0 -50 20.5t-21 49.5v561q0 33 21.5 54.5t54.5 21.5h340q25 0 43 -17.5t18 -41.5z" />
    <glyph glyph-name="G" unicode="G" horiz-adv-x="749" 
d="M625 342q39 0 61 -24t16 -60q-25 -121 -110 -193t-200 -72q-87 0 -166 44.5t-130 127.5t-51 185t51 185t130 127.5t166 44.5q110 0 193 -51q29 -22 29 -55q0 -28 -19 -47t-47 -19q-23 0 -37 11q-55 30 -116 30q-79 0 -142.5 -66t-63.5 -159t64.5 -160t141.5 -67
q47 0 88 25.5t69 70.5h-41q-25 0 -43 18t-18 43t18 43t43 18h114z" />
    <glyph glyph-name="H" unicode="H" horiz-adv-x="718" 
d="M517 634q0 28 20.5 48.5t49.5 20.5q28 0 48 -20.5t20 -48.5v-568q0 -28 -20 -48.5t-48 -20.5q-29 0 -49.5 20.5t-20.5 48.5v224h-316v-224q0 -28 -20.5 -48.5t-48.5 -20.5t-48.5 20.5t-20.5 48.5v568q0 28 20.5 48.5t48.5 20.5t48.5 -20.5t20.5 -48.5v-227h316v227z" />
    <glyph glyph-name="I" unicode="I" horiz-adv-x="263" 
d="M132 703q28 0 49 -21t21 -50v-568q0 -29 -21 -50t-49 -21q-29 0 -50 21t-21 50v568q0 29 21 50t50 21z" />
    <glyph glyph-name="J" unicode="J" horiz-adv-x="562" 
d="M430 703q27 0 47 -19.5t20 -47.5v-371q0 -72 -21 -126.5t-58 -85t-81 -45.5t-95 -15q-80 0 -147 38q-28 21 -28 52q0 26 18.5 43.5t45.5 17.5q21 0 35 -10q32 -19 75 -19q29 0 46.5 4.5t37 20.5t29 54.5t9.5 99.5v342q0 28 20 47.5t47 19.5z" />
    <glyph glyph-name="K" unicode="K" horiz-adv-x="704" 
d="M570 707q26 0 44 -18.5t18 -43.5q0 -20 -14 -39l-200 -254l226 -258q15 -16 15 -41q0 -24 -18 -42t-43 -18q-27 0 -45 20l-214 243l-132 -164v-30q0 -28 -20.5 -48.5t-49.5 -20.5q-28 0 -48.5 20.5t-20.5 48.5v576q0 28 20.5 48.5t48.5 20.5q29 0 49.5 -20.5t20.5 -48.5
v-354l314 400q19 23 49 23z" />
    <glyph glyph-name="L" unicode="L" horiz-adv-x="585" 
d="M206 115h281q24 0 41 -16.5t17 -40.5q0 -25 -17 -41.5t-41 -16.5h-343q-33 0 -54.5 21.5t-21.5 54.5v556q0 29 20.5 50t48.5 21t48.5 -21t20.5 -50v-517z" />
    <glyph glyph-name="M" unicode="M" horiz-adv-x="890" 
d="M759 703q24 0 42.5 -17t18.5 -47v-572q0 -28 -20.5 -49t-49.5 -21q-28 0 -49 21t-21 49v309l-173 -310q-21 -38 -62 -38t-62 38l-173 310v-309q0 -28 -20.5 -49t-48.5 -21q-29 0 -50 21t-21 49v572q0 30 18.5 47t42.5 17q21 0 41.5 -13.5t31.5 -32.5l241 -427l242 427
q11 19 31 32.5t41 13.5z" />
    <glyph glyph-name="N" unicode="N" horiz-adv-x="687" 
d="M553 703q28 0 48.5 -21t20.5 -50v-575q0 -29 -16.5 -46.5t-38.5 -17.5q-46 0 -73 42l-289 407v-377q0 -29 -20.5 -50t-48.5 -21q-29 0 -50 21t-21 50v574q0 30 19 47t43 17q45 0 74 -40l281 -404v373q0 29 20.5 50t50.5 21z" />
    <glyph glyph-name="O" unicode="O" horiz-adv-x="793" 
d="M396 707q137 0 243 -102t106 -255t-106 -255t-243 -102q-88 0 -167.5 44.5t-130 127.5t-50.5 185t50.5 185t130 127.5t167.5 44.5zM396 576q-83 0 -143.5 -63.5t-60.5 -162.5t60.5 -162.5t143.5 -63.5q84 0 144 63.5t60 162.5t-59.5 162.5t-144.5 63.5z" />
    <glyph glyph-name="P" unicode="P" horiz-adv-x="633" 
d="M329 700q115 0 185.5 -62t70.5 -153q0 -92 -70.5 -153t-185.5 -61h-121v-209q0 -28 -20 -48.5t-49 -20.5t-49 20.5t-20 48.5v562q0 33 21.5 54.5t54.5 21.5h183zM321 389q130 0 130 96q0 97 -130 97h-113v-193h113z" />
    <glyph glyph-name="Q" unicode="Q" horiz-adv-x="790" 
d="M652 108l19 -19q16 -18 16 -39q0 -24 -17 -40.5t-40 -16.5q-26 0 -41 17l-27 27q-80 -44 -166 -44q-88 0 -167.5 44.5t-130 127.5t-50.5 185t50.5 185t130 127.5t167.5 44.5q137 0 243 -102t106 -255q0 -139 -93 -242zM396 124q34 0 70 13l-27 28q-18 20 -18 39
q0 24 17 41t40 17q25 0 41 -18l37 -38q44 60 44 144q0 99 -59.5 162.5t-144.5 63.5q-83 0 -143.5 -63.5t-60.5 -162.5t60.5 -162.5t143.5 -63.5z" />
    <glyph glyph-name="R" unicode="R" horiz-adv-x="640" 
d="M569 101q17 -20 17 -43q0 -27 -19.5 -46t-46.5 -19q-35 0 -53 25l-206 253h-53v-209q0 -28 -20 -48.5t-49 -20.5t-49 20.5t-20 48.5v562q0 33 21.5 54.5t54.5 21.5h183q115 0 185.5 -62t70.5 -153q0 -73 -45.5 -128t-124.5 -75zM208 582v-193h113q130 0 130 96
q0 97 -130 97h-113z" />
    <glyph glyph-name="S" unicode="S" horiz-adv-x="569" 
d="M277 707q114 0 189 -77q12 -15 12 -39q0 -25 -16.5 -41.5t-40.5 -16.5q-32 0 -48 23q-33 34 -96 34q-39 0 -65.5 -19t-26.5 -50q0 -30 18.5 -47t68.5 -36l31 -10q118 -40 169.5 -97t51.5 -134q0 -64 -40.5 -112.5t-95 -70t-109.5 -21.5q-133 0 -222 103q-12 16 -12 36
q0 26 18.5 44.5t43.5 18.5q33 0 50 -26q52 -58 122 -58q43 0 75.5 21.5t32.5 64.5q0 39 -27.5 65t-89.5 46l-31 10q-191 61 -191 203q0 82 67 134t162 52z" />
    <glyph glyph-name="T" unicode="T" horiz-adv-x="649" 
d="M543 700q25 0 43 -18t18 -43t-18 -43t-43 -18h-145v-512q0 -29 -21.5 -51t-50.5 -22q-30 0 -52 21.5t-22 51.5v512h-146q-25 0 -43 18t-18 43t18 43t43 18h437z" />
    <glyph glyph-name="U" unicode="U" horiz-adv-x="699" 
d="M567 703q28 0 47.5 -19.5t19.5 -47.5v-385q0 -115 -84 -186.5t-200 -71.5q-117 0 -201 71.5t-84 186.5v385q0 28 20 47.5t47 19.5t47 -19.5t20 -47.5v-384q0 -73 44 -108.5t107 -35.5t106.5 35.5t43.5 108.5v384q0 28 20 47.5t47 19.5z" />
    <glyph glyph-name="V" unicode="V" horiz-adv-x="724" 
d="M620 703q29 0 49 -20t20 -48q0 -12 -8 -28l-262 -561q-23 -51 -57 -51q-35 0 -58 51l-261 561q-8 16 -8 28q0 28 20 48t48 20q45 0 62 -40l197 -448l197 448q17 40 61 40z" />
    <glyph glyph-name="W" unicode="W" horiz-adv-x="1157" 
d="M1034 707q28 0 48 -19.5t20 -48.5q0 -12 -7 -28l-226 -565q-20 -51 -57 -51q-39 0 -59 51l-175 418l-175 -418q-21 -51 -57 -51q-39 0 -58 51l-225 565q-8 18 -8 28q0 28 20 48t48 20q20 0 37.5 -11t24.5 -29l161 -452l170 454q14 38 62 38q46 0 61 -38l173 -454l161 452
q6 18 23 29t38 11z" />
    <glyph glyph-name="X" unicode="X" horiz-adv-x="630" 
d="M573 97q12 -17 12 -38q0 -28 -19 -47t-47 -19q-34 0 -54 28l-151 217l-151 -217q-19 -28 -53 -28q-27 0 -46 19t-19 45q0 23 11 37l178 259l-171 245q-12 17 -12 39q0 27 19 46.5t47 19.5q35 0 54 -29l143 -205l142 205q21 29 54 29q28 0 47.5 -19.5t19.5 -46.5
q0 -23 -13 -39l-170 -244z" />
    <glyph glyph-name="Y" unicode="Y" horiz-adv-x="649" 
d="M552 703q26 0 44 -18.5t18 -43.5q0 -22 -11 -37l-211 -289v-256q0 -27 -20 -46.5t-47 -19.5q-28 0 -47.5 19.5t-19.5 46.5v256l-212 289q-11 15 -11 37q0 25 18.5 43.5t43.5 18.5q35 0 53 -27l175 -236l174 236q18 27 53 27z" />
    <glyph glyph-name="Z" unicode="Z" horiz-adv-x="662" 
d="M502 700q62 0 90 -49.5t-10 -97.5l-378 -438h350q24 0 41 -16.5t17 -40.5q0 -25 -17 -41.5t-41 -16.5h-394q-62 0 -90 49.5t10 97.5l379 438h-351q-24 0 -41 17t-17 41t17 40.5t41 16.5h394z" />
    <glyph glyph-name="bracketleft" unicode="[" horiz-adv-x="300" 
d="M195 745q28 0 44 -15t16 -42q0 -58 -60 -58h-16v-645h16q60 0 60 -58q0 -57 -60 -57h-71q-79 0 -79 79v717q0 79 79 79h71z" />
    <glyph glyph-name="backslash" unicode="\" horiz-adv-x="567" 
d="M163 752q20 0 36.5 -11.5t23.5 -29.5l296 -762q11 -28 -7 -57t-53 -29q-20 0 -37 12t-23 29l-296 762q-12 28 6.5 57t53.5 29z" />
    <glyph glyph-name="bracketright" unicode="]" horiz-adv-x="300" 
d="M105 745h71q79 0 79 -79v-717q0 -79 -79 -79h-71q-60 0 -60 57q0 58 60 58h16v645h-16q-60 0 -60 58q0 27 16 42t44 15z" />
    <glyph glyph-name="asciicircum" unicode="^" horiz-adv-x="439" 
d="M387 529q7 -11 7 -22q0 -16 -11.5 -27t-27.5 -11q-14 0 -26 10l-109 108l-111 -108q-13 -11 -26 -11q-16 0 -27 11.5t-11 27.5q0 11 7 22l100 138q27 36 68 35.5t67 -35.5z" />
    <glyph glyph-name="underscore" unicode="_" horiz-adv-x="605" 
d="M502 0q24 0 41 -17t17 -41t-17 -40.5t-41 -16.5h-399q-24 0 -41 16.5t-17 40.5t17 41t41 17h399z" />
    <glyph glyph-name="grave" unicode="`" horiz-adv-x="233" 
d="M124 774q48 0 66 -47l35 -101q10 -27 -5 -45.5t-40 -18.5q-21 0 -36 18l-73 81q-16 17 -16 44q0 29 20.5 49t48.5 20z" />
    <glyph glyph-name="a" unicode="a" horiz-adv-x="612" 
d="M489 527q27 0 47 -19.5t20 -47.5v-399q0 -28 -20 -47.5t-47 -19.5t-47 19t-20 46q-8 -23 -48.5 -44.5t-91.5 -21.5q-42 0 -84 16.5t-78.5 48t-59 84.5t-22.5 118q0 64 22.5 116t58.5 84t78 49t85 17q83 0 140 -54v-12q0 28 19.5 47.5t47.5 19.5zM300 108q55 0 91.5 37
t36.5 115t-36 114.5t-92 36.5q-50 0 -89 -41.5t-39 -109.5q0 -69 39 -110.5t89 -41.5z" />
    <glyph glyph-name="b" unicode="b" horiz-adv-x="606" 
d="M334 526q42 0 84 -17t78.5 -48.5t59 -84t22.5 -116.5q0 -65 -22.5 -118t-59 -84.5t-78.5 -48t-84 -16.5q-52 0 -92.5 21.5t-47.5 44.5q-1 -27 -20.5 -46t-46.5 -19t-47 19.5t-20 47.5v580q0 27 20 46.5t47 19.5t47 -19.5t20 -46.5v-170q52 55 140 55zM315 108
q51 0 90 41.5t39 110.5q0 68 -39 109.5t-90 41.5q-55 0 -91 -36.5t-36 -114.5t36 -115t91 -37z" />
    <glyph glyph-name="c" unicode="c" horiz-adv-x="540" 
d="M309 526q81 0 146 -42q35 -27 35 -55q0 -26 -17.5 -43.5t-42.5 -17.5q-24 0 -40 14q-36 28 -81 28q-52 0 -91 -40t-39 -111q0 -70 39 -110t91 -40q45 0 80 27q21 15 41 15q25 0 42.5 -17.5t17.5 -43.5q0 -28 -33 -53q-67 -44 -148 -44q-43 0 -88 16.5t-85 48t-65.5 84
t-25.5 117.5t25 118t65.5 84.5t85.5 48t88 16.5z" />
    <glyph glyph-name="d" unicode="d" horiz-adv-x="609" 
d="M486 707q27 0 47 -19.5t20 -46.5v-580q0 -28 -20 -47.5t-47 -19.5t-46.5 19t-20.5 46q-7 -23 -48 -44.5t-92 -21.5q-42 0 -84 16.5t-78.5 48t-59 84.5t-22.5 118q0 64 22.5 116t58.5 84t78 49t85 17q85 0 140 -55v170q0 27 20 46.5t47 19.5zM297 108q55 0 91.5 37
t36.5 115t-36 114.5t-92 36.5q-50 0 -89 -41.5t-39 -109.5q0 -69 39 -110.5t89 -41.5z" />
    <glyph glyph-name="e" unicode="e" horiz-adv-x="608" 
d="M309 526q57 0 114 -28t98.5 -87t41.5 -134q0 -37 -19 -53t-60 -16h-300q10 -46 48 -72.5t80 -26.5q50 0 83 19q22 14 40 14q27 0 42.5 -16t15.5 -43q0 -35 -31 -54q-64 -36 -152 -36q-42 0 -87 16.5t-85.5 47.5t-66.5 84t-26 118q0 64 26 117t66 84.5t85 48.5t87 17z
M309 410q-40 0 -76 -24.5t-47 -67.5h243q-11 43 -46 67.5t-74 24.5z" />
    <glyph glyph-name="f" unicode="f" horiz-adv-x="421" 
d="M382 671q24 -16 24 -46q0 -23 -16 -38.5t-39 -15.5q-16 0 -25 5q-34 16 -66 16q-7 0 -12.5 -1t-9.5 -2.5t-7.5 -4.5t-5.5 -5t-3.5 -6.5t-2 -7t-1 -7.5t-0.5 -6.5v-6.5v-6v-19h52q24 0 41 -16.5t17 -40.5q0 -25 -17 -41.5t-41 -16.5h-52v-344q0 -28 -20 -47.5t-47 -19.5
t-47 19.5t-20 47.5v344h-13q-24 0 -41.5 17t-17.5 41t17.5 40.5t41.5 16.5h13v26q0 40 12.5 70.5t31 47t44 27t46 13.5t42.5 3q64 0 122 -36z" />
    <glyph glyph-name="g" unicode="g" horiz-adv-x="592" 
d="M551 460v-399q0 -6 -1 -9q1 -2 1 -6v-46q0 -54 -25.5 -96t-65 -64.5t-81 -33.5t-80.5 -11q-57 0 -127 24q-33 14 -33 51q0 22 16.5 38.5t38.5 16.5q11 0 16 -2q46 -13 89 -13q55 0 86.5 26.5t31.5 63.5v46v9v4q-7 -23 -48 -44.5t-92 -21.5q-42 0 -84 16.5t-78.5 48
t-59 84.5t-22.5 118q0 64 22.5 116t58.5 84t78 49t85 17q83 0 140 -54v-12q0 28 19.5 47.5t47.5 19.5q27 0 47 -19.5t20 -47.5zM295 108q55 0 91.5 37t36.5 115t-36 114.5t-92 36.5q-50 0 -89 -41.5t-39 -109.5q0 -69 39 -110.5t89 -41.5z" />
    <glyph glyph-name="h" unicode="h" horiz-adv-x="619" 
d="M349 525q95 0 155 -57.5t60 -173.5v-232q0 -28 -20 -47.5t-47 -19.5t-47 19.5t-20 47.5v223q0 125 -98 125q-56 0 -93.5 -42.5t-44.5 -73.5v-233q0 -28 -20 -47.5t-47 -19.5t-47 19.5t-20 47.5v579q0 28 20 47.5t47 19.5t47 -19.5t20 -47.5v-222q5 33 46.5 70t108.5 37z
" />
    <glyph glyph-name="i" unicode="i" horiz-adv-x="258" 
d="M129 569q-28 0 -48.5 20.5t-20.5 48.5t20.5 48.5t48.5 20.5q29 0 49 -20.5t20 -48.5t-20 -48.5t-49 -20.5zM129 523q29 0 48.5 -19.5t19.5 -48.5v-393q0 -28 -19.5 -48t-48.5 -20q-28 0 -48 20t-20 48v393q0 28 20 48t48 20z" />
    <glyph glyph-name="j" unicode="j" horiz-adv-x="263" 
d="M132 569q-28 0 -48.5 20.5t-20.5 48.5t20.5 48.5t48.5 20.5t48.5 -20.5t20.5 -48.5t-20.5 -48.5t-48.5 -20.5zM130 523q27 0 47 -19.5t20 -47.5v-507q0 -77 -40.5 -115.5t-112.5 -38.5q-32 0 -68 9q-20 6 -33.5 23.5t-13.5 38.5q0 32 24.5 52t54.5 13h17q38 0 38 60v465
q0 28 19.5 47.5t47.5 19.5z" />
    <glyph glyph-name="k" unicode="k" horiz-adv-x="614" 
d="M513 52q0 -24 -17.5 -41t-41.5 -17q-27 0 -42 18l-176 186l-42 -44v-93q0 -28 -19.5 -47.5t-47.5 -19.5q-27 0 -47 19.5t-20 47.5v579q0 28 20 47.5t47 19.5q28 0 47.5 -19.5t19.5 -47.5v-311l168 179q20 20 44 20q25 0 42.5 -18.5t17.5 -42.5t-17 -43l-134 -142
l181 -189q17 -17 17 -41z" />
    <glyph glyph-name="l" unicode="l" horiz-adv-x="262" 
d="M131 707q29 0 48.5 -19.5t19.5 -48.5v-577q0 -28 -19.5 -48t-48.5 -20q-28 0 -48 20t-20 48v577q0 28 20 48t48 20z" />
    <glyph glyph-name="m" unicode="m" horiz-adv-x="990" 
d="M712 525q101 0 163 -60.5t62 -193.5v-208q0 -27 -20 -47.5t-47 -20.5q-28 0 -48 20.5t-20 47.5v207q0 68 -29 105t-75 37q-55 0 -86 -33t-47 -97v-219q0 -27 -20 -47.5t-47 -20.5q-28 0 -48 20.5t-20 47.5v207q0 68 -29.5 105t-76.5 37q-96 0 -131 -130v-219
q0 -27 -20 -47.5t-47 -20.5q-28 0 -48.5 20.5t-20.5 47.5v392q0 27 20.5 47.5t48.5 20.5q27 0 47 -20.5t20 -47.5v-42q0 34 42.5 73t104.5 39q151 0 201 -123q7 44 53.5 83.5t117.5 39.5z" />
    <glyph glyph-name="n" unicode="n" horiz-adv-x="619" 
d="M349 525q95 0 155 -57.5t60 -173.5v-232q0 -28 -20 -47.5t-47 -19.5t-47 19.5t-20 47.5v223q0 125 -98 125q-56 0 -93.5 -42.5t-44.5 -73.5v-232q0 -28 -20 -47.5t-47 -19.5t-47 19.5t-20 47.5v394q0 28 20 47.5t47 19.5t47 -19.5t20 -47.5v-38q5 33 46.5 70t108.5 37z
" />
    <glyph glyph-name="o" unicode="o" horiz-adv-x="602" 
d="M301 526q42 0 87 -17t85 -48.5t66 -84.5t26 -117q0 -52 -17 -97t-44.5 -75.5t-63 -52t-71 -31.5t-68.5 -10t-68.5 10t-71 31.5t-63 52t-44.5 75.5t-17 97q0 64 26 117t66 84.5t85 48.5t87 17zM301 410q-52 0 -91 -40t-39 -111q0 -70 39 -110t91 -40q51 0 90.5 40
t39.5 110t-39.5 110.5t-90.5 40.5z" />
    <glyph glyph-name="p" unicode="p" horiz-adv-x="606" 
d="M334 526q42 0 84 -17t78.5 -48.5t59 -84t22.5 -116.5q0 -65 -22.5 -118t-59 -84.5t-78.5 -48t-84 -16.5q-52 0 -92.5 21.5t-47.5 44.5v-189q0 -28 -20 -47.5t-47 -19.5t-47 19.5t-20 47.5v190v1v399q0 28 20 47.5t47 19.5t47 -19.5t20 -47.5v12q57 54 140 54zM315 108
q51 0 90 41.5t39 110.5q0 68 -39 109.5t-90 41.5q-55 0 -91 -36.5t-36 -114.5t36 -115t91 -37z" />
    <glyph glyph-name="q" unicode="q" horiz-adv-x="621" 
d="M556 460v-399v-1v-190q0 -28 -20 -47.5t-47 -19.5q-28 0 -47.5 19.5t-19.5 47.5v189q-7 -23 -47.5 -44.5t-92.5 -21.5q-42 0 -84 16.5t-78.5 48t-59 84.5t-22.5 118q0 64 22.5 116.5t59 84t78.5 48.5t84 17q83 0 140 -54v-12q0 28 20 47.5t47 19.5t47 -19.5t20 -47.5z
M301 108q55 0 91 37t36 115t-36 114.5t-91 36.5q-51 0 -90 -41.5t-39 -109.5q0 -69 39 -110.5t90 -41.5z" />
    <glyph glyph-name="r" unicode="r" horiz-adv-x="458" 
d="M366 525q31 0 49 -18t18 -44q0 -27 -19.5 -45.5t-48.5 -18.5h-16q-116 0 -157 -101v-237q0 -28 -20 -47.5t-47 -19.5t-47 19.5t-20 47.5v395q0 28 20 47.5t47 19.5t47 -19.5t20 -47.5v-26q33 42 78.5 68.5t95.5 26.5z" />
    <glyph glyph-name="s" unicode="s" horiz-adv-x="484" 
d="M234 526q64 0 97 -11t63 -37q18 -18 18 -43q0 -26 -18.5 -44.5t-45.5 -18.5q-26 0 -47 21q-23 19 -63 19q-23 0 -38.5 -11.5t-15.5 -27.5q0 -30 38 -42l72 -21q72 -22 111 -55.5t39 -104.5q0 -72 -64.5 -114.5t-143.5 -42.5q-108 0 -173 60q-23 24 -23 53q0 23 17 40.5
t44 17.5q31 0 48 -21q22 -22 41.5 -29t49.5 -7q28 0 46 12.5t18 30.5q0 38 -45 51l-65 19q-77 22 -112.5 58t-35.5 97q0 67 58.5 109t129.5 42z" />
    <glyph glyph-name="t" unicode="t" horiz-adv-x="385" 
d="M301 108q21 2 38 -13.5t17 -40.5q0 -35 -27 -48.5t-82 -13.5q-68 0 -106 34.5t-38 128.5v250h-19q-24 0 -41.5 17t-17.5 41t17.5 40.5t41.5 16.5h19v30q0 28 20 47.5t47 19.5t47 -19.5t20 -47.5v-30h58q24 0 41 -16.5t17 -40.5q0 -25 -17 -41.5t-41 -16.5h-58v-255
q0 -43 30 -43q21 0 34 1z" />
    <glyph glyph-name="u" unicode="u" 
d="M421 456q0 28 20 47.5t47 19.5t47 -19.5t20 -47.5v-394q0 -28 -20 -47.5t-47 -19.5t-47 19.5t-20 47.5v46q-10 -37 -54 -75.5t-106 -38.5q-91 0 -148.5 55.5t-57.5 171.5v235q0 28 20 47.5t47 19.5t47 -19.5t20 -47.5v-226q0 -62 24 -91.5t61 -29.5q56 0 99.5 47.5
t47.5 86.5v213z" />
    <glyph glyph-name="v" unicode="v" horiz-adv-x="592" 
d="M494 523q27 0 45 -18.5t18 -44.5q0 -14 -7 -28l-199 -383q-25 -51 -55 -51t-55 51l-198 383q-8 16 -8 28q0 26 18.5 44.5t44.5 18.5q40 0 56 -36l142 -296l143 296q7 16 22 26t33 10z" />
    <glyph glyph-name="w" unicode="w" horiz-adv-x="889" 
d="M791 523q26 0 44.5 -18.5t18.5 -44.5q0 -6 -9 -31l-146 -380q-19 -51 -60 -51q-39 0 -63 51l-131 275l-132 -275q-24 -51 -63 -51q-40 0 -61 51l-145 380q-9 25 -9 31q0 26 18.5 44.5t44.5 18.5q19 0 35 -10t21 -26l104 -296l127 291q17 41 60 41q42 0 59 -41l126 -291
l105 296q6 16 22 26t34 10z" />
    <glyph glyph-name="x" unicode="x" horiz-adv-x="576" 
d="M505 88q11 -14 11 -36q0 -24 -17.5 -41.5t-40.5 -17.5q-29 0 -48 24l-122 150l-122 -150q-19 -24 -48 -24q-23 0 -40.5 17.5t-17.5 41.5q0 22 11 36l141 172l-141 172q-11 12 -11 36q0 25 17.5 42.5t40.5 17.5q30 0 48 -25l122 -150l122 150q19 25 48 25q23 0 40.5 -17.5
t17.5 -42.5q0 -20 -11 -36l-141 -172z" />
    <glyph glyph-name="y" unicode="y" horiz-adv-x="595" 
d="M442 488q17 40 56 40q25 0 43.5 -18.5t18.5 -44.5q0 -3 -5 -23l-257 -602q-17 -38 -55 -38q-25 0 -43 18t-18 44q0 9 4 21l52 130l-198 427q-5 10 -5 25q0 24 17.5 42.5t42.5 18.5q38 0 56 -37l150 -320z" />
    <glyph glyph-name="z" unicode="z" horiz-adv-x="505" 
d="M366 520q63 0 90 -51t-18 -101l-247 -253h216q24 0 41 -16.5t17 -40.5q0 -25 -17 -41.5t-41 -16.5h-267q-63 0 -88 51t20 102l246 252h-220q-24 0 -41 17t-17 41t17 40.5t41 16.5h268z" />
    <glyph glyph-name="braceleft" unicode="{" horiz-adv-x="362" 
d="M259 745q24 0 41 -16.5t17 -40.5t-17 -41t-41 -17h-12q-35 0 -35 -31v-205q0 -20 -12 -36l-42 -52l41 -50q13 -16 13 -36v-204q0 -31 35 -31h12q24 0 41 -17t17 -41t-17 -40.5t-41 -16.5h-73q-43 0 -75.5 24t-32.5 85v256l-23 35q-22 36 0 71l23 38v257q0 61 32.5 85
t75.5 24h73z" />
    <glyph glyph-name="bar" unicode="|" horiz-adv-x="265" 
d="M133 807q24 0 40.5 -17t16.5 -41v-888q0 -24 -16.5 -41t-40.5 -17q-25 0 -41.5 17t-16.5 41v888q0 24 16.5 41t41.5 17z" />
    <glyph glyph-name="braceright" unicode="}" horiz-adv-x="339" 
d="M80 745h73q43 0 75.5 -24t32.5 -85v-257l23 -38q22 -35 0 -71l-23 -35v-256q0 -61 -32.5 -85t-75.5 -24h-73q-24 0 -41 16.5t-17 40.5t17 41t41 17h12q35 0 35 31v204q0 20 13 36l41 50l-42 52q-12 16 -12 36v205q0 31 -35 31h-12q-24 0 -41 17t-17 41t17 40.5t41 16.5z
" />
    <glyph glyph-name="asciitilde" unicode="~" horiz-adv-x="521" 
d="M172 373q44 0 108 -35t92 -35t43 6q3 3 7 6.5t6.5 5t5.5 3.5t6 3t7 1q15 0 23 -8t5 -22q-9 -44 -40 -71.5t-83 -27.5q-44 0 -109.5 40t-95.5 40q-29 0 -45 -13q-1 -1 -3 -4t-3 -4t-2.5 -3t-3 -3t-3 -2.5t-3 -2t-3.5 -1.5t-4.5 -1h-5.5q-30 0 -25 25q7 47 38.5 75t87.5 28
z" />
    <glyph glyph-name="exclamdown" unicode="&#xa1;" horiz-adv-x="254" 
d="M155 524q32 0 54 -22.5t22 -55.5q0 -31 -22.5 -53.5t-53.5 -22.5q-32 0 -55 22.5t-23 53.5q0 33 23 55.5t55 22.5zM155 -183q-31 0 -53.5 22.5t-22.5 53.5v337q0 31 22.5 53.5t53.5 22.5q30 0 52 -22.5t22 -53.5v-337q0 -31 -22 -53.5t-52 -22.5z" />
    <glyph glyph-name="cent" unicode="&#xa2;" horiz-adv-x="540" 
d="M430 223q25 0 42.5 -17.5t17.5 -42.5q0 -27 -33 -52q-49 -30 -102 -39v-61q0 -24 -17 -41t-40 -17q-25 0 -41.5 17t-16.5 41v67q-81 23 -137.5 87.5t-57.5 162.5q-1 100 56.5 164.5t138.5 87.5v69q0 24 16.5 41t41.5 17q23 0 40 -17t17 -41v-63q59 -10 100 -37
q35 -27 35 -53t-17 -43t-43 -17q-24 0 -40 13q-14 10 -35 20v-279q19 7 34 18q21 15 41 15zM179 328q0 -85 61 -125v252q-61 -40 -61 -127z" />
    <glyph glyph-name="sterling" unicode="&#xa3;" horiz-adv-x="594" 
d="M494 115q24 0 41 -16.5t17 -40.5t-17 -41t-41 -17h-391q-7 0 -18 0.5t-15 0.5q-15 2 -21 12t-3.5 22.5t12.5 25.5q60 78 79 114.5t20 71.5q0 15 -3 27h-31q-21 0 -36 15t-15 35q0 17 10.5 31t26.5 18q-36 63 -36 121q0 95 74 154t168 59q74 0 138.5 -40t90.5 -110
q7 -33 -12 -58.5t-52 -25.5q-24 0 -42 15t-23 37q-19 67 -100 67q-104 0 -104 -98q0 -57 38 -119h84q20 0 35 -15t15 -36q0 -20 -15 -35t-35 -15h-38q2 -14 2 -22q0 -64 -53 -137h250z" />
    <glyph glyph-name="currency" unicode="&#xa4;" horiz-adv-x="533" 
d="M453 476q0 -51 -22 -98l47 -46l-83 -81l-40 40q-56 -39 -126 -39q-67 0 -123 37l-39 -38l-82 81l44 44q-24 48 -24 100q0 57 26 104l-46 45l82 82l42 -42q56 35 120 35q69 0 123 -37l43 44l83 -82l-49 -48q24 -45 24 -101zM229 360q59 0 88 38.5t29 77.5t-29 77.5
t-88 38.5t-87.5 -38.5t-28.5 -77.5q0 -40 28.5 -78t87.5 -38z" />
    <glyph glyph-name="yen" unicode="&#xa5;" horiz-adv-x="679" 
d="M603 604l-211 -289v-2h52q21 0 36 -15t15 -36q0 -20 -15 -35t-36 -15h-52v-39h52q21 0 36 -15t15 -36t-15 -36t-36 -15h-52v-12q0 -27 -20 -46.5t-47 -19.5q-28 0 -47.5 19.5t-19.5 46.5v12h-23q-21 0 -36 15t-15 36t15 36t36 15h23v39h-23q-21 0 -36 15t-15 35
q0 21 15 36t36 15h23v2l-212 289q-11 15 -11 37q0 25 18.5 43.5t43.5 18.5q35 0 53 -27l175 -236l174 236q18 27 53 27q26 0 44 -18.5t18 -43.5q0 -22 -11 -37z" />
    <glyph glyph-name="brokenbar" unicode="&#xa6;" horiz-adv-x="265" 
d="M133 807q24 0 40.5 -17t16.5 -41v-178q0 -24 -16.5 -41.5t-40.5 -17.5t-41 17.5t-17 41.5v178q0 24 16.5 41t41.5 17zM133 97q24 0 40.5 -17t16.5 -41v-178q0 -24 -16.5 -41t-40.5 -17q-25 0 -41.5 17t-16.5 41v178q0 24 16.5 41t41.5 17z" />
    <glyph glyph-name="section" unicode="&#xa7;" horiz-adv-x="604" 
d="M559 215q0 -48 -27 -94q27 -48 27 -104q0 -95 -81 -153.5t-180 -58.5q-79 0 -143.5 40t-99.5 108q-17 38 -4.5 63.5t47.5 37.5q33 10 53.5 -3t41.5 -50q37 -59 105 -59q49 0 82 20t33 55t-22 54.5t-64 34.5l-87 29q-176 56 -176 201q0 46 27 100q-27 52 -27 104
q0 88 70 146t167 58q82 0 144 -38.5t93 -98.5q18 -36 5 -62t-50 -37q-33 -10 -50.5 2t-40.5 49q-34 48 -101 48q-41 0 -66 -18.5t-25 -48.5q0 -28 17 -45t55 -29l70 -25q207 -64 207 -226zM352 240q15 -5 61 -21q-3 61 -86 89l-87 27q-22 9 -36 13q6 -8 6 -12q0 -53 72 -71z
M420 216q1 0 2.5 -0.5t2.5 -1.5z" />
    <glyph glyph-name="dieresis" unicode="&#xa8;" horiz-adv-x="400" 
d="M72 572q-30 0 -51 21t-21 51q0 29 21 49.5t51 20.5q29 0 50 -20.5t21 -49.5q0 -30 -21 -51t-50 -21zM328 572q-29 0 -50 21t-21 51q0 29 21 49.5t50 20.5q30 0 51 -20.5t21 -49.5q0 -30 -21 -51t-51 -21z" />
    <glyph glyph-name="copyright" unicode="&#xa9;" horiz-adv-x="810" 
d="M406 707q89 0 170 -44.5t133.5 -127.5t52.5 -185t-52.5 -185t-133.5 -127.5t-170 -44.5q-90 0 -171.5 44.5t-134 127.5t-52.5 185t52.5 185t134 127.5t171.5 44.5zM406 574q-86 0 -147.5 -62.5t-61.5 -161.5t61.5 -161.5t147.5 -62.5t147 62.5t61 161.5t-61 161.5
t-147 62.5zM405 538q50 0 83.5 -17t33.5 -52q0 -24 -17.5 -42t-40.5 -18q-16 0 -27 3q-13 3 -19 3q-24 0 -40 -18t-16 -47q0 -28 16 -47t40 -19q1 0 19 4q12 4 27 4q24 0 41 -18.5t17 -42.5q0 -69 -117 -69q-76 0 -124.5 52.5t-48.5 135.5q0 82 49.5 135t123.5 53z" />
    <glyph glyph-name="ordfeminine" unicode="&#xaa;" horiz-adv-x="409" 
d="M195 715q72 0 110.5 -40.5t37.5 -116.5v-96q0 -31 6 -45q7 -23 0.5 -31.5t-27.5 -8.5q-44 0 -51 19q0 3 -2.5 9t-3.5 11q-35 -41 -92 -41q-62 0 -98.5 27t-36.5 79q0 48 40 76t99 33l73 7q0 22 -16 32.5t-39 10.5q-32 0 -68 -24q-28 -20 -52 4q-28 26 -9 47q50 48 129 48
zM250 522q-13 -2 -74 -8q-49 -4 -49 -33q0 -13 11 -22.5t35 -9.5q56 0 77 53v20z" />
    <glyph glyph-name="guillemotleft" unicode="&#xab;" horiz-adv-x="461" 
d="M25 361q0 44 39 66l54 25q28 16 47 6.5t19 -40.5q0 -40 -29 -68l-71 -68l71 -68q29 -28 29 -67q0 -31 -19 -41t-47 6l-54 25q-39 22 -39 66v158zM257 361q0 44 39 66l54 25q28 16 47 6.5t19 -40.5q0 -40 -29 -68l-71 -68l71 -68q29 -28 29 -67q0 -31 -19 -41t-47 6
l-54 25q-39 22 -39 66v158z" />
    <glyph glyph-name="logicalnot" unicode="&#xac;" horiz-adv-x="525" 
d="M404 302q33 0 54.5 -21.5t21.5 -54.5v-33q0 -27 -20 -47t-47 -20q-28 0 -47.5 20t-19.5 47v-1h-246q-22 0 -38.5 16t-16.5 39t16.5 39t38.5 16h304z" />
    <glyph glyph-name="uni00AD" unicode="&#xad;" horiz-adv-x="400" 
d="M315 330q22 0 38.5 -16t16.5 -39t-16.5 -39t-38.5 -16h-215q-22 0 -38.5 16t-16.5 39t16.5 39t38.5 16h215z" />
    <glyph glyph-name="registered" unicode="&#xae;" horiz-adv-x="795" 
d="M397 707q138 0 244 -102t106 -255t-106 -255t-244 -102q-135 0 -242 102.5t-107 254.5t107 254.5t242 102.5zM399 128q86 0 141.5 61t55.5 161t-55.5 161t-141.5 61q-70 0 -123 -45h108q60 0 98.5 -30t38.5 -77q0 -89 -75 -107l83 -134h-118l-39 76v-76h-102v343
q-70 -63 -70 -172q0 -98 58.5 -160t140.5 -62zM371 398h20q26 0 26 22q0 9 -7.5 15.5t-18.5 6.5h-20v-44z" />
    <glyph glyph-name="macron" unicode="&#xaf;" horiz-adv-x="390" 
d="M332 700q24 0 41 -16.5t17 -40.5q0 -25 -17 -41.5t-41 -16.5h-274q-24 0 -41 16.5t-17 41.5q0 24 17 40.5t41 16.5h274z" />
    <glyph glyph-name="degree" unicode="&#xb0;" horiz-adv-x="388" 
d="M194 719q61 0 105 -43t44 -103q0 -61 -44 -105t-105 -44t-105 44t-44 105q0 60 44 103t105 43zM194 623q-28 0 -39.5 -17.5t-11.5 -32.5q0 -17 11.5 -35.5t39.5 -18.5q27 0 39 18.5t12 35.5q0 15 -12 32.5t-39 17.5z" />
    <glyph glyph-name="plusminus" unicode="&#xb1;" horiz-adv-x="425" 
d="M104 234q-24 0 -41.5 16t-17.5 39t17.5 39t41.5 16h62v60q0 24 16 41.5t39 17.5q22 0 38.5 -18t16.5 -41v-60h61q24 0 41.5 -16t17.5 -39t-17.5 -39t-41.5 -16h-61v-63q0 -23 -16.5 -41t-38.5 -18q-23 0 -39 17.5t-16 41.5v63h-62zM337 111q24 0 41.5 -16t17.5 -39
t-17.5 -39t-41.5 -16h-233q-24 0 -41.5 16t-17.5 39t17.5 39t41.5 16h233z" />
    <glyph glyph-name="uni00B2" unicode="&#xb2;" horiz-adv-x="261" 
d="M129 704q34 0 59 -22.5t25 -52.5q0 -26 -14.5 -47t-53.5 -61l-47 -49h118v-32h-168v32l68 69q28 29 36.5 38.5t15.5 22.5t7 27q0 18 -14 31t-32 13q-19 0 -33 -13t-14 -37v-14h-37v14q0 35 24.5 58t59.5 23z" />
    <glyph glyph-name="uni00B3" unicode="&#xb3;" horiz-adv-x="273" 
d="M136 703q32 0 56 -20.5t24 -47.5q0 -32 -30 -53q42 -18 42 -66q0 -34 -27.5 -57t-64.5 -23q-41 0 -68 27.5t-23 63.5h38q-6 -23 11 -41t42 -18q22 0 38 13.5t16 34.5q0 28 -20 39t-54 5v32q63 3 63 43q0 15 -12.5 26t-30.5 11q-22 0 -35.5 -16t-10.5 -42h-38
q-4 38 21.5 63.5t62.5 25.5z" />
    <glyph glyph-name="acute" unicode="&#xb4;" horiz-adv-x="183" 
d="M109 774q29 0 49 -20t20 -49q0 -27 -16 -44l-73 -81q-15 -18 -36 -18q-25 0 -40 18.5t-5 45.5l35 101q18 47 66 47z" />
    <glyph glyph-name="uni00B5" unicode="&#xb5;" 
d="M488 523q27 0 47 -19.5t20 -47.5v-394q0 -28 -20 -47.5t-47 -19.5t-47 19.5t-20 47.5v46q-10 -37 -54 -75.5t-106 -38.5q-39 0 -72 10v-134q0 -28 -20 -47.5t-47 -19.5t-47 19.5t-20 47.5v586q0 28 20 47.5t47 19.5t47 -19.5t20 -47.5v-226q0 -62 24 -91.5t61 -29.5
q56 0 99.5 47.5t47.5 86.5v213q0 28 20 47.5t47 19.5z" />
    <glyph glyph-name="paragraph" unicode="&#xb6;" horiz-adv-x="892" 
d="M755 707q27 0 47 -19.5t20 -47.5v-581q0 -27 -20 -46.5t-47 -19.5q-28 0 -47.5 19.5t-19.5 46.5v581q0 28 19.5 47.5t47.5 19.5zM324 700h183q33 0 54.5 -21.5t21.5 -54.5v-562q0 -28 -20.5 -48.5t-48.5 -20.5t-48.5 20.5t-20.5 48.5v209h-121q-115 0 -185.5 61
t-70.5 153q0 91 70.5 153t185.5 62zM332 389h113v193h-113q-130 0 -130 -97q0 -96 130 -96z" />
    <glyph glyph-name="periodcentered" unicode="&#xb7;" horiz-adv-x="254" 
d="M113 203q-32 0 -55 22.5t-23 55.5q0 31 23 53.5t55 22.5q31 0 53.5 -22.5t22.5 -53.5q0 -33 -22 -55.5t-54 -22.5z" />
    <glyph glyph-name="cedilla" unicode="&#xb8;" horiz-adv-x="205" 
d="M113 -53q39 -9 65.5 -35t26.5 -63q0 -51 -49 -75t-129 -22q-15 -1 -22 5.5t-4 16.5q9 19 30 22q38 8 54.5 20t16.5 33q0 18 -14 28.5t-31 3.5q-12 -7 -21.5 -4.5t-19.5 19.5q-13 23 -2 43l35 62h115z" />
    <glyph glyph-name="uni00B9" unicode="&#xb9;" horiz-adv-x="200" 
d="M125 701v-261h-37v221l-17 -11l-18 31l35 20h37z" />
    <glyph glyph-name="ordmasculine" unicode="&#xba;" horiz-adv-x="409" 
d="M204 705q59 0 108 -45t49 -118t-49 -118.5t-108 -45.5q-58 0 -107 45.5t-49 118.5t49 118t107 45zM204 617q-26 0 -48.5 -22t-22.5 -51q0 -31 22.5 -54t48.5 -23q27 0 49 22.5t22 54.5q0 29 -22.5 51t-48.5 22z" />
    <glyph glyph-name="guillemotright" unicode="&#xbb;" horiz-adv-x="461" 
d="M145 361v-158q0 -44 -39 -66l-54 -25q-28 -16 -47 -6t-19 41q0 41 29 67l71 68l-71 68q-29 26 -29 68q0 31 19 40.5t47 -6.5l54 -25q39 -22 39 -66zM495 361v-158q0 -43 -38 -66l-55 -25q-28 -16 -47 -6t-19 41q0 39 29 67l71 68l-71 68q-29 28 -29 68q0 31 19 40.5
t47 -6.5l55 -25q38 -23 38 -66z" />
    <glyph glyph-name="onequarter" unicode="&#xbc;" horiz-adv-x="569" 
d="M100 701v-261h-37v221l-17 -11l-18 31l35 20h37zM503 700l-430 -700h-48l436 700h42zM517 261v-154h27v-31h-27v-76h-37v76h-132l132 185h37zM480 202l-65 -95h65v95z" />
    <glyph glyph-name="onehalf" unicode="&#xbd;" horiz-adv-x="544" 
d="M100 701v-261h-37v221l-17 -11l-18 31l35 20h37zM503 700l-430 -700h-48l436 700h42zM432 264q34 0 59 -22.5t25 -52.5q0 -26 -14.5 -47t-53.5 -61l-47 -49h118v-32h-168v32l68 69q28 29 36.5 38.5t15.5 22.5t7 27q0 18 -14 31t-32 13q-19 0 -33 -13t-14 -37v-14h-37v14
q0 35 24.5 58t59.5 23z" />
    <glyph glyph-name="threequarters" unicode="&#xbe;" horiz-adv-x="587" 
d="M116 703q32 0 56 -20.5t24 -47.5q0 -32 -30 -53q42 -18 42 -66q0 -34 -27.5 -57t-64.5 -23q-41 0 -68 27.5t-23 63.5h38q-6 -23 11 -41t42 -18q22 0 38 13.5t16 34.5q0 28 -20 39t-54 5v32q63 3 63 43q0 15 -12.5 26t-30.5 11q-22 0 -35.5 -16t-10.5 -42h-38
q-4 38 21.5 63.5t62.5 25.5zM531 700l-430 -700h-48l436 700h42zM535 261v-154h27v-31h-27v-76h-37v76h-132l132 185h37zM498 202l-65 -95h65v95z" />
    <glyph glyph-name="questiondown" unicode="&#xbf;" horiz-adv-x="558" 
d="M254 524q32 0 55 -22.5t23 -55.5q0 -31 -23 -53.5t-55 -22.5q-31 0 -54 22.5t-23 53.5q0 33 22.5 55.5t54.5 22.5zM275 -187q-93 0 -161.5 58t-68.5 152q0 41 14 72t34 50.5t40.5 39t34.5 48t14 66.5v3h139v-3q0 -46 -14.5 -82t-35.5 -59t-42 -42.5t-35.5 -42.5
t-14.5 -50q0 -95 96 -95q56 0 80 32.5t24 75.5h134q0 -101 -72.5 -162t-165.5 -61z" />
    <glyph glyph-name="Agrave" unicode="&#xc0;" horiz-adv-x="725" 
d="M318 954q48 0 66 -47l35 -101q10 -27 -5 -45.5t-40 -18.5q-21 0 -36 18l-73 81q-16 17 -16 44q0 29 20.5 49t48.5 20zM362 704q32 0 55 -46l257 -570q6 -16 6 -28q0 -28 -20 -48t-48 -20q-19 0 -36 11.5t-25 29.5l-68 149h-242l-67 -149q-8 -17 -25 -28.5t-37 -11.5
q-27 0 -47 19.5t-20 47.5q0 16 6 28l257 570q23 46 54 46zM362 474l-78 -176h157z" />
    <glyph glyph-name="Aacute" unicode="&#xc1;" horiz-adv-x="725" 
d="M399 954q29 0 49 -20t20 -49q0 -27 -16 -44l-73 -81q-15 -18 -36 -18q-25 0 -40 18.5t-5 45.5l35 101q18 47 66 47zM362 704q32 0 55 -46l257 -570q6 -16 6 -28q0 -28 -20 -48t-48 -20q-19 0 -36 11.5t-25 29.5l-68 149h-242l-67 -149q-8 -17 -25 -28.5t-37 -11.5
q-27 0 -47 19.5t-20 47.5q0 16 6 28l257 570q23 46 54 46zM362 474l-78 -176h157z" />
    <glyph glyph-name="Acircumflex" unicode="&#xc2;" horiz-adv-x="725" 
d="M437 947q44 0 66 -39l25 -54q16 -28 6.5 -47t-40.5 -19q-40 0 -68 29l-68 71l-68 -71q-28 -29 -67 -29q-31 0 -41 19t6 47l25 54q22 39 66 39h158zM362 704q32 0 55 -46l257 -570q6 -16 6 -28q0 -28 -20 -48t-48 -20q-19 0 -36 11.5t-25 29.5l-68 149h-242l-67 -149
q-8 -17 -25 -28.5t-37 -11.5q-27 0 -47 19.5t-20 47.5q0 16 6 28l257 570q23 46 54 46zM362 474l-78 -176h157z" />
    <glyph glyph-name="Atilde" unicode="&#xc3;" horiz-adv-x="725" 
d="M284 925q39 0 97.5 -34t81.5 -34q29 0 40 14q10 16 30 16q18 0 28 -13t6 -30q-13 -41 -46 -66.5t-77 -25.5q-39 0 -100 39t-86 39q-29 0 -39 -20q-8 -19 -30 -19q-16 0 -26 12t-6 28q12 42 45.5 68t81.5 26zM362 704q32 0 55 -46l257 -570q6 -16 6 -28q0 -28 -20 -48
t-48 -20q-19 0 -36 11.5t-25 29.5l-68 149h-242l-67 -149q-8 -17 -25 -28.5t-37 -11.5q-27 0 -47 19.5t-20 47.5q0 16 6 28l257 570q23 46 54 46zM362 474l-78 -176h157z" />
    <glyph glyph-name="Adieresis" unicode="&#xc4;" horiz-adv-x="725" 
d="M234 752q-30 0 -51 21t-21 51q0 29 21 49.5t51 20.5q29 0 50 -20.5t21 -49.5q0 -30 -21 -51t-50 -21zM490 752q-29 0 -50 21t-21 51q0 29 21 49.5t50 20.5q30 0 51 -20.5t21 -49.5q0 -30 -21 -51t-51 -21zM362 704q32 0 55 -46l257 -570q6 -16 6 -28q0 -28 -20 -48
t-48 -20q-19 0 -36 11.5t-25 29.5l-68 149h-242l-67 -149q-8 -17 -25 -28.5t-37 -11.5q-27 0 -47 19.5t-20 47.5q0 16 6 28l257 570q23 46 54 46zM362 474l-78 -176h157z" />
    <glyph glyph-name="Aring" unicode="&#xc5;" horiz-adv-x="725" 
d="M364 988q44 0 76 -32.5t32 -76.5t-32 -76.5t-76 -32.5q-47 0 -79.5 32t-32.5 77t32.5 77t79.5 32zM361 908q-11 0 -18.5 -8t-7.5 -20q0 -11 7.5 -19t18.5 -8t19.5 8t8.5 19q0 12 -8.5 20t-19.5 8zM362 704q32 0 55 -46l257 -570q6 -16 6 -28q0 -28 -20 -48t-48 -20
q-19 0 -36 11.5t-25 29.5l-68 149h-242l-67 -149q-8 -17 -25 -28.5t-37 -11.5q-27 0 -47 19.5t-20 47.5q0 16 6 28l257 570q23 46 54 46zM362 474l-78 -176h157z" />
    <glyph glyph-name="AE" unicode="&#xc6;" horiz-adv-x="1041" 
d="M950 120q25 0 43 -17.5t18 -41.5q0 -25 -18 -43t-43 -18h-351q-33 0 -54.5 21.5t-21.5 54.5v113h-217l-129 -189h-149l479 700h433q25 0 43 -17.5t18 -41.5q0 -25 -18 -43t-43 -18h-275v-169h175q25 0 43 -17t18 -42t-18 -43t-43 -18h-175v-171h285zM385 304h138v203z
" />
    <glyph glyph-name="Ccedilla" unicode="&#xc7;" horiz-adv-x="630" 
d="M522 163q28 0 48 -20t20 -48q0 -37 -32 -57q-62 -36 -127 -43l-46 -48q39 -9 65.5 -35t26.5 -63q0 -51 -49 -75t-129 -22q-15 -1 -22 5.5t-4 16.5q9 19 30 22q38 8 54.5 20t16.5 33q0 18 -14 28.5t-31 3.5q-12 -7 -21.5 -4.5t-19.5 19.5q-13 23 -2 43l35 62
q-116 26 -196 121.5t-80 226.5q0 102 50.5 185.5t129.5 128t167 44.5q85 0 166 -45q32 -20 32 -57q0 -28 -20 -48t-48 -20q-20 0 -36 11q-51 28 -91 28q-84 0 -145 -66t-61 -160q0 -96 61 -161t145 -65q41 0 90 28q14 11 37 11z" />
    <glyph glyph-name="Egrave" unicode="&#xc8;" horiz-adv-x="603" 
d="M267 954q48 0 66 -47l35 -101q10 -27 -5 -45.5t-40 -18.5q-21 0 -36 18l-73 81q-16 17 -16 44q0 29 20 49t49 20zM207 120h285q25 0 43 -17.5t18 -41.5q0 -25 -18 -43t-43 -18h-351q-33 0 -54.5 21.5t-21.5 54.5v548q0 33 21.5 54.5t54.5 21.5h341q25 0 43 -17.5
t18 -41.5q0 -25 -18 -43t-43 -18h-275v-169h175q25 0 43 -17t18 -42t-18 -43t-43 -18h-175v-171z" />
    <glyph glyph-name="Eacute" unicode="&#xc9;" horiz-adv-x="603" 
d="M348 954q28 0 48.5 -20t20.5 -49q0 -27 -16 -44l-73 -81q-15 -18 -36 -18q-25 0 -40 18.5t-5 45.5l35 101q18 47 66 47zM207 120h285q25 0 43 -17.5t18 -41.5q0 -25 -18 -43t-43 -18h-351q-33 0 -54.5 21.5t-21.5 54.5v548q0 33 21.5 54.5t54.5 21.5h341q25 0 43 -17.5
t18 -41.5q0 -25 -18 -43t-43 -18h-275v-169h175q25 0 43 -17t18 -42t-18 -43t-43 -18h-175v-171z" />
    <glyph glyph-name="Ecircumflex" unicode="&#xca;" horiz-adv-x="603" 
d="M387 947q44 0 66 -39l25 -54q16 -28 6.5 -47t-40.5 -19q-40 0 -68 29l-68 71l-68 -71q-28 -29 -67 -29q-31 0 -41 19t6 47l25 54q22 39 66 39h158zM207 120h285q25 0 43 -17.5t18 -41.5q0 -25 -18 -43t-43 -18h-351q-33 0 -54.5 21.5t-21.5 54.5v548q0 33 21.5 54.5
t54.5 21.5h341q25 0 43 -17.5t18 -41.5q0 -25 -18 -43t-43 -18h-275v-169h175q25 0 43 -17t18 -42t-18 -43t-43 -18h-175v-171z" />
    <glyph glyph-name="Edieresis" unicode="&#xcb;" horiz-adv-x="603" 
d="M184 752q-30 0 -51 21t-21 51q0 29 21 49.5t51 20.5q29 0 50 -20.5t21 -49.5q0 -30 -21 -51t-50 -21zM440 752q-29 0 -50 21t-21 51q0 29 21 49.5t50 20.5q30 0 51 -20.5t21 -49.5q0 -30 -21 -51t-51 -21zM207 120h285q25 0 43 -17.5t18 -41.5q0 -25 -18 -43t-43 -18
h-351q-33 0 -54.5 21.5t-21.5 54.5v548q0 33 21.5 54.5t54.5 21.5h341q25 0 43 -17.5t18 -41.5q0 -25 -18 -43t-43 -18h-275v-169h175q25 0 43 -17t18 -42t-18 -43t-43 -18h-175v-171z" />
    <glyph glyph-name="Igrave" unicode="&#xcc;" horiz-adv-x="263" 
d="M87 954q48 0 66 -47l35 -101q10 -27 -5 -45.5t-40 -18.5q-21 0 -36 18l-73 81q-16 17 -16 44q0 29 20 49t49 20zM132 703q28 0 49 -21t21 -50v-568q0 -29 -21 -50t-49 -21q-29 0 -50 21t-21 50v568q0 29 21 50t50 21z" />
    <glyph glyph-name="Iacute" unicode="&#xcd;" horiz-adv-x="263" 
d="M168 954q28 0 48.5 -20t20.5 -49q0 -27 -16 -44l-73 -81q-15 -18 -36 -18q-25 0 -40 18.5t-5 45.5l35 101q18 47 66 47zM132 703q28 0 49 -21t21 -50v-568q0 -29 -21 -50t-49 -21q-29 0 -50 21t-21 50v568q0 29 21 50t50 21z" />
    <glyph glyph-name="Icircumflex" unicode="&#xce;" horiz-adv-x="263" 
d="M207 947q44 0 66 -39l25 -54q16 -28 6.5 -47t-40.5 -19q-40 0 -68 29l-68 71l-68 -71q-28 -29 -67 -29q-31 0 -41 19t6 47l25 54q22 39 66 39h158zM132 703q28 0 49 -21t21 -50v-568q0 -29 -21 -50t-49 -21q-29 0 -50 21t-21 50v568q0 29 21 50t50 21z" />
    <glyph glyph-name="Idieresis" unicode="&#xcf;" horiz-adv-x="263" 
d="M4 752q-30 0 -51 21t-21 51q0 29 21 49.5t51 20.5q29 0 50 -20.5t21 -49.5q0 -30 -21 -51t-50 -21zM260 752q-29 0 -50 21t-21 51q0 29 21 49.5t50 20.5q30 0 51 -20.5t21 -49.5q0 -30 -21 -51t-51 -21zM132 703q28 0 49 -21t21 -50v-568q0 -29 -21 -50t-49 -21
q-29 0 -50 21t-21 50v568q0 29 21 50t50 21z" />
    <glyph glyph-name="Eth" unicode="&#xd0;" horiz-adv-x="812" 
d="M384 700q142 0 247 -102t105 -244q0 -147 -105 -250.5t-247 -103.5h-165q-33 0 -54.5 21.5t-21.5 54.5v212h-13q-22 0 -38.5 16t-16.5 39t16.5 39t38.5 16h13v226q0 33 21.5 54.5t54.5 21.5h165zM384 116q94 0 153.5 68t59.5 170q0 97 -59.5 163.5t-153.5 66.5h-103v-186
h64q22 0 38.5 -16t16.5 -39t-16.5 -39t-38.5 -16h-64v-172h103z" />
    <glyph glyph-name="Ntilde" unicode="&#xd1;" horiz-adv-x="687" 
d="M265 925q39 0 97.5 -34t81.5 -34q29 0 40 14q10 16 30 16q18 0 28 -13t6 -30q-13 -41 -46 -66.5t-77 -25.5q-39 0 -100 39t-86 39q-29 0 -39 -20q-8 -19 -30 -19q-16 0 -26 12t-6 28q12 42 45.5 68t81.5 26zM553 703q28 0 48.5 -21t20.5 -50v-575q0 -29 -16.5 -46.5
t-38.5 -17.5q-46 0 -73 42l-289 407v-377q0 -29 -20.5 -50t-48.5 -21q-29 0 -50 21t-21 50v574q0 30 19 47t43 17q45 0 74 -40l281 -404v373q0 29 20.5 50t50.5 21z" />
    <glyph glyph-name="Ograve" unicode="&#xd2;" horiz-adv-x="793" 
d="M352 954q48 0 66 -47l35 -101q10 -27 -5 -45.5t-40 -18.5q-21 0 -36 18l-73 81q-16 17 -16 44q0 29 20.5 49t48.5 20zM396 707q137 0 243 -102t106 -255t-106 -255t-243 -102q-88 0 -167.5 44.5t-130 127.5t-50.5 185t50.5 185t130 127.5t167.5 44.5zM396 576
q-83 0 -143.5 -63.5t-60.5 -162.5t60.5 -162.5t143.5 -63.5q84 0 144 63.5t60 162.5t-59.5 162.5t-144.5 63.5z" />
    <glyph glyph-name="Oacute" unicode="&#xd3;" horiz-adv-x="793" 
d="M433 954q29 0 49 -20t20 -49q0 -27 -16 -44l-73 -81q-15 -18 -36 -18q-25 0 -40 18.5t-5 45.5l35 101q18 47 66 47zM396 707q137 0 243 -102t106 -255t-106 -255t-243 -102q-88 0 -167.5 44.5t-130 127.5t-50.5 185t50.5 185t130 127.5t167.5 44.5zM396 576
q-83 0 -143.5 -63.5t-60.5 -162.5t60.5 -162.5t143.5 -63.5q84 0 144 63.5t60 162.5t-59.5 162.5t-144.5 63.5z" />
    <glyph glyph-name="Ocircumflex" unicode="&#xd4;" horiz-adv-x="793" 
d="M471 947q44 0 66 -39l25 -54q16 -28 6.5 -47t-40.5 -19q-40 0 -68 29l-68 71l-68 -71q-28 -29 -67 -29q-31 0 -41 19t6 47l25 54q22 39 66 39h158zM396 707q137 0 243 -102t106 -255t-106 -255t-243 -102q-88 0 -167.5 44.5t-130 127.5t-50.5 185t50.5 185t130 127.5
t167.5 44.5zM396 576q-83 0 -143.5 -63.5t-60.5 -162.5t60.5 -162.5t143.5 -63.5q84 0 144 63.5t60 162.5t-59.5 162.5t-144.5 63.5z" />
    <glyph glyph-name="Otilde" unicode="&#xd5;" horiz-adv-x="793" 
d="M318 925q39 0 97.5 -34t81.5 -34q29 0 40 14q10 16 30 16q18 0 28 -13t6 -30q-13 -41 -46 -66.5t-77 -25.5q-39 0 -100 39t-86 39q-29 0 -39 -20q-8 -19 -30 -19q-16 0 -26 12t-6 28q12 42 45.5 68t81.5 26zM396 707q137 0 243 -102t106 -255t-106 -255t-243 -102
q-88 0 -167.5 44.5t-130 127.5t-50.5 185t50.5 185t130 127.5t167.5 44.5zM396 576q-83 0 -143.5 -63.5t-60.5 -162.5t60.5 -162.5t143.5 -63.5q84 0 144 63.5t60 162.5t-59.5 162.5t-144.5 63.5z" />
    <glyph glyph-name="Odieresis" unicode="&#xd6;" horiz-adv-x="793" 
d="M268 752q-30 0 -51 21t-21 51q0 29 21 49.5t51 20.5q29 0 50 -20.5t21 -49.5q0 -30 -21 -51t-50 -21zM524 752q-29 0 -50 21t-21 51q0 29 21 49.5t50 20.5q30 0 51 -20.5t21 -49.5q0 -30 -21 -51t-51 -21zM396 707q137 0 243 -102t106 -255t-106 -255t-243 -102
q-88 0 -167.5 44.5t-130 127.5t-50.5 185t50.5 185t130 127.5t167.5 44.5zM396 576q-83 0 -143.5 -63.5t-60.5 -162.5t60.5 -162.5t143.5 -63.5q84 0 144 63.5t60 162.5t-59.5 162.5t-144.5 63.5z" />
    <glyph glyph-name="multiply" unicode="&#xd7;" horiz-adv-x="405" 
d="M329 228q17 -17 18 -40.5t-15 -39.5t-40 -15t-41 18l-43 43l-45 -44q-17 -17 -40.5 -18t-39.5 15t-15 40t18 41l44 44l-43 43q-17 17 -18 40.5t15 40.5q16 16 39.5 15t41.5 -18l43 -43l42 42q17 17 40.5 18t40.5 -15q16 -16 15 -39.5t-18 -41.5l-42 -42z" />
    <glyph glyph-name="Oslash" unicode="&#xd8;" horiz-adv-x="793" 
d="M604 636q65 -49 103 -123t38 -163q0 -153 -106 -255t-243 -102q-46 0 -93 14l-12 -25q-9 -17 -25.5 -28.5t-34.5 -11.5q-29 0 -48.5 20t-19.5 48q0 16 6 30l14 29q-62 49 -98.5 122t-36.5 159q0 102 50.5 185t130 127.5t167.5 44.5q45 0 87 -12l8 18q9 17 25.5 28.5
t34.5 11.5q29 0 48.5 -20t19.5 -48q0 -17 -6 -30zM192 350q0 -90 52 -153l181 377q-20 2 -29 2q-83 0 -143.5 -63.5t-60.5 -162.5zM396 124q84 0 144 63.5t60 162.5q0 95 -57 160l-183 -383q18 -3 36 -3z" />
    <glyph glyph-name="Ugrave" unicode="&#xd9;" horiz-adv-x="699" 
d="M305 954q48 0 66 -47l35 -101q10 -27 -5 -45.5t-40 -18.5q-21 0 -36 18l-73 81q-16 17 -16 44q0 29 20 49t49 20zM567 703q28 0 47.5 -19.5t19.5 -47.5v-385q0 -115 -84 -186.5t-200 -71.5q-117 0 -201 71.5t-84 186.5v385q0 28 20 47.5t47 19.5t47 -19.5t20 -47.5v-384
q0 -73 44 -108.5t107 -35.5t106.5 35.5t43.5 108.5v384q0 28 20 47.5t47 19.5z" />
    <glyph glyph-name="Uacute" unicode="&#xda;" horiz-adv-x="699" 
d="M386 954q28 0 48.5 -20t20.5 -49q0 -27 -16 -44l-73 -81q-15 -18 -36 -18q-25 0 -40 18.5t-5 45.5l35 101q18 47 66 47zM567 703q28 0 47.5 -19.5t19.5 -47.5v-385q0 -115 -84 -186.5t-200 -71.5q-117 0 -201 71.5t-84 186.5v385q0 28 20 47.5t47 19.5t47 -19.5t20 -47.5
v-384q0 -73 44 -108.5t107 -35.5t106.5 35.5t43.5 108.5v384q0 28 20 47.5t47 19.5z" />
    <glyph glyph-name="Ucircumflex" unicode="&#xdb;" horiz-adv-x="699" 
d="M424 947q44 0 66 -39l25 -54q16 -28 6.5 -47t-40.5 -19q-40 0 -68 29l-68 71l-68 -71q-28 -29 -67 -29q-31 0 -41 19t6 47l25 54q22 39 66 39h158zM567 703q28 0 47.5 -19.5t19.5 -47.5v-385q0 -115 -84 -186.5t-200 -71.5q-117 0 -201 71.5t-84 186.5v385q0 28 20 47.5
t47 19.5t47 -19.5t20 -47.5v-384q0 -73 44 -108.5t107 -35.5t106.5 35.5t43.5 108.5v384q0 28 20 47.5t47 19.5z" />
    <glyph glyph-name="Udieresis" unicode="&#xdc;" horiz-adv-x="699" 
d="M221 752q-30 0 -51 21t-21 51q0 29 21 49.5t51 20.5q29 0 50 -20.5t21 -49.5q0 -30 -21 -51t-50 -21zM477 752q-29 0 -50 21t-21 51q0 29 21 49.5t50 20.5q30 0 51 -20.5t21 -49.5q0 -30 -21 -51t-51 -21zM567 703q28 0 47.5 -19.5t19.5 -47.5v-385q0 -115 -84 -186.5
t-200 -71.5q-117 0 -201 71.5t-84 186.5v385q0 28 20 47.5t47 19.5t47 -19.5t20 -47.5v-384q0 -73 44 -108.5t107 -35.5t106.5 35.5t43.5 108.5v384q0 28 20 47.5t47 19.5z" />
    <glyph glyph-name="Yacute" unicode="&#xdd;" horiz-adv-x="649" 
d="M361 954q29 0 49 -20t20 -49q0 -27 -16 -44l-73 -81q-15 -18 -36 -18q-25 0 -40 18.5t-5 45.5l35 101q18 47 66 47zM552 703q26 0 44 -18.5t18 -43.5q0 -22 -11 -37l-211 -289v-256q0 -27 -20 -46.5t-47 -19.5q-28 0 -47.5 19.5t-19.5 46.5v256l-212 289q-11 15 -11 37
q0 25 18.5 43.5t43.5 18.5q35 0 53 -27l175 -236l174 236q18 27 53 27z" />
    <glyph glyph-name="Thorn" unicode="&#xde;" horiz-adv-x="692" 
d="M347 565q127 0 203.5 -59t76.5 -154q0 -101 -75.5 -157t-204.5 -56h-138v-139h-134v700h134v-135h138zM349 254q74 0 96 8q48 18 48 90q0 27 -8.5 46.5t-20.5 29.5t-33.5 15t-38 6t-43.5 1h-140v-196h140z" />
    <glyph glyph-name="germandbls" unicode="&#xdf;" horiz-adv-x="667" 
d="M323 700q103 0 181 -53t78 -138q0 -52 -35 -88.5t-74 -36.5q58 -5 103.5 -54.5t45.5 -112.5q0 -109 -63 -163t-176 -54h-45q-68 0 -68 59q0 60 68 60h44q48 0 77 20t29 78q0 54 -32.5 75.5t-73.5 21.5h-44q-68 0 -68 59q0 60 68 60h44q39 0 52.5 17t13.5 59q0 38 -35 57
t-90 19q-60 0 -89.5 -25.5t-29.5 -87.5v-404q0 -68 -67 -68t-67 68v404q0 104 73 166t180 62z" />
    <glyph glyph-name="agrave" unicode="&#xe0;" horiz-adv-x="612" 
d="M295 580l-73 81q-16 17 -16 44q0 29 20 49t49 20q48 0 66 -47l35 -101q10 -27 -5 -45.5t-40 -18.5q-21 0 -36 18zM489 527q27 0 47 -19.5t20 -47.5v-399q0 -28 -20 -47.5t-47 -19.5t-47 19t-20 46q-8 -23 -48.5 -44.5t-91.5 -21.5q-42 0 -84 16.5t-78.5 48t-59 84.5
t-22.5 118q0 64 22.5 116t58.5 84t78 49t85 17q83 0 140 -54v-12q0 28 19.5 47.5t47.5 19.5zM300 108q55 0 91.5 37t36.5 115t-36 114.5t-92 36.5q-50 0 -89 -41.5t-39 -109.5q0 -69 39 -110.5t89 -41.5z" />
    <glyph glyph-name="aacute" unicode="&#xe1;" horiz-adv-x="612" 
d="M300 562q-25 0 -40 18.5t-5 45.5l35 101q18 47 66 47q28 0 48.5 -20t20.5 -49q0 -27 -16 -44l-73 -81q-15 -18 -36 -18zM489 527q27 0 47 -19.5t20 -47.5v-399q0 -28 -20 -47.5t-47 -19.5t-47 19t-20 46q-8 -23 -48.5 -44.5t-91.5 -21.5q-42 0 -84 16.5t-78.5 48
t-59 84.5t-22.5 118q0 64 22.5 116t58.5 84t78 49t85 17q83 0 140 -54v-12q0 28 19.5 47.5t47.5 19.5zM300 108q55 0 91.5 37t36.5 115t-36 114.5t-92 36.5q-50 0 -89 -41.5t-39 -109.5q0 -69 39 -110.5t89 -41.5z" />
    <glyph glyph-name="acircumflex" unicode="&#xe2;" horiz-adv-x="612" 
d="M180 608q-31 0 -41 19t6 47l25 54q22 39 66 39h158q44 0 66 -39l25 -54q16 -28 6.5 -47t-40.5 -19q-40 0 -68 29l-68 71l-68 -71q-28 -29 -67 -29zM489 527q27 0 47 -19.5t20 -47.5v-399q0 -28 -20 -47.5t-47 -19.5t-47 19t-20 46q-8 -23 -48.5 -44.5t-91.5 -21.5
q-42 0 -84 16.5t-78.5 48t-59 84.5t-22.5 118q0 64 22.5 116t58.5 84t78 49t85 17q83 0 140 -54v-12q0 28 19.5 47.5t47.5 19.5zM300 108q55 0 91.5 37t36.5 115t-36 114.5t-92 36.5q-50 0 -89 -41.5t-39 -109.5q0 -69 39 -110.5t89 -41.5z" />
    <glyph glyph-name="atilde" unicode="&#xe3;" horiz-adv-x="612" 
d="M146 611q-16 0 -26 12t-6 28q12 42 45.5 68t81.5 26q39 0 97.5 -34t81.5 -34q29 0 40 14q10 16 30 16q18 0 28 -13t6 -30q-13 -41 -46 -66.5t-77 -25.5q-39 0 -100 39t-86 39q-29 0 -39 -20q-8 -19 -30 -19zM489 527q27 0 47 -19.5t20 -47.5v-399q0 -28 -20 -47.5
t-47 -19.5t-47 19t-20 46q-8 -23 -48.5 -44.5t-91.5 -21.5q-42 0 -84 16.5t-78.5 48t-59 84.5t-22.5 118q0 64 22.5 116t58.5 84t78 49t85 17q83 0 140 -54v-12q0 28 19.5 47.5t47.5 19.5zM300 108q55 0 91.5 37t36.5 115t-36 114.5t-92 36.5q-50 0 -89 -41.5t-39 -109.5
q0 -69 39 -110.5t89 -41.5z" />
    <glyph glyph-name="adieresis" unicode="&#xe4;" horiz-adv-x="612" 
d="M191 572q-30 0 -51 21t-21 51q0 29 21 49.5t51 20.5q29 0 50 -20.5t21 -49.5q0 -30 -21 -51t-50 -21zM447 572q-29 0 -50 21t-21 51q0 29 21 49.5t50 20.5q30 0 51 -20.5t21 -49.5q0 -30 -21 -51t-51 -21zM489 527q27 0 47 -19.5t20 -47.5v-399q0 -28 -20 -47.5
t-47 -19.5t-47 19t-20 46q-8 -23 -48.5 -44.5t-91.5 -21.5q-42 0 -84 16.5t-78.5 48t-59 84.5t-22.5 118q0 64 22.5 116t58.5 84t78 49t85 17q83 0 140 -54v-12q0 28 19.5 47.5t47.5 19.5zM300 108q55 0 91.5 37t36.5 115t-36 114.5t-92 36.5q-50 0 -89 -41.5t-39 -109.5
q0 -69 39 -110.5t89 -41.5z" />
    <glyph glyph-name="aring" unicode="&#xe5;" horiz-adv-x="612" 
d="M321 590q-47 0 -79.5 32t-32.5 77t32.5 77t79.5 32q44 0 76 -32.5t32 -76.5t-32 -76.5t-76 -32.5zM318 728q-11 0 -18.5 -8t-7.5 -20q0 -11 7.5 -19t18.5 -8t19.5 8t8.5 19q0 12 -8.5 20t-19.5 8zM489 527q27 0 47 -19.5t20 -47.5v-399q0 -28 -20 -47.5t-47 -19.5t-47 19
t-20 46q-8 -23 -48.5 -44.5t-91.5 -21.5q-42 0 -84 16.5t-78.5 48t-59 84.5t-22.5 118q0 64 22.5 116t58.5 84t78 49t85 17q83 0 140 -54v-12q0 28 19.5 47.5t47.5 19.5zM300 108q55 0 91.5 37t36.5 115t-36 114.5t-92 36.5q-50 0 -89 -41.5t-39 -109.5q0 -69 39 -110.5
t89 -41.5z" />
    <glyph glyph-name="ae" unicode="&#xe6;" horiz-adv-x="992" 
d="M947 277q0 -37 -19 -53t-60 -16h-300q10 -46 48 -72.5t80 -26.5q50 0 83 19q22 14 40 14q26 0 42 -16.5t16 -42.5q0 -35 -31 -54q-64 -36 -152 -36q-75 0 -143 43q-8 -19 -25 -30.5t-37 -11.5q-27 0 -47 19t-20 46q-8 -23 -48.5 -44.5t-91.5 -21.5q-42 0 -84 16.5
t-78.5 48t-59 84.5t-22.5 118q0 64 22.5 116t58.5 84t78 49t85 17q83 0 140 -54v-12q0 28 19.5 47.5t47.5 19.5q21 0 38 -12t25 -32q68 43 141 43q57 0 114 -28t98.5 -87t41.5 -134zM300 108q55 0 91.5 37t36.5 115t-36 114.5t-92 36.5q-50 0 -89 -41.5t-39 -109.5
q0 -69 39 -110.5t89 -41.5zM569 318h243q-11 43 -45.5 67.5t-73.5 24.5q-40 0 -76.5 -24.5t-47.5 -67.5z" />
    <glyph glyph-name="ccedilla" unicode="&#xe7;" horiz-adv-x="540" 
d="M430 151q25 0 42.5 -17.5t17.5 -43.5q0 -28 -33 -53q-45 -29 -102 -40l-47 -50q39 -9 65.5 -35t26.5 -63q0 -51 -49 -75t-129 -22q-15 -1 -22 5.5t-4 16.5q9 19 30 22q38 8 54.5 20t16.5 33q0 18 -14 28.5t-31 3.5q-12 -7 -21.5 -4.5t-19.5 19.5q-13 23 -2 43l35 62h4
q-83 21 -142.5 87.5t-60.5 170.5q0 65 25 118t65.5 84.5t85.5 48t88 16.5q81 0 146 -42q35 -27 35 -55q0 -26 -17.5 -43.5t-42.5 -17.5q-24 0 -40 14q-36 28 -81 28q-52 0 -91 -40t-39 -111q0 -70 39 -110t91 -40q45 0 80 27q21 15 41 15z" />
    <glyph glyph-name="egrave" unicode="&#xe8;" horiz-adv-x="608" 
d="M265 774q48 0 66 -47l35 -101q10 -27 -5 -45.5t-40 -18.5q-21 0 -36 18l-73 81q-16 17 -16 44q0 29 20 49t49 20zM309 526q57 0 114 -28t98.5 -87t41.5 -134q0 -37 -19 -53t-60 -16h-300q10 -46 48 -72.5t80 -26.5q50 0 83 19q22 14 40 14q27 0 42.5 -16t15.5 -43
q0 -35 -31 -54q-64 -36 -152 -36q-42 0 -87 16.5t-85.5 47.5t-66.5 84t-26 118q0 64 26 117t66 84.5t85 48.5t87 17zM309 410q-40 0 -76 -24.5t-47 -67.5h243q-11 43 -46 67.5t-74 24.5z" />
    <glyph glyph-name="eacute" unicode="&#xe9;" horiz-adv-x="608" 
d="M345 774q29 0 49 -20t20 -49q0 -27 -16 -44l-73 -81q-15 -18 -36 -18q-25 0 -40 18.5t-5 45.5l35 101q18 47 66 47zM309 526q57 0 114 -28t98.5 -87t41.5 -134q0 -37 -19 -53t-60 -16h-300q10 -46 48 -72.5t80 -26.5q50 0 83 19q22 14 40 14q27 0 42.5 -16t15.5 -43
q0 -35 -31 -54q-64 -36 -152 -36q-42 0 -87 16.5t-85.5 47.5t-66.5 84t-26 118q0 64 26 117t66 84.5t85 48.5t87 17zM309 410q-40 0 -76 -24.5t-47 -67.5h243q-11 43 -46 67.5t-74 24.5z" />
    <glyph glyph-name="ecircumflex" unicode="&#xea;" horiz-adv-x="608" 
d="M384 767q44 0 66 -39l25 -54q16 -28 6.5 -47t-40.5 -19q-40 0 -68 29l-68 71l-68 -71q-28 -29 -67 -29q-31 0 -41 19t6 47l25 54q22 39 66 39h158zM309 526q57 0 114 -28t98.5 -87t41.5 -134q0 -37 -19 -53t-60 -16h-300q10 -46 48 -72.5t80 -26.5q50 0 83 19
q22 14 40 14q27 0 42.5 -16t15.5 -43q0 -35 -31 -54q-64 -36 -152 -36q-42 0 -87 16.5t-85.5 47.5t-66.5 84t-26 118q0 64 26 117t66 84.5t85 48.5t87 17zM309 410q-40 0 -76 -24.5t-47 -67.5h243q-11 43 -46 67.5t-74 24.5z" />
    <glyph glyph-name="edieresis" unicode="&#xeb;" horiz-adv-x="608" 
d="M181 572q-30 0 -51 21t-21 51q0 29 21 49.5t51 20.5q29 0 50 -20.5t21 -49.5q0 -30 -21 -51t-50 -21zM437 572q-29 0 -50 21t-21 51q0 29 21 49.5t50 20.5q30 0 51 -20.5t21 -49.5q0 -30 -21 -51t-51 -21zM309 526q57 0 114 -28t98.5 -87t41.5 -134q0 -37 -19 -53
t-60 -16h-300q10 -46 48 -72.5t80 -26.5q50 0 83 19q22 14 40 14q27 0 42.5 -16t15.5 -43q0 -35 -31 -54q-64 -36 -152 -36q-42 0 -87 16.5t-85.5 47.5t-66.5 84t-26 118q0 64 26 117t66 84.5t85 48.5t87 17zM309 410q-40 0 -76 -24.5t-47 -67.5h243q-11 43 -46 67.5
t-74 24.5z" />
    <glyph glyph-name="igrave" unicode="&#xec;" horiz-adv-x="284" 
d="M98 774q48 0 66 -47l35 -101q10 -27 -5 -45.5t-40 -18.5q-21 0 -36 18l-73 81q-16 17 -16 44q0 29 20.5 49t48.5 20zM142 523q27 0 47 -19.5t20 -47.5v-395q0 -28 -20 -47.5t-47 -19.5t-47 19.5t-20 47.5v395q0 28 20 47.5t47 19.5z" />
    <glyph glyph-name="iacute" unicode="&#xed;" horiz-adv-x="284" 
d="M178 774q28 0 48.5 -20t20.5 -49q0 -27 -16 -44l-73 -81q-15 -18 -36 -18q-25 0 -40 18.5t-5 45.5l35 101q18 47 66 47zM142 523q27 0 47 -19.5t20 -47.5v-395q0 -28 -20 -47.5t-47 -19.5t-47 19.5t-20 47.5v395q0 28 20 47.5t47 19.5z" />
    <glyph glyph-name="icircumflex" unicode="&#xee;" horiz-adv-x="284" 
d="M217 767q44 0 66 -39l25 -54q16 -28 6.5 -47t-40.5 -19q-40 0 -68 29l-68 71l-68 -71q-28 -29 -67 -29q-31 0 -41 19t6 47l25 54q22 39 66 39h158zM142 523q27 0 47 -19.5t20 -47.5v-395q0 -28 -20 -47.5t-47 -19.5t-47 19.5t-20 47.5v395q0 28 20 47.5t47 19.5z" />
    <glyph glyph-name="idieresis" unicode="&#xef;" horiz-adv-x="284" 
d="M14 572q-30 0 -51 21t-21 51q0 29 21 49.5t51 20.5q29 0 50 -20.5t21 -49.5q0 -30 -21 -51t-50 -21zM270 572q-29 0 -50 21t-21 51q0 29 21 49.5t50 20.5q30 0 51 -20.5t21 -49.5q0 -30 -21 -51t-51 -21zM142 523q27 0 47 -19.5t20 -47.5v-395q0 -28 -20 -47.5t-47 -19.5
t-47 19.5t-20 47.5v395q0 28 20 47.5t47 19.5z" />
    <glyph glyph-name="eth" unicode="&#xf0;" horiz-adv-x="602" 
d="M452 572q53 -79 73.5 -152.5t20.5 -167.5q0 -126 -75.5 -194t-185.5 -68q-103 0 -176.5 68.5t-73.5 193.5q0 130 68.5 199t181.5 69q46 0 65 -12l-24 34l-31 -4q-25 -4 -44.5 13.5t-19.5 42.5q0 35 32 51v3q0 25 17.5 42.5t42.5 17.5q27 0 47 -25l15 -19l17 2
q25 4 45 -13.5t20 -42.5q0 -20 -15 -38zM285 105q45 0 86 37.5t41 109.5q0 79 -35.5 115.5t-91.5 36.5q-50 0 -83 -36.5t-33 -115.5q0 -71 39.5 -109t76.5 -38z" />
    <glyph glyph-name="ntilde" unicode="&#xf1;" horiz-adv-x="619" 
d="M235 745q39 0 97.5 -34t81.5 -34q29 0 40 14q10 16 30 16q18 0 28 -13t6 -30q-13 -41 -46 -66.5t-77 -25.5q-39 0 -100 39t-86 39q-29 0 -39 -20q-8 -19 -30 -19q-16 0 -26 12t-6 28q12 42 45.5 68t81.5 26zM349 525q95 0 155 -57.5t60 -173.5v-232q0 -28 -20 -47.5
t-47 -19.5t-47 19.5t-20 47.5v223q0 125 -98 125q-56 0 -93.5 -42.5t-44.5 -73.5v-232q0 -28 -20 -47.5t-47 -19.5t-47 19.5t-20 47.5v394q0 28 20 47.5t47 19.5t47 -19.5t20 -47.5v-38q5 33 46.5 70t108.5 37z" />
    <glyph glyph-name="ograve" unicode="&#xf2;" horiz-adv-x="602" 
d="M256 774q48 0 66 -47l35 -101q10 -27 -5 -45.5t-40 -18.5q-21 0 -36 18l-73 81q-16 17 -16 44q0 29 20.5 49t48.5 20zM301 526q42 0 87 -17t85 -48.5t66 -84.5t26 -117q0 -52 -17 -97t-44.5 -75.5t-63 -52t-71 -31.5t-68.5 -10t-68.5 10t-71 31.5t-63 52t-44.5 75.5
t-17 97q0 64 26 117t66 84.5t85 48.5t87 17zM301 410q-52 0 -91 -40t-39 -111q0 -70 39 -110t91 -40q51 0 90.5 40t39.5 110t-39.5 110.5t-90.5 40.5z" />
    <glyph glyph-name="oacute" unicode="&#xf3;" horiz-adv-x="602" 
d="M337 774q29 0 49 -20t20 -49q0 -27 -16 -44l-73 -81q-15 -18 -36 -18q-25 0 -40 18.5t-5 45.5l35 101q18 47 66 47zM301 526q42 0 87 -17t85 -48.5t66 -84.5t26 -117q0 -52 -17 -97t-44.5 -75.5t-63 -52t-71 -31.5t-68.5 -10t-68.5 10t-71 31.5t-63 52t-44.5 75.5t-17 97
q0 64 26 117t66 84.5t85 48.5t87 17zM301 410q-52 0 -91 -40t-39 -111q0 -70 39 -110t91 -40q51 0 90.5 40t39.5 110t-39.5 110.5t-90.5 40.5z" />
    <glyph glyph-name="ocircumflex" unicode="&#xf4;" horiz-adv-x="602" 
d="M376 767q44 0 66 -39l25 -54q16 -28 6.5 -47t-40.5 -19q-40 0 -68 29l-68 71l-68 -71q-28 -29 -67 -29q-31 0 -41 19t6 47l25 54q22 39 66 39h158zM301 526q42 0 87 -17t85 -48.5t66 -84.5t26 -117q0 -52 -17 -97t-44.5 -75.5t-63 -52t-71 -31.5t-68.5 -10t-68.5 10
t-71 31.5t-63 52t-44.5 75.5t-17 97q0 64 26 117t66 84.5t85 48.5t87 17zM301 410q-52 0 -91 -40t-39 -111q0 -70 39 -110t91 -40q51 0 90.5 40t39.5 110t-39.5 110.5t-90.5 40.5z" />
    <glyph glyph-name="otilde" unicode="&#xf5;" horiz-adv-x="602" 
d="M222 745q39 0 97.5 -34t81.5 -34q29 0 40 14q10 16 30 16q18 0 28 -13t6 -30q-13 -41 -46 -66.5t-77 -25.5q-39 0 -100 39t-86 39q-29 0 -39 -20q-8 -19 -30 -19q-16 0 -26 12t-6 28q12 42 45.5 68t81.5 26zM301 526q42 0 87 -17t85 -48.5t66 -84.5t26 -117
q0 -52 -17 -97t-44.5 -75.5t-63 -52t-71 -31.5t-68.5 -10t-68.5 10t-71 31.5t-63 52t-44.5 75.5t-17 97q0 64 26 117t66 84.5t85 48.5t87 17zM301 410q-52 0 -91 -40t-39 -111q0 -70 39 -110t91 -40q51 0 90.5 40t39.5 110t-39.5 110.5t-90.5 40.5z" />
    <glyph glyph-name="odieresis" unicode="&#xf6;" horiz-adv-x="602" 
d="M173 572q-30 0 -51 21t-21 51q0 29 21 49.5t51 20.5q29 0 50 -20.5t21 -49.5q0 -30 -21 -51t-50 -21zM429 572q-29 0 -50 21t-21 51q0 29 21 49.5t50 20.5q30 0 51 -20.5t21 -49.5q0 -30 -21 -51t-51 -21zM301 526q42 0 87 -17t85 -48.5t66 -84.5t26 -117q0 -52 -17 -97
t-44.5 -75.5t-63 -52t-71 -31.5t-68.5 -10t-68.5 10t-71 31.5t-63 52t-44.5 75.5t-17 97q0 64 26 117t66 84.5t85 48.5t87 17zM301 410q-52 0 -91 -40t-39 -111q0 -70 39 -110t91 -40q51 0 90.5 40t39.5 110t-39.5 110.5t-90.5 40.5z" />
    <glyph glyph-name="divide" unicode="&#xf7;" horiz-adv-x="425" 
d="M213 360q-32 0 -54.5 22.5t-22.5 55.5q0 31 22.5 53.5t54.5 22.5q31 0 54 -22.5t23 -53.5q0 -33 -22.5 -55.5t-54.5 -22.5zM337 330q24 0 41.5 -16t17.5 -39t-17.5 -39t-41.5 -16h-233q-24 0 -41.5 16t-17.5 39t17.5 39t41.5 16h233zM213 44q-32 0 -54.5 23t-22.5 55
t22.5 54.5t54.5 22.5q31 0 54 -22.5t23 -54.5t-22.5 -55t-54.5 -23z" />
    <glyph glyph-name="oslash" unicode="&#xf8;" horiz-adv-x="602" 
d="M470 463q95 -79 95 -204q0 -52 -17 -97t-44.5 -75.5t-63 -52t-71 -31.5t-68.5 -10q-26 0 -53 6l-10 -21q-17 -36 -56 -36q-25 0 -43 18.5t-18 44.5q0 15 6 26l9 20q-99 78 -99 208q0 64 26 117t66 84.5t85 48.5t87 17q27 0 59 -8l16 32q15 36 56 36q24 0 42.5 -19
t18.5 -44q0 -14 -7 -26zM171 259q0 -50 23 -88l114 238q-2 1 -7 1q-52 0 -91 -40t-39 -111zM301 109q51 0 90.5 40t39.5 110q0 47 -19 82z" />
    <glyph glyph-name="ugrave" unicode="&#xf9;" 
d="M260 774q48 0 66 -47l35 -101q10 -27 -5 -45.5t-40 -18.5q-21 0 -36 18l-73 81q-16 17 -16 44q0 29 20.5 49t48.5 20zM421 456q0 28 20 47.5t47 19.5t47 -19.5t20 -47.5v-394q0 -28 -20 -47.5t-47 -19.5t-47 19.5t-20 47.5v46q-10 -37 -54 -75.5t-106 -38.5
q-91 0 -148.5 55.5t-57.5 171.5v235q0 28 20 47.5t47 19.5t47 -19.5t20 -47.5v-226q0 -62 24 -91.5t61 -29.5q56 0 99.5 47.5t47.5 86.5v213z" />
    <glyph glyph-name="uacute" unicode="&#xfa;" 
d="M341 774q29 0 49 -20t20 -49q0 -27 -16 -44l-73 -81q-15 -18 -36 -18q-25 0 -40 18.5t-5 45.5l35 101q18 47 66 47zM421 456q0 28 20 47.5t47 19.5t47 -19.5t20 -47.5v-394q0 -28 -20 -47.5t-47 -19.5t-47 19.5t-20 47.5v46q-10 -37 -54 -75.5t-106 -38.5
q-91 0 -148.5 55.5t-57.5 171.5v235q0 28 20 47.5t47 19.5t47 -19.5t20 -47.5v-226q0 -62 24 -91.5t61 -29.5q56 0 99.5 47.5t47.5 86.5v213z" />
    <glyph glyph-name="ucircumflex" unicode="&#xfb;" 
d="M379 767q44 0 66 -39l25 -54q16 -28 6.5 -47t-40.5 -19q-40 0 -68 29l-68 71l-68 -71q-28 -29 -67 -29q-31 0 -41 19t6 47l25 54q22 39 66 39h158zM421 456q0 28 20 47.5t47 19.5t47 -19.5t20 -47.5v-394q0 -28 -20 -47.5t-47 -19.5t-47 19.5t-20 47.5v46
q-10 -37 -54 -75.5t-106 -38.5q-91 0 -148.5 55.5t-57.5 171.5v235q0 28 20 47.5t47 19.5t47 -19.5t20 -47.5v-226q0 -62 24 -91.5t61 -29.5q56 0 99.5 47.5t47.5 86.5v213z" />
    <glyph glyph-name="udieresis" unicode="&#xfc;" 
d="M176 572q-30 0 -51 21t-21 51q0 29 21 49.5t51 20.5q29 0 50 -20.5t21 -49.5q0 -30 -21 -51t-50 -21zM432 572q-29 0 -50 21t-21 51q0 29 21 49.5t50 20.5q30 0 51 -20.5t21 -49.5q0 -30 -21 -51t-51 -21zM421 456q0 28 20 47.5t47 19.5t47 -19.5t20 -47.5v-394
q0 -28 -20 -47.5t-47 -19.5t-47 19.5t-20 47.5v46q-10 -37 -54 -75.5t-106 -38.5q-91 0 -148.5 55.5t-57.5 171.5v235q0 28 20 47.5t47 19.5t47 -19.5t20 -47.5v-226q0 -62 24 -91.5t61 -29.5q56 0 99.5 47.5t47.5 86.5v213z" />
    <glyph glyph-name="yacute" unicode="&#xfd;" horiz-adv-x="595" 
d="M337 774q29 0 49 -20t20 -49q0 -27 -16 -44l-73 -81q-15 -18 -36 -18q-25 0 -40 18.5t-5 45.5l35 101q18 47 66 47zM442 488q17 40 56 40q25 0 43.5 -18.5t18.5 -44.5q0 -3 -5 -23l-257 -602q-17 -38 -55 -38q-25 0 -43 18t-18 44q0 9 4 21l52 130l-198 427q-5 10 -5 25
q0 24 17.5 42.5t42.5 18.5q38 0 56 -37l150 -320z" />
    <glyph glyph-name="thorn" unicode="&#xfe;" horiz-adv-x="609" 
d="M340 526q43 0 85 -17t78 -49t58.5 -84t22.5 -116q0 -65 -22.5 -118t-59 -84.5t-78.5 -48t-84 -16.5h-3h-3q-45 0 -83 17.5t-52 38.5q-1 -7 -5 -16v-163q0 -28 -20 -47.5t-47 -19.5t-47 19.5t-20 47.5v190v1v399q0 15 6 27v154q0 27 20 46.5t47 19.5t47 -19.5t20 -46.5
v-163q51 48 134 48h3h3zM194 260q0 -76 35 -113t89 -39q50 2 88 43t38 109q0 67 -38 108t-88 43q-54 -2 -89 -38.5t-35 -112.5z" />
    <glyph glyph-name="ydieresis" unicode="&#xff;" horiz-adv-x="595" 
d="M173 572q-30 0 -51 21t-21 51q0 29 21 49.5t51 20.5q29 0 50 -20.5t21 -49.5q0 -30 -21 -51t-50 -21zM429 572q-29 0 -50 21t-21 51q0 29 21 49.5t50 20.5q30 0 51 -20.5t21 -49.5q0 -30 -21 -51t-51 -21zM442 488q17 40 56 40q25 0 43.5 -18.5t18.5 -44.5q0 -3 -5 -23
l-257 -602q-17 -38 -55 -38q-25 0 -43 18t-18 44q0 9 4 21l52 130l-198 427q-5 10 -5 25q0 24 17.5 42.5t42.5 18.5q38 0 56 -37l150 -320z" />
    <glyph glyph-name="Amacron" unicode="&#x100;" horiz-adv-x="725" 
d="M499 880q24 0 41 -16.5t17 -40.5q0 -25 -17 -41.5t-41 -16.5h-274q-24 0 -41 16.5t-17 41.5q0 24 17 40.5t41 16.5h274zM362 704q32 0 55 -46l257 -570q6 -16 6 -28q0 -28 -20 -48t-48 -20q-19 0 -36 11.5t-25 29.5l-68 149h-242l-67 -149q-8 -17 -25 -28.5t-37 -11.5
q-27 0 -47 19.5t-20 47.5q0 16 6 28l257 570q23 46 54 46zM362 474l-78 -176h157z" />
    <glyph glyph-name="amacron" unicode="&#x101;" horiz-adv-x="612" 
d="M182 585q-24 0 -41 16.5t-17 41.5q0 24 17 40.5t41 16.5h274q24 0 41 -16.5t17 -40.5q0 -25 -17 -41.5t-41 -16.5h-274zM489 527q27 0 47 -19.5t20 -47.5v-399q0 -28 -20 -47.5t-47 -19.5t-47 19t-20 46q-8 -23 -48.5 -44.5t-91.5 -21.5q-42 0 -84 16.5t-78.5 48
t-59 84.5t-22.5 118q0 64 22.5 116t58.5 84t78 49t85 17q83 0 140 -54v-12q0 28 19.5 47.5t47.5 19.5zM300 108q55 0 91.5 37t36.5 115t-36 114.5t-92 36.5q-50 0 -89 -41.5t-39 -109.5q0 -69 39 -110.5t89 -41.5z" />
    <glyph glyph-name="Abreve" unicode="&#x102;" horiz-adv-x="725" 
d="M485 954q29 0 44 -22t9 -47q-20 -58 -64.5 -95t-112.5 -37q-61 0 -106.5 37.5t-66.5 93.5q-7 30 8.5 50t41.5 20q38 0 49 -32q22 -46 75 -46q52 0 74 45q12 33 49 33zM362 704q32 0 55 -46l257 -570q6 -16 6 -28q0 -28 -20 -48t-48 -20q-19 0 -36 11.5t-25 29.5l-68 149
h-242l-67 -149q-8 -17 -25 -28.5t-37 -11.5q-27 0 -47 19.5t-20 47.5q0 16 6 28l257 570q23 46 54 46zM362 474l-78 -176h157z" />
    <glyph glyph-name="abreve" unicode="&#x103;" horiz-adv-x="612" 
d="M318 573q-61 0 -106.5 37.5t-66.5 93.5q-7 30 8.5 50t41.5 20q38 0 49 -32q22 -46 75 -46q51 0 74 45q12 33 49 33q29 0 44 -22t9 -47q-20 -58 -64.5 -95t-112.5 -37zM489 527q27 0 47 -19.5t20 -47.5v-399q0 -28 -20 -47.5t-47 -19.5t-47 19t-20 46q-8 -23 -48.5 -44.5
t-91.5 -21.5q-42 0 -84 16.5t-78.5 48t-59 84.5t-22.5 118q0 64 22.5 116t58.5 84t78 49t85 17q83 0 140 -54v-12q0 28 19.5 47.5t47.5 19.5zM300 108q55 0 91.5 37t36.5 115t-36 114.5t-92 36.5q-50 0 -89 -41.5t-39 -109.5q0 -69 39 -110.5t89 -41.5z" />
    <glyph glyph-name="Aogonek" unicode="&#x104;" horiz-adv-x="725" 
d="M680 61v-1q0 -40 -36 -59q-11 -10 -40 -30t-43.5 -36t-14.5 -34q0 -20 8 -30t16.5 -12t24.5 -3q12 -1 19 -2t13.5 -6t10.5 -14q8 -16 3 -29t-22 -15q-30 -6 -65 -3.5t-65 10t-50 29t-20 52.5q0 33 20.5 62t44.5 46t42 36t15 34l-58 126h-242l-67 -149q-8 -17 -25 -28.5
t-37 -11.5q-27 0 -47 19.5t-20 47.5q0 16 6 28l257 570q23 46 54 46q32 0 55 -46l257 -570q6 -16 6 -27zM284 298h157l-79 176z" />
    <glyph glyph-name="aogonek" unicode="&#x105;" horiz-adv-x="612" 
d="M489 527q27 0 47 -19.5t20 -47.5v-399q0 -37 -32 -57q-8 -8 -38.5 -30t-43.5 -38t-13 -35q0 -20 8 -30t16.5 -12t24.5 -3q12 -1 19 -2t13.5 -6t10.5 -14q7 -16 2.5 -29t-21.5 -15q-30 -6 -65 -3.5t-65 10t-50 29t-20 52.5q0 34 18.5 63.5t40.5 46.5t41 36.5t20 34.5
q-8 -23 -48.5 -44.5t-91.5 -21.5q-42 0 -84 16.5t-78.5 48t-59 84.5t-22.5 118q0 64 22.5 116t58.5 84t78 49t85 17q83 0 140 -54v-12q0 28 19.5 47.5t47.5 19.5zM300 108q55 0 91.5 37t36.5 115t-36 114.5t-92 36.5q-50 0 -89 -41.5t-39 -109.5q0 -69 39 -110.5t89 -41.5z
" />
    <glyph glyph-name="Cacute" unicode="&#x106;" horiz-adv-x="630" 
d="M409 954q29 0 49 -20t20 -49q0 -27 -16 -44l-73 -81q-15 -18 -36 -18q-25 0 -40 18.5t-5 45.5l35 101q18 47 66 47zM392 707q85 0 166 -45q32 -20 32 -57q0 -28 -20 -48t-48 -20q-20 0 -36 11q-51 28 -91 28q-84 0 -145 -66t-61 -160q0 -96 61 -161t145 -65q41 0 90 28
q14 11 37 11q28 0 48 -20t20 -48q0 -37 -32 -57q-78 -45 -166 -45q-137 0 -242 102t-105 254q0 102 50.5 185.5t129.5 128t167 44.5z" />
    <glyph glyph-name="cacute" unicode="&#x107;" horiz-adv-x="540" 
d="M346 774q28 0 48.5 -20t20.5 -49q0 -27 -16 -44l-73 -81q-15 -18 -36 -18q-25 0 -40 18.5t-5 45.5l35 101q18 47 66 47zM309 526q81 0 146 -42q35 -27 35 -55q0 -26 -17.5 -43.5t-42.5 -17.5q-24 0 -40 14q-36 28 -81 28q-52 0 -91 -40t-39 -111q0 -70 39 -110t91 -40
q45 0 80 27q21 15 41 15q25 0 42.5 -17.5t17.5 -43.5q0 -28 -33 -53q-67 -44 -148 -44q-43 0 -88 16.5t-85 48t-65.5 84t-25.5 117.5t25 118t65.5 84.5t85.5 48t88 16.5z" />
    <glyph glyph-name="Cdotaccent" unicode="&#x10a;" horiz-adv-x="630" 
d="M373 802q-28 0 -48.5 20.5t-20.5 48.5t20.5 48.5t48.5 20.5t48.5 -20.5t20.5 -48.5t-20.5 -48.5t-48.5 -20.5zM392 707q85 0 166 -45q32 -20 32 -57q0 -28 -20 -48t-48 -20q-20 0 -36 11q-51 28 -91 28q-84 0 -145 -66t-61 -160q0 -96 61 -161t145 -65q41 0 90 28
q14 11 37 11q28 0 48 -20t20 -48q0 -37 -32 -57q-78 -45 -166 -45q-137 0 -242 102t-105 254q0 102 50.5 185.5t129.5 128t167 44.5z" />
    <glyph glyph-name="cdotaccent" unicode="&#x10b;" horiz-adv-x="540" 
d="M310 622q-28 0 -48.5 20.5t-20.5 48.5t20.5 48.5t48.5 20.5t48.5 -20.5t20.5 -48.5t-20.5 -48.5t-48.5 -20.5zM309 526q81 0 146 -42q35 -27 35 -55q0 -26 -17.5 -43.5t-42.5 -17.5q-24 0 -40 14q-36 28 -81 28q-52 0 -91 -40t-39 -111q0 -70 39 -110t91 -40q45 0 80 27
q21 15 41 15q25 0 42.5 -17.5t17.5 -43.5q0 -28 -33 -53q-67 -44 -148 -44q-43 0 -88 16.5t-85 48t-65.5 84t-25.5 117.5t25 118t65.5 84.5t85.5 48t88 16.5z" />
    <glyph glyph-name="Ccaron" unicode="&#x10c;" horiz-adv-x="630" 
d="M443 802h-158q-44 0 -66 39l-25 54q-16 29 -6 47.5t41 18.5q39 0 67 -29l68 -71l68 71q28 29 68 29q31 0 40.5 -18.5t-6.5 -47.5l-25 -54q-22 -39 -66 -39zM392 707q85 0 166 -45q32 -20 32 -57q0 -28 -20 -48t-48 -20q-20 0 -36 11q-51 28 -91 28q-84 0 -145 -66
t-61 -160q0 -96 61 -161t145 -65q41 0 90 28q14 11 37 11q28 0 48 -20t20 -48q0 -37 -32 -57q-78 -45 -166 -45q-137 0 -242 102t-105 254q0 102 50.5 185.5t129.5 128t167 44.5z" />
    <glyph glyph-name="ccaron" unicode="&#x10d;" horiz-adv-x="540" 
d="M380 622h-158q-44 0 -66 39l-25 54q-16 29 -6 47.5t41 18.5q39 0 67 -29l68 -71l68 71q28 29 68 29q31 0 40.5 -18.5t-6.5 -47.5l-25 -54q-22 -39 -66 -39zM309 526q81 0 146 -42q35 -27 35 -55q0 -26 -17.5 -43.5t-42.5 -17.5q-24 0 -40 14q-36 28 -81 28q-52 0 -91 -40
t-39 -111q0 -70 39 -110t91 -40q45 0 80 27q21 15 41 15q25 0 42.5 -17.5t17.5 -43.5q0 -28 -33 -53q-67 -44 -148 -44q-43 0 -88 16.5t-85 48t-65.5 84t-25.5 117.5t25 118t65.5 84.5t85.5 48t88 16.5z" />
    <glyph glyph-name="Dcaron" unicode="&#x10e;" horiz-adv-x="713" 
d="M428 802h-158q-44 0 -66 39l-25 54q-16 29 -6 47.5t41 18.5q39 0 67 -29l68 -71l68 71q28 29 68 29q31 0 40.5 -18.5t-6.5 -47.5l-25 -54q-22 -39 -66 -39zM311 700q142 0 247 -102t105 -244q0 -147 -105 -250.5t-247 -103.5h-165q-33 0 -54.5 21.5t-21.5 54.5v548
q0 33 21.5 54.5t54.5 21.5h165zM311 116q94 0 153.5 68t59.5 170q0 97 -59.5 163.5t-153.5 66.5h-103v-468h103z" />
    <glyph glyph-name="dcaron" unicode="&#x10f;" horiz-adv-x="914" 
d="M486 707q27 0 47 -19.5t20 -46.5v-580q0 -28 -20 -47.5t-47 -19.5t-46.5 19t-20.5 46q-7 -23 -48 -44.5t-92 -21.5q-42 0 -84 16.5t-78.5 48t-59 84.5t-22.5 118q0 64 22.5 116t58.5 84t78 49t85 17q85 0 140 -55v170q0 27 20 46.5t47 19.5zM734 707q28 0 48.5 -20.5
t20.5 -48.5q0 -27 -16 -44l-73 -81q-15 -18 -36 -18q-25 0 -40 18.5t-5 45.5l35 101q18 47 66 47zM297 108q55 0 91.5 37t36.5 115t-36 114.5t-92 36.5q-50 0 -89 -41.5t-39 -109.5q0 -69 39 -110.5t89 -41.5z" />
    <glyph glyph-name="Dcroat" unicode="&#x110;" horiz-adv-x="812" 
d="M384 700q142 0 247 -102t105 -244q0 -147 -105 -250.5t-247 -103.5h-165q-33 0 -54.5 21.5t-21.5 54.5v212h-13q-22 0 -38.5 16t-16.5 39t16.5 39t38.5 16h13v226q0 33 21.5 54.5t54.5 21.5h165zM384 116q94 0 153.5 68t59.5 170q0 97 -59.5 163.5t-153.5 66.5h-103v-186
h64q22 0 38.5 -16t16.5 -39t-16.5 -39t-38.5 -16h-64v-172h103z" />
    <glyph glyph-name="dcroat" unicode="&#x111;" horiz-adv-x="691" 
d="M589 636q24 0 41 -16.5t17 -40.5q0 -25 -17 -41.5t-41 -16.5h-36v-460q0 -28 -20 -47.5t-47 -19.5t-46.5 19t-20.5 46q-7 -23 -48 -44.5t-92 -21.5q-42 0 -84 16.5t-78.5 48t-59 84.5t-22.5 118q0 64 22.5 116t58.5 84t78 49t85 17h13q-35 13 -35 53q0 24 17 40.5
t41 16.5h104v5q0 27 20 46.5t47 19.5t47 -19.5t20 -46.5v-5h36zM419 471v50h-90q51 -11 90 -50zM297 108q55 0 91.5 37t36.5 115t-36 114.5t-92 36.5q-50 0 -89 -41.5t-39 -109.5q0 -69 39 -110.5t89 -41.5z" />
    <glyph glyph-name="Emacron" unicode="&#x112;" horiz-adv-x="603" 
d="M449 880q24 0 41 -16.5t17 -40.5q0 -25 -17 -41.5t-41 -16.5h-274q-24 0 -41 16.5t-17 41.5q0 24 17 40.5t41 16.5h274zM207 120h285q25 0 43 -17.5t18 -41.5q0 -25 -18 -43t-43 -18h-351q-33 0 -54.5 21.5t-21.5 54.5v548q0 33 21.5 54.5t54.5 21.5h341q25 0 43 -17.5
t18 -41.5q0 -25 -18 -43t-43 -18h-275v-169h175q25 0 43 -17t18 -42t-18 -43t-43 -18h-175v-171z" />
    <glyph glyph-name="emacron" unicode="&#x113;" horiz-adv-x="608" 
d="M446 700q24 0 41 -16.5t17 -40.5q0 -25 -17 -41.5t-41 -16.5h-274q-24 0 -41 16.5t-17 41.5q0 24 17 40.5t41 16.5h274zM309 526q57 0 114 -28t98.5 -87t41.5 -134q0 -37 -19 -53t-60 -16h-300q10 -46 48 -72.5t80 -26.5q50 0 83 19q22 14 40 14q27 0 42.5 -16t15.5 -43
q0 -35 -31 -54q-64 -36 -152 -36q-42 0 -87 16.5t-85.5 47.5t-66.5 84t-26 118q0 64 26 117t66 84.5t85 48.5t87 17zM309 410q-40 0 -76 -24.5t-47 -67.5h243q-11 43 -46 67.5t-74 24.5z" />
    <glyph glyph-name="Edotaccent" unicode="&#x116;" horiz-adv-x="603" 
d="M312 802q-28 0 -48.5 20.5t-20.5 48.5t20.5 48.5t48.5 20.5t48.5 -20.5t20.5 -48.5t-20.5 -48.5t-48.5 -20.5zM207 120h285q25 0 43 -17.5t18 -41.5q0 -25 -18 -43t-43 -18h-351q-33 0 -54.5 21.5t-21.5 54.5v548q0 33 21.5 54.5t54.5 21.5h341q25 0 43 -17.5t18 -41.5
q0 -25 -18 -43t-43 -18h-275v-169h175q25 0 43 -17t18 -42t-18 -43t-43 -18h-175v-171z" />
    <glyph glyph-name="edotaccent" unicode="&#x117;" horiz-adv-x="608" 
d="M309 622q-28 0 -48.5 20.5t-20.5 48.5t20.5 48.5t48.5 20.5t48.5 -20.5t20.5 -48.5t-20.5 -48.5t-48.5 -20.5zM309 526q57 0 114 -28t98.5 -87t41.5 -134q0 -37 -19 -53t-60 -16h-300q10 -46 48 -72.5t80 -26.5q50 0 83 19q22 14 40 14q27 0 42.5 -16t15.5 -43
q0 -35 -31 -54q-64 -36 -152 -36q-42 0 -87 16.5t-85.5 47.5t-66.5 84t-26 118q0 64 26 117t66 84.5t85 48.5t87 17zM309 410q-40 0 -76 -24.5t-47 -67.5h243q-11 43 -46 67.5t-74 24.5z" />
    <glyph glyph-name="Eogonek" unicode="&#x118;" horiz-adv-x="603" 
d="M546 0q-75 -28 -103.5 -48t-28.5 -46q0 -22 14.5 -35.5t34.5 -14.5q12 -1 19 -2t14 -6t11 -14q7 -16 2 -29t-22 -15q-43 -6 -87.5 1.5t-78.5 33.5t-34 67q0 47 36.5 74.5t97.5 33.5h-280q-33 0 -54.5 21.5t-21.5 54.5v548q0 33 21.5 54.5t54.5 21.5h341q25 0 43 -17.5
t18 -41.5q0 -25 -18 -43t-43 -18h-275v-169h175q25 0 43 -17t18 -42t-18 -43t-43 -18h-175v-171h285q25 0 43 -17.5t18 -41.5q0 -25 -18 -43t-43 -18h54z" />
    <glyph glyph-name="eogonek" unicode="&#x119;" horiz-adv-x="608" 
d="M563 277q0 -37 -19 -53t-60 -16h-300q10 -46 48 -72.5t80 -26.5q50 0 83 19q22 14 40 14q27 0 42.5 -16t15.5 -43q0 -35 -31 -54q-42 -23 -97 -32q-70 -26 -97.5 -46t-27.5 -45q0 -22 14.5 -35.5t34.5 -14.5q12 -1 19 -2t14 -6t11 -14q7 -16 2 -29t-22 -15
q-43 -6 -87.5 1.5t-78.5 33.5t-34 67q0 47 36.5 74.5t97.5 33.5h7q-85 21 -147 87.5t-62 171.5q0 64 26 117t66 84.5t85 48.5t87 17q57 0 114 -28t98.5 -87t41.5 -134zM186 318h243q-11 43 -46 67.5t-74 24.5q-40 0 -76 -24.5t-47 -67.5z" />
    <glyph glyph-name="Ecaron" unicode="&#x11a;" horiz-adv-x="603" 
d="M382 802h-158q-44 0 -66 39l-25 54q-16 29 -6 47.5t41 18.5q39 0 67 -29l68 -71l68 71q28 29 68 29q31 0 40.5 -18.5t-6.5 -47.5l-25 -54q-22 -39 -66 -39zM207 120h285q25 0 43 -17.5t18 -41.5q0 -25 -18 -43t-43 -18h-351q-33 0 -54.5 21.5t-21.5 54.5v548
q0 33 21.5 54.5t54.5 21.5h341q25 0 43 -17.5t18 -41.5q0 -25 -18 -43t-43 -18h-275v-169h175q25 0 43 -17t18 -42t-18 -43t-43 -18h-175v-171z" />
    <glyph glyph-name="ecaron" unicode="&#x11b;" horiz-adv-x="608" 
d="M379 622h-158q-44 0 -66 39l-25 54q-16 29 -6 47.5t41 18.5q39 0 67 -29l68 -71l68 71q28 29 68 29q31 0 40.5 -18.5t-6.5 -47.5l-25 -54q-22 -39 -66 -39zM309 526q57 0 114 -28t98.5 -87t41.5 -134q0 -37 -19 -53t-60 -16h-300q10 -46 48 -72.5t80 -26.5q50 0 83 19
q22 14 40 14q27 0 42.5 -16t15.5 -43q0 -35 -31 -54q-64 -36 -152 -36q-42 0 -87 16.5t-85.5 47.5t-66.5 84t-26 118q0 64 26 117t66 84.5t85 48.5t87 17zM309 410q-40 0 -76 -24.5t-47 -67.5h243q-11 43 -46 67.5t-74 24.5z" />
    <glyph glyph-name="Gbreve" unicode="&#x11e;" horiz-adv-x="749" 
d="M515 954q29 0 44 -22t9 -47q-20 -58 -64.5 -95t-112.5 -37q-61 0 -106.5 37.5t-66.5 93.5q-7 30 8.5 50t41.5 20q38 0 49 -32q22 -46 75 -46q52 0 74 45q12 33 49 33zM625 342q39 0 61 -24t16 -60q-25 -121 -110 -193t-200 -72q-87 0 -166 44.5t-130 127.5t-51 185
t51 185t130 127.5t166 44.5q110 0 193 -51q29 -22 29 -55q0 -28 -19 -47t-47 -19q-23 0 -37 11q-55 30 -116 30q-79 0 -142.5 -66t-63.5 -159t64.5 -160t141.5 -67q47 0 88 25.5t69 70.5h-41q-25 0 -43 18t-18 43t18 43t43 18h114z" />
    <glyph glyph-name="gbreve" unicode="&#x11f;" horiz-adv-x="592" 
d="M302 573q-61 0 -106.5 37.5t-66.5 93.5q-7 30 8.5 50t41.5 20q38 0 49 -32q22 -46 75 -46q51 0 74 45q12 33 49 33q29 0 44 -22t9 -47q-20 -58 -64.5 -95t-112.5 -37zM551 460v-399q0 -6 -1 -9q1 -2 1 -6v-46q0 -54 -25.5 -96t-65 -64.5t-81 -33.5t-80.5 -11
q-57 0 -127 24q-33 14 -33 51q0 22 16.5 38.5t38.5 16.5q11 0 16 -2q46 -13 89 -13q55 0 86.5 26.5t31.5 63.5v46v9v4q-7 -23 -48 -44.5t-92 -21.5q-42 0 -84 16.5t-78.5 48t-59 84.5t-22.5 118q0 64 22.5 116t58.5 84t78 49t85 17q83 0 140 -54v-12q0 28 19.5 47.5
t47.5 19.5q27 0 47 -19.5t20 -47.5zM295 108q55 0 91.5 37t36.5 115t-36 114.5t-92 36.5q-50 0 -89 -41.5t-39 -109.5q0 -69 39 -110.5t89 -41.5z" />
    <glyph glyph-name="Gdotaccent" unicode="&#x120;" horiz-adv-x="749" 
d="M392 802q-28 0 -48.5 20.5t-20.5 48.5t20.5 48.5t48.5 20.5t48.5 -20.5t20.5 -48.5t-20.5 -48.5t-48.5 -20.5zM625 342q39 0 61 -24t16 -60q-25 -121 -110 -193t-200 -72q-87 0 -166 44.5t-130 127.5t-51 185t51 185t130 127.5t166 44.5q110 0 193 -51q29 -22 29 -55
q0 -28 -19 -47t-47 -19q-23 0 -37 11q-55 30 -116 30q-79 0 -142.5 -66t-63.5 -159t64.5 -160t141.5 -67q47 0 88 25.5t69 70.5h-41q-25 0 -43 18t-18 43t18 43t43 18h114z" />
    <glyph glyph-name="gdotaccent" unicode="&#x121;" horiz-adv-x="592" 
d="M304 622q-28 0 -48.5 20.5t-20.5 48.5t20.5 48.5t48.5 20.5t48.5 -20.5t20.5 -48.5t-20.5 -48.5t-48.5 -20.5zM551 460v-399q0 -6 -1 -9q1 -2 1 -6v-46q0 -54 -25.5 -96t-65 -64.5t-81 -33.5t-80.5 -11q-57 0 -127 24q-33 14 -33 51q0 22 16.5 38.5t38.5 16.5q11 0 16 -2
q46 -13 89 -13q55 0 86.5 26.5t31.5 63.5v46v9v4q-7 -23 -48 -44.5t-92 -21.5q-42 0 -84 16.5t-78.5 48t-59 84.5t-22.5 118q0 64 22.5 116t58.5 84t78 49t85 17q83 0 140 -54v-12q0 28 19.5 47.5t47.5 19.5q27 0 47 -19.5t20 -47.5zM295 108q55 0 91.5 37t36.5 115
t-36 114.5t-92 36.5q-50 0 -89 -41.5t-39 -109.5q0 -69 39 -110.5t89 -41.5z" />
    <glyph glyph-name="Gcommaaccent" unicode="&#x122;" horiz-adv-x="749" 
d="M625 342q39 0 61 -24t16 -60q-25 -121 -110 -193t-200 -72q-87 0 -166 44.5t-130 127.5t-51 185t51 185t130 127.5t166 44.5q110 0 193 -51q29 -22 29 -55q0 -28 -19 -47t-47 -19q-23 0 -37 11q-55 30 -116 30q-79 0 -142.5 -66t-63.5 -159t64.5 -160t141.5 -67
q47 0 88 25.5t69 70.5h-41q-25 0 -43 18t-18 43t18 43t43 18h114zM285 -215q-29 0 -43 17t-6 46l12 65q15 50 62 50h51q34 0 45.5 -17.5t-4.5 -50.5l-35 -69q-22 -41 -67 -41h-15z" />
    <glyph glyph-name="gcommaaccent" unicode="&#x123;" horiz-adv-x="638" 
d="M291 555q-34 0 -45.5 17.5t4.5 50.5l35 69q22 41 67 41h15q29 0 43 -17t6 -46l-12 -65q-15 -50 -62 -50h-51zM551 460v-399q0 -6 -1 -9q1 -2 1 -6v-46q0 -54 -25.5 -96t-65 -64.5t-81 -33.5t-80.5 -11q-57 0 -127 24q-33 14 -33 51q0 22 16.5 38.5t38.5 16.5q11 0 16 -2
q46 -13 89 -13q55 0 86.5 26.5t31.5 63.5v46v9v4q-7 -23 -48 -44.5t-92 -21.5q-42 0 -84 16.5t-78.5 48t-59 84.5t-22.5 118q0 64 22.5 116t58.5 84t78 49t85 17q83 0 140 -54v-12q0 28 19.5 47.5t47.5 19.5q27 0 47 -19.5t20 -47.5zM295 108q55 0 91.5 37t36.5 115
t-36 114.5t-92 36.5q-50 0 -89 -41.5t-39 -109.5q0 -69 39 -110.5t89 -41.5z" />
    <glyph glyph-name="Hbar" unicode="&#x126;" horiz-adv-x="742" 
d="M587 703q28 0 48 -20.5t20 -48.5v-568q0 -28 -20 -48.5t-48 -20.5q-29 0 -49.5 20.5t-20.5 48.5v224h-316v-224q0 -28 -20.5 -48.5t-48.5 -20.5t-48.5 20.5t-20.5 48.5v568q0 28 20.5 48.5t48.5 20.5t48.5 -20.5t20.5 -48.5v-58h316v58q0 28 20.5 48.5t49.5 20.5z
M201 407h316v59h-316v-59z" />
    <glyph glyph-name="hbar" unicode="&#x127;" horiz-adv-x="658" 
d="M387 525q95 0 155.5 -57.5t60.5 -173.5v-232q0 -28 -20 -47.5t-47 -19.5q-28 0 -47.5 19.5t-19.5 47.5v223q0 125 -99 125q-56 0 -94 -43t-43 -73v-233q0 -28 -20 -47.5t-47 -19.5q-28 0 -47.5 19.5t-19.5 47.5v443h-14q-22 0 -38.5 16t-16.5 39t16.5 39t38.5 16h14v26
q0 28 19.5 47.5t47.5 19.5q27 0 47 -19.5t20 -47.5v-26h47q22 0 38.5 -16t16.5 -39t-16.5 -39t-38.5 -16h-47v-86q4 33 46 70t108 37z" />
    <glyph glyph-name="Imacron" unicode="&#x12a;" horiz-adv-x="263" 
d="M269 880q24 0 41 -16.5t17 -40.5q0 -25 -17 -41.5t-41 -16.5h-274q-24 0 -41 16.5t-17 41.5q0 24 17 40.5t41 16.5h274zM132 703q28 0 49 -21t21 -50v-568q0 -29 -21 -50t-49 -21q-29 0 -50 21t-21 50v568q0 29 21 50t50 21z" />
    <glyph glyph-name="imacron" unicode="&#x12b;" horiz-adv-x="284" 
d="M279 700q24 0 41 -16.5t17 -40.5q0 -25 -17 -41.5t-41 -16.5h-274q-24 0 -41 16.5t-17 41.5q0 24 17 40.5t41 16.5h274zM142 523q27 0 47 -19.5t20 -47.5v-395q0 -28 -20 -47.5t-47 -19.5t-47 19.5t-20 47.5v395q0 28 20 47.5t47 19.5z" />
    <glyph glyph-name="Iogonek" unicode="&#x12e;" horiz-adv-x="264" 
d="M203 632v-568v-3q0 -13 -6 -24q-6 -16 -21 -28q-12 -12 -40.5 -33t-44 -38.5t-15.5 -36.5q0 -20 8 -30t16.5 -12t24.5 -3q12 -1 19 -2t13.5 -6t10.5 -14q8 -16 3 -29t-22 -15q-30 -6 -65 -3.5t-65 10t-50 29t-20 52.5q0 33 17 62.5t38 46.5t39 36.5t19 34.5v6v568
q0 29 21 50t50 21q28 0 49 -21t21 -50z" />
    <glyph glyph-name="iogonek" unicode="&#x12f;" horiz-adv-x="253" 
d="M124 622q-28 0 -48.5 20.5t-20.5 48.5t20.5 48.5t48.5 20.5t48.5 -20.5t20.5 -48.5t-20.5 -48.5t-48.5 -20.5zM124 523q27 0 47 -19.5t20 -47.5v-395v-2q-2 -36 -31 -54q-10 -9 -39 -31t-43 -38.5t-14 -34.5q0 -20 8 -30t16.5 -12t24.5 -3q12 -1 19 -2t13.5 -6t10.5 -14
q8 -16 3 -29t-22 -15q-30 -6 -65 -3.5t-65 10t-50 29t-20 52.5q0 28 12.5 52.5t30 41.5t35 32t30 29.5t12.5 27.5v395q0 28 20 47.5t47 19.5z" />
    <glyph glyph-name="Idotaccent" unicode="&#x130;" horiz-adv-x="263" 
d="M132 802q-28 0 -48.5 20.5t-20.5 48.5t20.5 48.5t48.5 20.5t48.5 -20.5t20.5 -48.5t-20.5 -48.5t-48.5 -20.5zM132 703q28 0 49 -21t21 -50v-568q0 -29 -21 -50t-49 -21q-29 0 -50 21t-21 50v568q0 29 21 50t50 21z" />
    <glyph glyph-name="dotlessi" unicode="&#x131;" horiz-adv-x="284" 
d="M142 523q27 0 47 -19.5t20 -47.5v-395q0 -28 -20 -47.5t-47 -19.5t-47 19.5t-20 47.5v395q0 28 20 47.5t47 19.5z" />
    <glyph glyph-name="IJ" unicode="&#x132;" horiz-adv-x="825" 
d="M132 703q28 0 49 -21t21 -50v-568q0 -29 -21 -50t-49 -21q-29 0 -50 21t-21 50v568q0 29 21 50t50 21zM693 703q27 0 47 -19.5t20 -47.5v-371q0 -72 -21 -126.5t-58 -85t-81 -45.5t-95 -15q-81 0 -147 38q-28 21 -28 52q0 26 18.5 43.5t45.5 17.5q21 0 35 -10
q32 -19 75 -19q29 0 46.5 4.5t37 20.5t29 54.5t9.5 99.5v342q0 28 20 47.5t47 19.5z" />
    <glyph glyph-name="ij" unicode="&#x133;" horiz-adv-x="521" 
d="M129 569q-28 0 -48.5 20.5t-20.5 48.5t20.5 48.5t48.5 20.5q29 0 49 -20.5t20 -48.5t-20 -48.5t-49 -20.5zM390 569q-28 0 -48.5 20.5t-20.5 48.5t20.5 48.5t48.5 20.5t48.5 -20.5t20.5 -48.5t-20.5 -48.5t-48.5 -20.5zM129 523q29 0 48.5 -19.5t19.5 -48.5v-393
q0 -28 -19.5 -48t-48.5 -20q-28 0 -48 20t-20 48v393q0 28 20 48t48 20zM388 523q27 0 47 -19.5t20 -47.5v-507q0 -77 -40.5 -115.5t-112.5 -38.5q-32 0 -68 9q-20 6 -33.5 23.5t-13.5 38.5q0 32 24.5 52t54.5 13h17q38 0 38 60v465q0 28 19.5 47.5t47.5 19.5z" />
    <glyph glyph-name="Kcommaaccent" unicode="&#x136;" horiz-adv-x="704" 
d="M570 707q26 0 44 -18.5t18 -43.5q0 -20 -14 -39l-200 -254l226 -258q15 -16 15 -41q0 -24 -18 -42t-43 -18q-27 0 -45 20l-214 243l-132 -164v-30q0 -28 -20.5 -48.5t-49.5 -20.5q-28 0 -48.5 20.5t-20.5 48.5v576q0 28 20.5 48.5t48.5 20.5q29 0 49.5 -20.5t20.5 -48.5
v-354l314 400q19 23 49 23zM292 -215q-29 0 -43 17t-6 46l12 65q15 50 62 50h51q34 0 45.5 -17.5t-4.5 -50.5l-35 -69q-22 -41 -67 -41h-15z" />
    <glyph glyph-name="kcommaaccent" unicode="&#x137;" horiz-adv-x="614" 
d="M513 52q0 -24 -17.5 -41t-41.5 -17q-27 0 -42 18l-176 186l-42 -44v-93q0 -28 -19.5 -47.5t-47.5 -19.5q-27 0 -47 19.5t-20 47.5v579q0 28 20 47.5t47 19.5q28 0 47.5 -19.5t19.5 -47.5v-311l168 179q20 20 44 20q25 0 42.5 -18.5t17.5 -42.5t-17 -43l-134 -142
l181 -189q17 -17 17 -41zM217 -215q-29 0 -43 17t-6 46l12 65q15 50 62 50h51q34 0 45.5 -17.5t-4.5 -50.5l-35 -69q-22 -41 -67 -41h-15z" />
    <glyph glyph-name="Lacute" unicode="&#x139;" horiz-adv-x="637" 
d="M190 952q29 0 49.5 -20t20.5 -49q0 -25 -16 -44l-73 -81q-15 -18 -37 -18q-25 0 -40 19t-4 45l35 101q17 47 65 47zM206 115h281q24 0 41 -16.5t17 -40.5q0 -25 -17 -41.5t-41 -16.5h-343q-33 0 -54.5 21.5t-21.5 54.5v556q0 29 20.5 50t48.5 21t48.5 -21t20.5 -50v-517z
" />
    <glyph glyph-name="lacute" unicode="&#x13a;" horiz-adv-x="262" 
d="M168 954q28 0 48.5 -20t20.5 -49q0 -27 -16 -44l-73 -81q-15 -18 -36 -18q-25 0 -40 18.5t-5 45.5l35 101q18 47 66 47zM131 707q29 0 48.5 -19.5t19.5 -48.5v-577q0 -28 -19.5 -48t-48.5 -20q-28 0 -48 20t-20 48v577q0 28 20 48t48 20z" />
    <glyph glyph-name="Lcommaaccent" unicode="&#x13b;" horiz-adv-x="585" 
d="M206 115h281q24 0 41 -16.5t17 -40.5q0 -25 -17 -41.5t-41 -16.5h-343q-33 0 -54.5 21.5t-21.5 54.5v556q0 29 20.5 50t48.5 21t48.5 -21t20.5 -50v-517zM220 -215q-29 0 -43 17t-6 46l12 65q15 50 62 50h51q34 0 45.5 -17.5t-4.5 -50.5l-35 -69q-22 -41 -67 -41h-15z
" />
    <glyph glyph-name="lcommaaccent" unicode="&#x13c;" horiz-adv-x="262" 
d="M131 707q29 0 48.5 -19.5t19.5 -48.5v-577q0 -28 -19.5 -48t-48.5 -20q-28 0 -48 20t-20 48v577q0 28 20 48t48 20zM41 -215q-29 0 -43 17t-6 46l12 65q15 50 62 50h51q34 0 45.5 -17.5t-4.5 -50.5l-35 -69q-22 -41 -67 -41h-15z" />
    <glyph glyph-name="Lcaron" unicode="&#x13d;" horiz-adv-x="637" 
d="M322 545q-29 0 -43 17t-6 46l12 65q15 50 62 50h51q34 0 45.5 -17.5t-4.5 -50.5l-35 -69q-22 -41 -67 -41h-15zM206 115h281q24 0 41 -16.5t17 -40.5q0 -25 -17 -41.5t-41 -16.5h-343q-33 0 -54.5 21.5t-21.5 54.5v556q0 29 20.5 50t48.5 21t48.5 -21t20.5 -50v-517z" />
    <glyph glyph-name="lcaron" unicode="&#x13e;" horiz-adv-x="507" 
d="M305 545q-29 0 -43 17t-6 46l12 65q15 50 62 50h51q34 0 45.5 -17.5t-4.5 -50.5l-35 -69q-22 -41 -67 -41h-15zM131 707q29 0 48.5 -19.5t19.5 -48.5v-577q0 -28 -19.5 -48t-48.5 -20q-28 0 -48 20t-20 48v577q0 28 20 48t48 20z" />
    <glyph glyph-name="Ldot" unicode="&#x13f;" horiz-adv-x="586" 
d="M206 115h281q24 0 41 -16.5t17 -40.5q0 -25 -17 -41.5t-41 -16.5h-343q-33 0 -54.5 21.5t-21.5 54.5v556q0 29 20.5 50t48.5 21t48.5 -21t20.5 -50v-517zM402 290q-32 0 -55 22.5t-23 55.5q0 31 23 53.5t55 22.5q31 0 53.5 -22.5t22.5 -53.5q0 -33 -22 -55.5t-54 -22.5z
" />
    <glyph glyph-name="ldot" unicode="&#x140;" horiz-adv-x="463" 
d="M131 707q29 0 48.5 -19.5t19.5 -48.5v-577q0 -28 -19.5 -48t-48.5 -20q-28 0 -48 20t-20 48v577q0 28 20 48t48 20zM334 288q-32 0 -55 22.5t-23 55.5q0 31 23 53.5t55 22.5q31 0 53.5 -22.5t22.5 -53.5q0 -33 -22 -55.5t-54 -22.5z" />
    <glyph glyph-name="Lslash" unicode="&#x141;" horiz-adv-x="619" 
d="M521 115q24 0 41 -16.5t17 -40.5t-17 -41t-41 -17h-343q-33 0 -54.5 21.5t-21.5 54.5v136q-13 -11 -30 -11q-20 0 -33.5 13.5t-13.5 33.5t13 33l64 67v284q0 29 20 50t49 21q28 0 48 -21t20 -50v-141l5 5q15 15 34 15q20 0 33.5 -13.5t13.5 -33.5q0 -16 -13 -31l-73 -77
v-241h282z" />
    <glyph glyph-name="lslash" unicode="&#x142;" horiz-adv-x="336" 
d="M306 453q0 -16 -13 -31l-56 -59v-301q0 -28 -20 -48t-48 -20q-29 0 -48.5 20t-19.5 48v160q-10 -7 -24 -7q-19 0 -33 13.5t-14 33.5t13 33l58 60v284q0 29 19.5 48.5t48.5 19.5q28 0 48 -20t20 -48v-145q11 6 22 6q19 0 33 -14t14 -33z" />
    <glyph glyph-name="Nacute" unicode="&#x143;" horiz-adv-x="687" 
d="M380 954q28 0 48.5 -20t20.5 -49q0 -27 -16 -44l-73 -81q-15 -18 -36 -18q-25 0 -40 18.5t-5 45.5l35 101q18 47 66 47zM553 703q28 0 48.5 -21t20.5 -50v-575q0 -29 -16.5 -46.5t-38.5 -17.5q-46 0 -73 42l-289 407v-377q0 -29 -20.5 -50t-48.5 -21q-29 0 -50 21t-21 50
v574q0 30 19 47t43 17q45 0 74 -40l281 -404v373q0 29 20.5 50t50.5 21z" />
    <glyph glyph-name="nacute" unicode="&#x144;" horiz-adv-x="619" 
d="M350 774q28 0 48.5 -20t20.5 -49q0 -27 -16 -44l-73 -81q-15 -18 -36 -18q-25 0 -40 18.5t-5 45.5l35 101q18 47 66 47zM349 525q95 0 155 -57.5t60 -173.5v-232q0 -28 -20 -47.5t-47 -19.5t-47 19.5t-20 47.5v223q0 125 -98 125q-56 0 -93.5 -42.5t-44.5 -73.5v-232
q0 -28 -20 -47.5t-47 -19.5t-47 19.5t-20 47.5v394q0 28 20 47.5t47 19.5t47 -19.5t20 -47.5v-38q5 33 46.5 70t108.5 37z" />
    <glyph glyph-name="Ncommaaccent" unicode="&#x145;" horiz-adv-x="687" 
d="M553 703q28 0 48.5 -21t20.5 -50v-575q0 -29 -16.5 -46.5t-38.5 -17.5q-46 0 -73 42l-289 407v-377q0 -29 -20.5 -50t-48.5 -21q-29 0 -50 21t-21 50v574q0 30 19 47t43 17q45 0 74 -40l281 -404v373q0 29 20.5 50t50.5 21zM253 -215q-29 0 -43 17t-6 46l12 65
q15 50 62 50h51q34 0 45.5 -17.5t-4.5 -50.5l-35 -69q-22 -41 -67 -41h-15z" />
    <glyph glyph-name="ncommaaccent" unicode="&#x146;" horiz-adv-x="619" 
d="M349 525q95 0 155 -57.5t60 -173.5v-232q0 -28 -20 -47.5t-47 -19.5t-47 19.5t-20 47.5v223q0 125 -98 125q-56 0 -93.5 -42.5t-44.5 -73.5v-232q0 -28 -20 -47.5t-47 -19.5t-47 19.5t-20 47.5v394q0 28 20 47.5t47 19.5t47 -19.5t20 -47.5v-38q5 33 46.5 70t108.5 37z
M223 -215q-29 0 -43 17t-6 46l12 65q15 50 62 50h51q34 0 45.5 -17.5t-4.5 -50.5l-35 -69q-22 -41 -67 -41h-15z" />
    <glyph glyph-name="Ncaron" unicode="&#x147;" horiz-adv-x="687" 
d="M414 802h-158q-44 0 -66 39l-25 54q-16 29 -6 47.5t41 18.5q39 0 67 -29l68 -71l68 71q28 29 68 29q31 0 40.5 -18.5t-6.5 -47.5l-25 -54q-22 -39 -66 -39zM553 703q28 0 48.5 -21t20.5 -50v-575q0 -29 -16.5 -46.5t-38.5 -17.5q-46 0 -73 42l-289 407v-377
q0 -29 -20.5 -50t-48.5 -21q-29 0 -50 21t-21 50v574q0 30 19 47t43 17q45 0 74 -40l281 -404v373q0 29 20.5 50t50.5 21z" />
    <glyph glyph-name="ncaron" unicode="&#x148;" horiz-adv-x="619" 
d="M384 622h-158q-44 0 -66 39l-25 54q-16 29 -6 47.5t41 18.5q39 0 67 -29l68 -71l68 71q28 29 68 29q31 0 40.5 -18.5t-6.5 -47.5l-25 -54q-22 -39 -66 -39zM349 525q95 0 155 -57.5t60 -173.5v-232q0 -28 -20 -47.5t-47 -19.5t-47 19.5t-20 47.5v223q0 125 -98 125
q-56 0 -93.5 -42.5t-44.5 -73.5v-232q0 -28 -20 -47.5t-47 -19.5t-47 19.5t-20 47.5v394q0 28 20 47.5t47 19.5t47 -19.5t20 -47.5v-38q5 33 46.5 70t108.5 37z" />
    <glyph glyph-name="Eng" unicode="&#x14a;" horiz-adv-x="687" 
d="M622 55q0 -68 -21 -119.5t-58 -81.5t-81 -44.5t-95 -14.5q-81 0 -147 38q-27 20 -27 52q0 25 18.5 43t44.5 18q21 0 35 -10q34 -19 75 -19q26 0 42 3.5t34 15.5t27.5 40.5t12.5 74.5l-277 391v-377q0 -29 -20.5 -50t-48.5 -21q-29 0 -50 21t-21 50v574q0 30 19 47t43 17
q45 0 74 -40l281 -404v373q0 29 20.5 50t50.5 21q28 0 48.5 -21t20.5 -50v-577z" />
    <glyph glyph-name="eng" unicode="&#x14b;" horiz-adv-x="619" 
d="M349 525q95 0 155 -57.5t60 -173.5v-345q0 -77 -40.5 -115.5t-112.5 -38.5q-31 0 -68 9q-20 6 -33.5 23.5t-13.5 38.5q0 32 24.5 52t54.5 13h18q37 0 37 60v294q0 125 -98 125q-56 0 -93.5 -42.5t-44.5 -73.5v-232q0 -28 -20 -47.5t-47 -19.5t-47 19.5t-20 47.5v394
q0 28 20 47.5t47 19.5t47 -19.5t20 -47.5v-38q5 33 46.5 70t108.5 37z" />
    <glyph glyph-name="Omacron" unicode="&#x14c;" horiz-adv-x="793" 
d="M533 880q24 0 41 -16.5t17 -40.5q0 -25 -17 -41.5t-41 -16.5h-274q-24 0 -41 16.5t-17 41.5q0 24 17 40.5t41 16.5h274zM396 707q137 0 243 -102t106 -255t-106 -255t-243 -102q-88 0 -167.5 44.5t-130 127.5t-50.5 185t50.5 185t130 127.5t167.5 44.5zM396 576
q-83 0 -143.5 -63.5t-60.5 -162.5t60.5 -162.5t143.5 -63.5q84 0 144 63.5t60 162.5t-59.5 162.5t-144.5 63.5z" />
    <glyph glyph-name="omacron" unicode="&#x14d;" horiz-adv-x="602" 
d="M438 700q24 0 41 -16.5t17 -40.5q0 -25 -17 -41.5t-41 -16.5h-274q-24 0 -41 16.5t-17 41.5q0 24 17 40.5t41 16.5h274zM301 526q42 0 87 -17t85 -48.5t66 -84.5t26 -117q0 -52 -17 -97t-44.5 -75.5t-63 -52t-71 -31.5t-68.5 -10t-68.5 10t-71 31.5t-63 52t-44.5 75.5
t-17 97q0 64 26 117t66 84.5t85 48.5t87 17zM301 410q-52 0 -91 -40t-39 -111q0 -70 39 -110t91 -40q51 0 90.5 40t39.5 110t-39.5 110.5t-90.5 40.5z" />
    <glyph glyph-name="Ohungarumlaut" unicode="&#x150;" horiz-adv-x="793" 
d="M378 954q28 0 48.5 -20t20.5 -49q0 -27 -16 -44l-73 -81q-15 -18 -36 -18q-25 0 -40 18.5t-5 45.5l35 101q18 47 66 47zM579 954q29 0 49 -20t20 -49q0 -27 -16 -44l-73 -81q-15 -18 -36 -18q-25 0 -40 18.5t-5 45.5l35 101q18 47 66 47zM396 707q137 0 243 -102
t106 -255t-106 -255t-243 -102q-88 0 -167.5 44.5t-130 127.5t-50.5 185t50.5 185t130 127.5t167.5 44.5zM396 576q-83 0 -143.5 -63.5t-60.5 -162.5t60.5 -162.5t143.5 -63.5q84 0 144 63.5t60 162.5t-59.5 162.5t-144.5 63.5z" />
    <glyph glyph-name="ohungarumlaut" unicode="&#x151;" horiz-adv-x="602" 
d="M283 774q29 0 49 -20t20 -49q0 -27 -16 -44l-73 -81q-15 -18 -36 -18q-25 0 -40 18.5t-5 45.5l35 101q18 47 66 47zM484 774q28 0 48.5 -20t20.5 -49q0 -27 -16 -44l-73 -81q-15 -18 -36 -18q-25 0 -40 18.5t-5 45.5l35 101q18 47 66 47zM301 526q42 0 87 -17t85 -48.5
t66 -84.5t26 -117q0 -52 -17 -97t-44.5 -75.5t-63 -52t-71 -31.5t-68.5 -10t-68.5 10t-71 31.5t-63 52t-44.5 75.5t-17 97q0 64 26 117t66 84.5t85 48.5t87 17zM301 410q-52 0 -91 -40t-39 -111q0 -70 39 -110t91 -40q51 0 90.5 40t39.5 110t-39.5 110.5t-90.5 40.5z" />
    <glyph glyph-name="OE" unicode="&#x152;" horiz-adv-x="1131" 
d="M1040 120q25 0 43 -17.5t18 -41.5q0 -25 -18 -43t-43 -18h-351q-32 0 -53 20t-23 52q-98 -79 -217 -79q-88 0 -167.5 44.5t-130 127.5t-50.5 185t50.5 185t130 127.5t167.5 44.5q119 0 217 -79q2 32 23 52t53 20h341q25 0 43 -17.5t18 -41.5q0 -25 -18 -43t-43 -18h-276
v-169h176q25 0 43 -17t18 -42t-18 -43t-43 -18h-176v-171h286zM396 124q84 0 144 63.5t60 162.5t-59.5 162.5t-144.5 63.5q-83 0 -143.5 -63.5t-60.5 -162.5t60.5 -162.5t143.5 -63.5z" />
    <glyph glyph-name="oe" unicode="&#x153;" horiz-adv-x="990" 
d="M957 277q0 -37 -19 -53t-60 -16h-300q10 -46 48 -72.5t80 -26.5q50 0 83 19q22 14 40 14q27 0 42.5 -16t15.5 -43q0 -35 -31 -54q-64 -36 -152 -36q-51 0 -106.5 24t-95.5 69q-39 -45 -94.5 -69t-106.5 -24q-33 0 -68.5 10t-71 31.5t-63 52t-44.5 75.5t-17 97
q0 64 26 117t66 84.5t85 48.5t87 17q51 0 106.5 -24.5t94.5 -69.5q39 45 94.5 69.5t106.5 24.5q57 0 114 -28t98.5 -87t41.5 -134zM580 318h243q-11 43 -46 67.5t-74 24.5q-40 0 -76 -24.5t-47 -67.5zM301 109q51 0 90.5 40t39.5 110t-39.5 110.5t-90.5 40.5q-52 0 -91 -40
t-39 -111q0 -70 39 -110t91 -40z" />
    <glyph glyph-name="Racute" unicode="&#x154;" horiz-adv-x="640" 
d="M301 742q-25 0 -40 18.5t-5 45.5l35 101q18 47 66 47q29 0 49 -20t20 -49q0 -27 -16 -44l-73 -81q-15 -18 -36 -18zM569 101q17 -20 17 -43q0 -27 -19.5 -46t-46.5 -19q-35 0 -53 25l-206 253h-53v-209q0 -28 -20 -48.5t-49 -20.5t-49 20.5t-20 48.5v562q0 33 21.5 54.5
t54.5 21.5h183q115 0 185.5 -62t70.5 -153q0 -73 -45.5 -128t-124.5 -75zM208 582v-193h113q130 0 130 96q0 97 -130 97h-113z" />
    <glyph glyph-name="racute" unicode="&#x155;" horiz-adv-x="458" 
d="M236 562q-25 0 -40 18.5t-5 45.5l35 101q18 47 66 47q28 0 48.5 -20t20.5 -49q0 -27 -16 -44l-73 -81q-15 -18 -36 -18zM366 525q31 0 49 -18t18 -44q0 -27 -19.5 -45.5t-48.5 -18.5h-16q-116 0 -157 -101v-237q0 -28 -20 -47.5t-47 -19.5t-47 19.5t-20 47.5v395
q0 28 20 47.5t47 19.5t47 -19.5t20 -47.5v-26q33 42 78.5 68.5t95.5 26.5z" />
    <glyph glyph-name="Rcommaaccent" unicode="&#x156;" horiz-adv-x="640" 
d="M569 101q17 -20 17 -43q0 -27 -19.5 -46t-46.5 -19q-35 0 -53 25l-206 253h-53v-209q0 -28 -20 -48.5t-49 -20.5t-49 20.5t-20 48.5v562q0 33 21.5 54.5t54.5 21.5h183q115 0 185.5 -62t70.5 -153q0 -73 -45.5 -128t-124.5 -75zM208 582v-193h113q130 0 130 96
q0 97 -130 97h-113zM313 -37q34 0 45.5 -17.5t-4.5 -50.5l-35 -69q-22 -41 -67 -41h-15q-29 0 -43 17t-6 46l12 65q15 50 62 50h51z" />
    <glyph glyph-name="rcommaaccent" unicode="&#x157;" horiz-adv-x="458" 
d="M366 525q31 0 49 -18t18 -44q0 -27 -19.5 -45.5t-48.5 -18.5h-16q-116 0 -157 -101v-237q0 -28 -20 -47.5t-47 -19.5t-47 19.5t-20 47.5v395q0 28 20 47.5t47 19.5t47 -19.5t20 -47.5v-26q33 42 78.5 68.5t95.5 26.5zM107 -37q34 0 45.5 -17.5t-4.5 -50.5l-35 -69
q-22 -41 -67 -41h-15q-29 0 -43 17t-6 46l12 65q15 50 62 50h51z" />
    <glyph glyph-name="Rcaron" unicode="&#x158;" horiz-adv-x="640" 
d="M167 841l-25 54q-16 29 -6 47.5t41 18.5q39 0 67 -29l68 -71l68 71q28 29 68 29q31 0 40.5 -18.5t-6.5 -47.5l-25 -54q-22 -39 -66 -39h-158q-44 0 -66 39zM569 101q17 -20 17 -43q0 -27 -19.5 -46t-46.5 -19q-35 0 -53 25l-206 253h-53v-209q0 -28 -20 -48.5t-49 -20.5
t-49 20.5t-20 48.5v562q0 33 21.5 54.5t54.5 21.5h183q115 0 185.5 -62t70.5 -153q0 -73 -45.5 -128t-124.5 -75zM208 582v-193h113q130 0 130 96q0 97 -130 97h-113z" />
    <glyph glyph-name="rcaron" unicode="&#x159;" horiz-adv-x="458" 
d="M102 661l-25 54q-16 29 -6 47.5t41 18.5q39 0 67 -29l68 -71l68 71q28 29 68 29q31 0 40.5 -18.5t-6.5 -47.5l-25 -54q-22 -39 -66 -39h-158q-44 0 -66 39zM366 525q31 0 49 -18t18 -44q0 -27 -19.5 -45.5t-48.5 -18.5h-16q-116 0 -157 -101v-237q0 -28 -20 -47.5
t-47 -19.5t-47 19.5t-20 47.5v395q0 28 20 47.5t47 19.5t47 -19.5t20 -47.5v-26q33 42 78.5 68.5t95.5 26.5z" />
    <glyph glyph-name="Sacute" unicode="&#x15a;" horiz-adv-x="569" 
d="M314 954q28 0 48.5 -20t20.5 -49q0 -27 -16 -44l-73 -81q-15 -18 -36 -18q-25 0 -40 18.5t-5 45.5l35 101q18 47 66 47zM277 707q114 0 189 -77q12 -15 12 -39q0 -25 -16.5 -41.5t-40.5 -16.5q-32 0 -48 23q-33 34 -96 34q-39 0 -65.5 -19t-26.5 -50q0 -30 18.5 -47
t68.5 -36l31 -10q118 -40 169.5 -97t51.5 -134q0 -64 -40.5 -112.5t-95 -70t-109.5 -21.5q-133 0 -222 103q-12 16 -12 36q0 26 18.5 44.5t43.5 18.5q33 0 50 -26q52 -58 122 -58q43 0 75.5 21.5t32.5 64.5q0 39 -27.5 65t-89.5 46l-31 10q-191 61 -191 203q0 82 67 134
t162 52z" />
    <glyph glyph-name="sacute" unicode="&#x15b;" horiz-adv-x="484" 
d="M276 774q28 0 48.5 -20t20.5 -49q0 -27 -16 -44l-73 -81q-15 -18 -36 -18q-25 0 -40 18.5t-5 45.5l35 101q18 47 66 47zM234 526q64 0 97 -11t63 -37q18 -18 18 -43q0 -26 -18.5 -44.5t-45.5 -18.5q-26 0 -47 21q-23 19 -63 19q-23 0 -38.5 -11.5t-15.5 -27.5
q0 -30 38 -42l72 -21q72 -22 111 -55.5t39 -104.5q0 -72 -64.5 -114.5t-143.5 -42.5q-108 0 -173 60q-23 24 -23 53q0 23 17 40.5t44 17.5q31 0 48 -21q22 -22 41.5 -29t49.5 -7q28 0 46 12.5t18 30.5q0 38 -45 51l-65 19q-77 22 -112.5 58t-35.5 97q0 67 58.5 109t129.5 42
z" />
    <glyph glyph-name="Scedilla" unicode="&#x15e;" horiz-adv-x="569" 
d="M524 197q0 -79 -55.5 -130t-132.5 -68l-49 -52q39 -9 65.5 -35t26.5 -63q0 -51 -49 -75t-129 -22q-15 -1 -22 5.5t-4 16.5q9 19 30 22q38 8 54.5 20t16.5 33q0 18 -14 28.5t-31 3.5q-12 -7 -21.5 -4.5t-19.5 19.5q-13 23 -2 43l34 59q-97 19 -165 98q-12 16 -12 36
q0 26 18.5 44.5t43.5 18.5q33 0 50 -26q52 -58 122 -58q43 0 75.5 21.5t32.5 64.5q0 39 -27.5 65t-89.5 46l-31 10q-191 61 -191 203q0 82 67 134t162 52q114 0 189 -77q12 -15 12 -39q0 -25 -16.5 -41.5t-40.5 -16.5q-32 0 -48 23q-33 34 -96 34q-39 0 -65.5 -19t-26.5 -50
q0 -30 18.5 -47t68.5 -36l31 -10q118 -40 169.5 -97t51.5 -134z" />
    <glyph glyph-name="scedilla" unicode="&#x15f;" horiz-adv-x="484" 
d="M444 150q0 -56 -41 -95t-103 -54h4l-51 -54q39 -9 65.5 -35t26.5 -63q0 -51 -49 -75t-129 -22q-15 -1 -22 5.5t-4 16.5q9 19 30 22q38 8 54.5 20t16.5 33q0 18 -14 28.5t-31 3.5q-12 -7 -21.5 -4.5t-19.5 19.5q-13 23 -2 43l33 58q-77 12 -124 56q-23 24 -23 53
q0 23 17 40.5t44 17.5q31 0 48 -21q22 -22 41.5 -29t49.5 -7q28 0 46 12.5t18 30.5q0 38 -45 51l-65 19q-77 22 -112.5 58t-35.5 97q0 67 58.5 109t129.5 42q64 0 97 -11t63 -37q18 -18 18 -43q0 -26 -18.5 -44.5t-45.5 -18.5q-26 0 -47 21q-23 19 -63 19q-23 0 -38.5 -11.5
t-15.5 -27.5q0 -30 38 -42l72 -21q72 -22 111 -55.5t39 -104.5z" />
    <glyph glyph-name="Scaron" unicode="&#x160;" horiz-adv-x="569" 
d="M348 802h-158q-44 0 -66 39l-25 54q-16 29 -6 47.5t41 18.5q39 0 67 -29l68 -71l68 71q28 29 68 29q31 0 40.5 -18.5t-6.5 -47.5l-25 -54q-22 -39 -66 -39zM277 707q114 0 189 -77q12 -15 12 -39q0 -25 -16.5 -41.5t-40.5 -16.5q-32 0 -48 23q-33 34 -96 34
q-39 0 -65.5 -19t-26.5 -50q0 -30 18.5 -47t68.5 -36l31 -10q118 -40 169.5 -97t51.5 -134q0 -64 -40.5 -112.5t-95 -70t-109.5 -21.5q-133 0 -222 103q-12 16 -12 36q0 26 18.5 44.5t43.5 18.5q33 0 50 -26q52 -58 122 -58q43 0 75.5 21.5t32.5 64.5q0 39 -27.5 65
t-89.5 46l-31 10q-191 61 -191 203q0 82 67 134t162 52z" />
    <glyph glyph-name="scaron" unicode="&#x161;" horiz-adv-x="484" 
d="M310 622h-158q-44 0 -66 39l-25 54q-16 29 -6 47.5t41 18.5q39 0 67 -29l68 -71l68 71q28 29 68 29q31 0 40.5 -18.5t-6.5 -47.5l-25 -54q-22 -39 -66 -39zM234 526q64 0 97 -11t63 -37q18 -18 18 -43q0 -26 -18.5 -44.5t-45.5 -18.5q-26 0 -47 21q-23 19 -63 19
q-23 0 -38.5 -11.5t-15.5 -27.5q0 -30 38 -42l72 -21q72 -22 111 -55.5t39 -104.5q0 -72 -64.5 -114.5t-143.5 -42.5q-108 0 -173 60q-23 24 -23 53q0 23 17 40.5t44 17.5q31 0 48 -21q22 -22 41.5 -29t49.5 -7q28 0 46 12.5t18 30.5q0 38 -45 51l-65 19q-77 22 -112.5 58
t-35.5 97q0 67 58.5 109t129.5 42z" />
    <glyph glyph-name="uni0162" unicode="&#x162;" horiz-adv-x="649" 
d="M543 700q25 0 43 -18t18 -43t-18 -43t-43 -18h-145v-512v-2q0 -28 -21 -63t-41 -55q39 -9 65.5 -35t26.5 -63q0 -51 -48.5 -75t-129.5 -22q-15 -1 -22 5.5t-4 16.5q9 19 30 22q38 8 54.5 20t16.5 33q0 18 -14 28.5t-30 3.5q-13 -7 -22.5 -4.5t-18.5 19.5q-10 16 -3 43
q15 70 15 126v2v512h-146q-25 0 -43 18t-18 43t18 43t43 18h437z" />
    <glyph glyph-name="uni0163" unicode="&#x163;" horiz-adv-x="385" 
d="M254 -53q39 -9 65.5 -35t26.5 -63q0 -51 -49 -75t-129 -22q-15 -1 -22 5.5t-4 16.5q9 19 30 22q38 8 54.5 20t16.5 33q0 18 -14 28.5t-31 3.5q-12 -7 -21.5 -4.5t-19.5 19.5q-13 23 -2 43l34 60q-86 24 -86 156v250h-19q-24 0 -41.5 17t-17.5 41t17.5 40.5t41.5 16.5h19
v30q0 28 20 47.5t47 19.5t47 -19.5t20 -47.5v-30h58q24 0 41 -16.5t17 -40.5q0 -25 -17 -41.5t-41 -16.5h-58v-255q0 -43 30 -43q21 0 34 1q21 2 38 -13.5t17 -40.5q0 -48 -56 -59z" />
    <glyph glyph-name="Tcaron" unicode="&#x164;" horiz-adv-x="649" 
d="M395 802h-158q-44 0 -66 39l-25 54q-16 29 -6 47.5t41 18.5q39 0 67 -29l68 -71l68 71q28 29 68 29q31 0 40.5 -18.5t-6.5 -47.5l-25 -54q-22 -39 -66 -39zM543 700q25 0 43 -18t18 -43t-18 -43t-43 -18h-145v-512q0 -29 -21.5 -51t-50.5 -22q-30 0 -52 21.5t-22 51.5
v512h-146q-25 0 -43 18t-18 43t18 43t43 18h437z" />
    <glyph glyph-name="tcaron" unicode="&#x165;" horiz-adv-x="467" 
d="M368 764q28 0 48.5 -20t20.5 -49q0 -26 -15 -44l-73 -80q-14 -19 -37 -19q-25 0 -40 19t-4 45l34 102q19 46 66 46zM301 108q21 2 38 -13.5t17 -40.5q0 -35 -27 -48.5t-82 -13.5q-68 0 -106 34.5t-38 128.5v250h-19q-24 0 -41.5 17t-17.5 41t17.5 40.5t41.5 16.5h19v30
q0 28 20 47.5t47 19.5t47 -19.5t20 -47.5v-30h58q24 0 41 -16.5t17 -40.5q0 -25 -17 -41.5t-41 -16.5h-58v-255q0 -43 30 -43q21 0 34 1z" />
    <glyph glyph-name="Tbar" unicode="&#x166;" horiz-adv-x="664" 
d="M543 700q25 0 43 -18t18 -43t-18 -43t-43 -18h-145v-58h80q24 0 41 -16.5t17 -40.5q0 -25 -17 -41.5t-41 -16.5h-80v-339q0 -29 -21.5 -51t-50.5 -22q-30 0 -52 21.5t-22 51.5v339h-48q-24 0 -41 16.5t-17 41.5q0 24 17 40.5t41 16.5h48v58h-146q-25 0 -43 18t-18 43
t18 43t43 18h437z" />
    <glyph glyph-name="tbar" unicode="&#x167;" horiz-adv-x="385" 
d="M301 108q21 2 38 -13.5t17 -40.5q0 -35 -27 -48.5t-82 -13.5q-68 0 -106 34.5t-38 128.5v68h-70v115h70v67h-19q-24 0 -41.5 17t-17.5 41t17.5 40.5t41.5 16.5h19v30q0 28 20 47.5t47 19.5t47 -19.5t20 -47.5v-30h58q24 0 41 -16.5t17 -40.5q0 -25 -17 -41.5t-41 -16.5
h-58v-67h109v-115h-109v-73q0 -43 30 -43q21 0 34 1z" />
    <glyph glyph-name="Umacron" unicode="&#x16a;" horiz-adv-x="699" 
d="M486 880q24 0 41 -16.5t17 -40.5q0 -25 -17 -41.5t-41 -16.5h-274q-24 0 -41 16.5t-17 41.5q0 24 17 40.5t41 16.5h274zM567 703q28 0 47.5 -19.5t19.5 -47.5v-385q0 -115 -84 -186.5t-200 -71.5q-117 0 -201 71.5t-84 186.5v385q0 28 20 47.5t47 19.5t47 -19.5t20 -47.5
v-384q0 -73 44 -108.5t107 -35.5t106.5 35.5t43.5 108.5v384q0 28 20 47.5t47 19.5z" />
    <glyph glyph-name="umacron" unicode="&#x16b;" 
d="M441 700q24 0 41 -16.5t17 -40.5q0 -25 -17 -41.5t-41 -16.5h-274q-24 0 -41 16.5t-17 41.5q0 24 17 40.5t41 16.5h274zM421 456q0 28 20 47.5t47 19.5t47 -19.5t20 -47.5v-394q0 -28 -20 -47.5t-47 -19.5t-47 19.5t-20 47.5v46q-10 -37 -54 -75.5t-106 -38.5
q-91 0 -148.5 55.5t-57.5 171.5v235q0 28 20 47.5t47 19.5t47 -19.5t20 -47.5v-226q0 -62 24 -91.5t61 -29.5q56 0 99.5 47.5t47.5 86.5v213z" />
    <glyph glyph-name="Ubreve" unicode="&#x16c;" horiz-adv-x="699" 
d="M472 954q29 0 44 -22t9 -47q-20 -58 -64.5 -95t-112.5 -37q-61 0 -106.5 37.5t-66.5 93.5q-7 30 8.5 50t41.5 20q38 0 49 -32q22 -46 75 -46q51 0 74 45q12 33 49 33zM567 703q28 0 47.5 -19.5t19.5 -47.5v-385q0 -115 -84 -186.5t-200 -71.5q-117 0 -201 71.5t-84 186.5
v385q0 28 20 47.5t47 19.5t47 -19.5t20 -47.5v-384q0 -73 44 -108.5t107 -35.5t106.5 35.5t43.5 108.5v384q0 28 20 47.5t47 19.5z" />
    <glyph glyph-name="ubreve" unicode="&#x16d;" 
d="M427 774q29 0 44 -22t9 -47q-20 -58 -64.5 -95t-112.5 -37q-61 0 -106.5 37.5t-66.5 93.5q-7 30 8.5 50t41.5 20q38 0 49 -32q22 -46 75 -46q52 0 74 45q12 33 49 33zM421 456q0 28 20 47.5t47 19.5t47 -19.5t20 -47.5v-394q0 -28 -20 -47.5t-47 -19.5t-47 19.5t-20 47.5
v46q-10 -37 -54 -75.5t-106 -38.5q-91 0 -148.5 55.5t-57.5 171.5v235q0 28 20 47.5t47 19.5t47 -19.5t20 -47.5v-226q0 -62 24 -91.5t61 -29.5q56 0 99.5 47.5t47.5 86.5v213z" />
    <glyph glyph-name="Uring" unicode="&#x16e;" horiz-adv-x="699" 
d="M351 988q44 0 76 -32.5t32 -76.5t-32 -76.5t-76 -32.5q-47 0 -79.5 32t-32.5 77t32.5 77t79.5 32zM348 908q-11 0 -18.5 -8t-7.5 -20q0 -11 7.5 -19t18.5 -8t19.5 8t8.5 19q0 12 -8.5 20t-19.5 8zM567 703q28 0 47.5 -19.5t19.5 -47.5v-385q0 -115 -84 -186.5t-200 -71.5
q-117 0 -201 71.5t-84 186.5v385q0 28 20 47.5t47 19.5t47 -19.5t20 -47.5v-384q0 -73 44 -108.5t107 -35.5t106.5 35.5t43.5 108.5v384q0 28 20 47.5t47 19.5z" />
    <glyph glyph-name="uring" unicode="&#x16f;" 
d="M306 808q44 0 76 -32.5t32 -76.5t-32 -76.5t-76 -32.5q-47 0 -79.5 32t-32.5 77t32.5 77t79.5 32zM303 728q-11 0 -18.5 -8t-7.5 -20q0 -11 7.5 -19t18.5 -8t19.5 8t8.5 19q0 12 -8.5 20t-19.5 8zM421 456q0 28 20 47.5t47 19.5t47 -19.5t20 -47.5v-394q0 -28 -20 -47.5
t-47 -19.5t-47 19.5t-20 47.5v46q-10 -37 -54 -75.5t-106 -38.5q-91 0 -148.5 55.5t-57.5 171.5v235q0 28 20 47.5t47 19.5t47 -19.5t20 -47.5v-226q0 -62 24 -91.5t61 -29.5q56 0 99.5 47.5t47.5 86.5v213z" />
    <glyph glyph-name="Uhungarumlaut" unicode="&#x170;" horiz-adv-x="699" 
d="M331 954q29 0 49 -20t20 -49q0 -27 -16 -44l-73 -81q-15 -18 -36 -18q-25 0 -40 18.5t-5 45.5l35 101q18 47 66 47zM532 954q28 0 48.5 -20t20.5 -49q0 -27 -16 -44l-73 -81q-15 -18 -36 -18q-25 0 -40 18.5t-5 45.5l35 101q18 47 66 47zM567 703q28 0 47.5 -19.5
t19.5 -47.5v-385q0 -115 -84 -186.5t-200 -71.5q-117 0 -201 71.5t-84 186.5v385q0 28 20 47.5t47 19.5t47 -19.5t20 -47.5v-384q0 -73 44 -108.5t107 -35.5t106.5 35.5t43.5 108.5v384q0 28 20 47.5t47 19.5z" />
    <glyph glyph-name="uhungarumlaut" unicode="&#x171;" 
d="M286 774q28 0 48.5 -20t20.5 -49q0 -27 -16 -44l-73 -81q-15 -18 -36 -18q-25 0 -40 18.5t-5 45.5l35 101q18 47 66 47zM487 774q29 0 49 -20t20 -49q0 -27 -16 -44l-73 -81q-15 -18 -36 -18q-25 0 -40 18.5t-5 45.5l35 101q18 47 66 47zM421 456q0 28 20 47.5t47 19.5
t47 -19.5t20 -47.5v-394q0 -28 -20 -47.5t-47 -19.5t-47 19.5t-20 47.5v46q-10 -37 -54 -75.5t-106 -38.5q-91 0 -148.5 55.5t-57.5 171.5v235q0 28 20 47.5t47 19.5t47 -19.5t20 -47.5v-226q0 -62 24 -91.5t61 -29.5q56 0 99.5 47.5t47.5 86.5v213z" />
    <glyph glyph-name="Uogonek" unicode="&#x172;" horiz-adv-x="699" 
d="M567 703q28 0 47.5 -19.5t19.5 -47.5v-385q0 -97 -62 -164t-155 -87q-75 -28 -103.5 -48t-28.5 -46q0 -22 14.5 -35.5t34.5 -14.5q12 -1 19 -2t14 -6t11 -14q7 -16 2 -29t-22 -15q-43 -6 -87.5 1.5t-78.5 33.5t-34 67q0 45 34.5 72.5t92.5 34.5q-95 19 -157.5 86.5
t-62.5 165.5v385q0 28 20 47.5t47 19.5t47 -19.5t20 -47.5v-384q0 -73 44 -108.5t107 -35.5t106.5 35.5t43.5 108.5v384q0 28 20 47.5t47 19.5z" />
    <glyph glyph-name="uogonek" unicode="&#x173;" 
d="M555 456v-394v-1q0 -7 -1 -10q-5 -26 -25 -42q-11 -11 -40.5 -32.5t-45 -39t-15.5 -36.5q0 -20 8 -30t16.5 -12t24.5 -3q12 -1 19 -2t13.5 -6t10.5 -14q8 -16 3 -29t-22 -15q-30 -6 -65 -3.5t-65 10t-50 29t-20 52.5q0 28 12.5 52.5t30 41.5t35 32t30 29.5t12.5 27.5v1
v46q-10 -37 -54 -75.5t-106 -38.5q-91 0 -148.5 55.5t-57.5 171.5v235q0 28 20 47.5t47 19.5t47 -19.5t20 -47.5v-226q0 -62 24 -91.5t61 -29.5q56 0 99.5 47.5t47.5 86.5v213q0 28 20 47.5t47 19.5t47 -19.5t20 -47.5z" />
    <glyph glyph-name="Wcircumflex" unicode="&#x174;" horiz-adv-x="1157" 
d="M653 947q44 0 66 -39l25 -54q16 -28 6.5 -47t-40.5 -19q-40 0 -68 29l-68 71l-68 -71q-28 -29 -67 -29q-31 0 -41 19t6 47l25 54q22 39 66 39h158zM1034 707q28 0 48 -19.5t20 -48.5q0 -12 -7 -28l-226 -565q-20 -51 -57 -51q-39 0 -59 51l-175 418l-175 -418
q-21 -51 -57 -51q-39 0 -58 51l-225 565q-8 18 -8 28q0 28 20 48t48 20q20 0 37.5 -11t24.5 -29l161 -452l170 454q14 38 62 38q46 0 61 -38l173 -454l161 452q6 18 23 29t38 11z" />
    <glyph glyph-name="wcircumflex" unicode="&#x175;" horiz-adv-x="889" 
d="M522 767q44 0 66 -39l25 -54q16 -28 6.5 -47t-40.5 -19q-40 0 -68 29l-68 71l-68 -71q-28 -29 -67 -29q-31 0 -41 19t6 47l25 54q22 39 66 39h158zM791 523q26 0 44.5 -18.5t18.5 -44.5q0 -6 -9 -31l-146 -380q-19 -51 -60 -51q-39 0 -63 51l-131 275l-132 -275
q-24 -51 -63 -51q-40 0 -61 51l-145 380q-9 25 -9 31q0 26 18.5 44.5t44.5 18.5q19 0 35 -10t21 -26l104 -296l127 291q17 41 60 41q42 0 59 -41l126 -291l105 296q6 16 22 26t34 10z" />
    <glyph glyph-name="Ycircumflex" unicode="&#x176;" horiz-adv-x="649" 
d="M400 947q44 0 66 -39l25 -54q16 -28 6.5 -47t-40.5 -19q-40 0 -68 29l-68 71l-68 -71q-28 -29 -67 -29q-31 0 -41 19t6 47l25 54q22 39 66 39h158zM552 703q26 0 44 -18.5t18 -43.5q0 -22 -11 -37l-211 -289v-256q0 -27 -20 -46.5t-47 -19.5q-28 0 -47.5 19.5t-19.5 46.5
v256l-212 289q-11 15 -11 37q0 25 18.5 43.5t43.5 18.5q35 0 53 -27l175 -236l174 236q18 27 53 27z" />
    <glyph glyph-name="ycircumflex" unicode="&#x177;" horiz-adv-x="595" 
d="M376 767q44 0 66 -39l25 -54q16 -28 6.5 -47t-40.5 -19q-40 0 -68 29l-68 71l-68 -71q-28 -29 -67 -29q-31 0 -41 19t6 47l25 54q22 39 66 39h158zM442 488q17 40 56 40q25 0 43.5 -18.5t18.5 -44.5q0 -3 -5 -23l-257 -602q-17 -38 -55 -38q-25 0 -43 18t-18 44q0 9 4 21
l52 130l-198 427q-5 10 -5 25q0 24 17.5 42.5t42.5 18.5q38 0 56 -37l150 -320z" />
    <glyph glyph-name="Ydieresis" unicode="&#x178;" horiz-adv-x="649" 
d="M197 752q-30 0 -51 21t-21 51q0 29 21 49.5t51 20.5q29 0 50 -20.5t21 -49.5q0 -30 -21 -51t-50 -21zM453 752q-29 0 -50 21t-21 51q0 29 21 49.5t50 20.5q30 0 51 -20.5t21 -49.5q0 -30 -21 -51t-51 -21zM552 703q26 0 44 -18.5t18 -43.5q0 -22 -11 -37l-211 -289v-256
q0 -27 -20 -46.5t-47 -19.5q-28 0 -47.5 19.5t-19.5 46.5v256l-212 289q-11 15 -11 37q0 25 18.5 43.5t43.5 18.5q35 0 53 -27l175 -236l174 236q18 27 53 27z" />
    <glyph glyph-name="Zacute" unicode="&#x179;" horiz-adv-x="662" 
d="M378 954q28 0 48.5 -20t20.5 -49q0 -27 -16 -44l-73 -81q-15 -18 -36 -18q-25 0 -40 18.5t-5 45.5l35 101q18 47 66 47zM502 700q62 0 90 -49.5t-10 -97.5l-378 -438h350q24 0 41 -16.5t17 -40.5q0 -25 -17 -41.5t-41 -16.5h-394q-62 0 -90 49.5t10 97.5l379 438h-351
q-24 0 -41 17t-17 41t17 40.5t41 16.5h394z" />
    <glyph glyph-name="zacute" unicode="&#x17a;" horiz-adv-x="505" 
d="M281 774q29 0 49 -20t20 -49q0 -27 -16 -44l-73 -81q-15 -18 -36 -18q-25 0 -40 18.5t-5 45.5l35 101q18 47 66 47zM366 520q63 0 90 -51t-18 -101l-247 -253h216q24 0 41 -16.5t17 -40.5q0 -25 -17 -41.5t-41 -16.5h-267q-63 0 -88 51t20 102l246 252h-220q-24 0 -41 17
t-17 41t17 40.5t41 16.5h268z" />
    <glyph glyph-name="Zdotaccent" unicode="&#x17b;" horiz-adv-x="662" 
d="M342 802q-28 0 -48.5 20.5t-20.5 48.5t20.5 48.5t48.5 20.5t48.5 -20.5t20.5 -48.5t-20.5 -48.5t-48.5 -20.5zM502 700q62 0 90 -49.5t-10 -97.5l-378 -438h350q24 0 41 -16.5t17 -40.5q0 -25 -17 -41.5t-41 -16.5h-394q-62 0 -90 49.5t10 97.5l379 438h-351
q-24 0 -41 17t-17 41t17 40.5t41 16.5h394z" />
    <glyph glyph-name="zdotaccent" unicode="&#x17c;" horiz-adv-x="505" 
d="M245 622q-28 0 -48.5 20.5t-20.5 48.5t20.5 48.5t48.5 20.5t48.5 -20.5t20.5 -48.5t-20.5 -48.5t-48.5 -20.5zM366 520q63 0 90 -51t-18 -101l-247 -253h216q24 0 41 -16.5t17 -40.5q0 -25 -17 -41.5t-41 -16.5h-267q-63 0 -88 51t20 102l246 252h-220q-24 0 -41 17
t-17 41t17 40.5t41 16.5h268z" />
    <glyph glyph-name="Zcaron" unicode="&#x17d;" horiz-adv-x="662" 
d="M412 802h-158q-44 0 -66 39l-25 54q-16 29 -6 47.5t41 18.5q39 0 67 -29l68 -71l68 71q28 29 68 29q31 0 40.5 -18.5t-6.5 -47.5l-25 -54q-22 -39 -66 -39zM502 700q62 0 90 -49.5t-10 -97.5l-378 -438h350q24 0 41 -16.5t17 -40.5q0 -25 -17 -41.5t-41 -16.5h-394
q-62 0 -90 49.5t10 97.5l379 438h-351q-24 0 -41 17t-17 41t17 40.5t41 16.5h394z" />
    <glyph glyph-name="zcaron" unicode="&#x17e;" horiz-adv-x="505" 
d="M315 622h-158q-44 0 -66 39l-25 54q-16 29 -6 47.5t41 18.5q39 0 67 -29l68 -71l68 71q28 29 68 29q31 0 40.5 -18.5t-6.5 -47.5l-25 -54q-22 -39 -66 -39zM366 520q63 0 90 -51t-18 -101l-247 -253h216q24 0 41 -16.5t17 -40.5q0 -25 -17 -41.5t-41 -16.5h-267
q-63 0 -88 51t20 102l246 252h-220q-24 0 -41 17t-17 41t17 40.5t41 16.5h268z" />
    <glyph glyph-name="florin" unicode="&#x192;" horiz-adv-x="309" 
d="M237 520q24 0 41 -16.5t17 -40.5t-17 -41t-41 -17h-16v-412q0 -149 -140 -178q-27 -4 -48 13.5t-21 44.5q0 20 11.5 35.5t30.5 21.5q23 8 28 25.5t5 55.5v10v384h-10q-24 0 -41 17t-17 41t17 40.5t41 16.5h10q1 145 139 172q27 5 48 -13t21 -45q0 -19 -11.5 -35
t-30.5 -22q-32 -11 -32 -57h16z" />
    <glyph glyph-name="uni01CD" unicode="&#x1cd;" horiz-adv-x="725" 
d="M433 802h-158q-44 0 -66 39l-25 54q-16 29 -6 47.5t41 18.5q39 0 67 -29l68 -71l68 71q28 29 68 29q31 0 40.5 -18.5t-6.5 -47.5l-25 -54q-22 -39 -66 -39zM362 704q32 0 55 -46l257 -570q6 -16 6 -28q0 -28 -20 -48t-48 -20q-19 0 -36 11.5t-25 29.5l-68 149h-242
l-67 -149q-8 -17 -25 -28.5t-37 -11.5q-27 0 -47 19.5t-20 47.5q0 16 6 28l257 570q23 46 54 46zM362 474l-78 -176h157z" />
    <glyph glyph-name="uni01CE" unicode="&#x1ce;" horiz-adv-x="612" 
d="M166 661l-25 54q-16 29 -6 47.5t41 18.5q39 0 67 -29l68 -71l68 71q28 29 68 29q31 0 40.5 -18.5t-6.5 -47.5l-25 -54q-22 -39 -66 -39h-158q-44 0 -66 39zM489 527q27 0 47 -19.5t20 -47.5v-399q0 -28 -20 -47.5t-47 -19.5t-47 19t-20 46q-8 -23 -48.5 -44.5
t-91.5 -21.5q-42 0 -84 16.5t-78.5 48t-59 84.5t-22.5 118q0 64 22.5 116t58.5 84t78 49t85 17q83 0 140 -54v-12q0 28 19.5 47.5t47.5 19.5zM300 108q55 0 91.5 37t36.5 115t-36 114.5t-92 36.5q-50 0 -89 -41.5t-39 -109.5q0 -69 39 -110.5t89 -41.5z" />
    <glyph glyph-name="uni01CF" unicode="&#x1cf;" horiz-adv-x="263" 
d="M202 802h-158q-44 0 -66 39l-25 54q-16 29 -6 47.5t41 18.5q39 0 67 -29l68 -71l68 71q28 29 68 29q31 0 40.5 -18.5t-6.5 -47.5l-25 -54q-22 -39 -66 -39zM132 703q28 0 49 -21t21 -50v-568q0 -29 -21 -50t-49 -21q-29 0 -50 21t-21 50v568q0 29 21 50t50 21z" />
    <glyph glyph-name="uni01D0" unicode="&#x1d0;" horiz-adv-x="284" 
d="M212 622h-158q-44 0 -66 39l-25 54q-16 29 -6 47.5t41 18.5q39 0 67 -29l68 -71l68 71q28 29 68 29q31 0 40.5 -18.5t-6.5 -47.5l-25 -54q-22 -39 -66 -39zM142 523q27 0 47 -19.5t20 -47.5v-395q0 -28 -20 -47.5t-47 -19.5t-47 19.5t-20 47.5v395q0 28 20 47.5t47 19.5z
" />
    <glyph glyph-name="uni01D1" unicode="&#x1d1;" horiz-adv-x="793" 
d="M467 802h-158q-44 0 -66 39l-25 54q-16 29 -6 47.5t41 18.5q39 0 67 -29l68 -71l68 71q28 29 68 29q31 0 40.5 -18.5t-6.5 -47.5l-25 -54q-22 -39 -66 -39zM396 707q137 0 243 -102t106 -255t-106 -255t-243 -102q-88 0 -167.5 44.5t-130 127.5t-50.5 185t50.5 185
t130 127.5t167.5 44.5zM396 576q-83 0 -143.5 -63.5t-60.5 -162.5t60.5 -162.5t143.5 -63.5q84 0 144 63.5t60 162.5t-59.5 162.5t-144.5 63.5z" />
    <glyph glyph-name="uni01D2" unicode="&#x1d2;" horiz-adv-x="602" 
d="M371 622h-158q-44 0 -66 39l-25 54q-16 29 -6 47.5t41 18.5q39 0 67 -29l68 -71l68 71q28 29 68 29q31 0 40.5 -18.5t-6.5 -47.5l-25 -54q-22 -39 -66 -39zM301 526q42 0 87 -17t85 -48.5t66 -84.5t26 -117q0 -52 -17 -97t-44.5 -75.5t-63 -52t-71 -31.5t-68.5 -10
t-68.5 10t-71 31.5t-63 52t-44.5 75.5t-17 97q0 64 26 117t66 84.5t85 48.5t87 17zM301 410q-52 0 -91 -40t-39 -111q0 -70 39 -110t91 -40q51 0 90.5 40t39.5 110t-39.5 110.5t-90.5 40.5z" />
    <glyph glyph-name="uni01D3" unicode="&#x1d3;" horiz-adv-x="699" 
d="M420 802h-158q-44 0 -66 39l-25 54q-16 29 -6 47.5t41 18.5q39 0 67 -29l68 -71l68 71q28 29 68 29q31 0 40.5 -18.5t-6.5 -47.5l-25 -54q-22 -39 -66 -39zM567 703q28 0 47.5 -19.5t19.5 -47.5v-385q0 -115 -84 -186.5t-200 -71.5q-117 0 -201 71.5t-84 186.5v385
q0 28 20 47.5t47 19.5t47 -19.5t20 -47.5v-384q0 -73 44 -108.5t107 -35.5t106.5 35.5t43.5 108.5v384q0 28 20 47.5t47 19.5z" />
    <glyph glyph-name="uni01D4" unicode="&#x1d4;" 
d="M375 622h-158q-44 0 -66 39l-25 54q-16 29 -6 47.5t41 18.5q39 0 67 -29l68 -71l68 71q28 29 68 29q31 0 40.5 -18.5t-6.5 -47.5l-25 -54q-22 -39 -66 -39zM421 456q0 28 20 47.5t47 19.5t47 -19.5t20 -47.5v-394q0 -28 -20 -47.5t-47 -19.5t-47 19.5t-20 47.5v46
q-10 -37 -54 -75.5t-106 -38.5q-91 0 -148.5 55.5t-57.5 171.5v235q0 28 20 47.5t47 19.5t47 -19.5t20 -47.5v-226q0 -62 24 -91.5t61 -29.5q56 0 99.5 47.5t47.5 86.5v213z" />
    <glyph glyph-name="uni01EA" unicode="&#x1ea;" horiz-adv-x="790" 
d="M460 -1q-73 -27 -101.5 -47t-28.5 -46q0 -22 14.5 -35.5t34.5 -14.5q12 -1 19 -2t14 -6t11 -14q7 -16 2 -29t-22 -15q-43 -6 -87.5 1.5t-78.5 33.5t-34 67q0 46 35.5 73.5t93.5 33.5q-118 24 -201 120.5t-83 230.5q0 102 50.5 185t130 127.5t167.5 44.5q137 0 243 -102
t106 -255q0 -134 -83 -230.5t-202 -120.5zM192 350q0 -99 60.5 -162.5t143.5 -63.5q84 0 144 63.5t60 162.5t-59.5 162.5t-144.5 63.5q-83 0 -143.5 -63.5t-60.5 -162.5z" />
    <glyph glyph-name="uni01EB" unicode="&#x1eb;" horiz-adv-x="602" 
d="M356 0q-74 -28 -102.5 -48t-28.5 -46q0 -22 14.5 -35.5t34.5 -14.5q12 -1 19 -2t13.5 -6t10.5 -14q8 -16 3 -29t-22 -15q-43 -6 -87.5 1.5t-78.5 33.5t-34 67q0 47 36.5 74.5t97.5 33.5h12q-84 20 -145.5 87t-61.5 172q0 64 26 117t66 84.5t85 48.5t87 17t87 -17
t85 -48.5t66 -84.5t26 -117q0 -106 -62 -172.5t-147 -86.5zM171 259q0 -70 39 -110t91 -40q51 0 90.5 40t39.5 110t-39.5 110.5t-90.5 40.5q-52 0 -91 -40t-39 -111z" />
    <glyph glyph-name="Scommaaccent" unicode="&#x218;" horiz-adv-x="569" 
d="M277 707q114 0 189 -77q12 -15 12 -39q0 -25 -16.5 -41.5t-40.5 -16.5q-32 0 -48 23q-33 34 -96 34q-39 0 -65.5 -19t-26.5 -50q0 -30 18.5 -47t68.5 -36l31 -10q118 -40 169.5 -97t51.5 -134q0 -64 -40.5 -112.5t-95 -70t-109.5 -21.5q-133 0 -222 103q-12 16 -12 36
q0 26 18.5 44.5t43.5 18.5q33 0 50 -26q52 -58 122 -58q43 0 75.5 21.5t32.5 64.5q0 39 -27.5 65t-89.5 46l-31 10q-191 61 -191 203q0 82 67 134t162 52zM187 -215q-29 0 -43 17t-6 46l12 65q15 50 62 50h51q34 0 45.5 -17.5t-4.5 -50.5l-35 -69q-22 -41 -67 -41h-15z" />
    <glyph glyph-name="scommaaccent" unicode="&#x219;" horiz-adv-x="484" 
d="M234 526q64 0 97 -11t63 -37q18 -18 18 -43q0 -26 -18.5 -44.5t-45.5 -18.5q-26 0 -47 21q-23 19 -63 19q-23 0 -38.5 -11.5t-15.5 -27.5q0 -30 38 -42l72 -21q72 -22 111 -55.5t39 -104.5q0 -72 -64.5 -114.5t-143.5 -42.5q-108 0 -173 60q-23 24 -23 53q0 23 17 40.5
t44 17.5q31 0 48 -21q22 -22 41.5 -29t49.5 -7q28 0 46 12.5t18 30.5q0 38 -45 51l-65 19q-77 22 -112.5 58t-35.5 97q0 67 58.5 109t129.5 42zM152 -215q-29 0 -43 17t-6 46l12 65q15 50 62 50h51q34 0 45.5 -17.5t-4.5 -50.5l-35 -69q-22 -41 -67 -41h-15z" />
    <glyph glyph-name="uni021A" unicode="&#x21a;" horiz-adv-x="649" 
d="M543 700q25 0 43 -18t18 -43t-18 -43t-43 -18h-145v-512q0 -29 -21.5 -51t-50.5 -22q-30 0 -52 21.5t-22 51.5v512h-146q-25 0 -43 18t-18 43t18 43t43 18h437zM236 -216q-29 0 -43 17t-6 46l12 65q15 50 62 50h51q34 0 45.5 -17.5t-4.5 -50.5l-35 -69q-22 -41 -67 -41
h-15z" />
    <glyph glyph-name="uni021B" unicode="&#x21b;" horiz-adv-x="385" 
d="M301 108q21 2 38 -13.5t17 -40.5q0 -35 -27 -48.5t-82 -13.5q-68 0 -106 34.5t-38 128.5v250h-19q-24 0 -41.5 17t-17.5 41t17.5 40.5t41.5 16.5h19v30q0 28 20 47.5t47 19.5t47 -19.5t20 -47.5v-30h58q24 0 41 -16.5t17 -40.5q0 -25 -17 -41.5t-41 -16.5h-58v-255
q0 -43 30 -43q21 0 34 1zM230 -37q34 0 45.5 -17.5t-4.5 -50.5l-35 -69q-22 -41 -67 -41h-15q-29 0 -43 17t-6 46l12 65q15 50 62 50h51z" />
    <glyph glyph-name="uni0237" unicode="&#x237;" horiz-adv-x="271" 
d="M191 520v-571q0 -77 -40.5 -115.5t-112.5 -38.5q-44 0 -108 25v132q76 -21 90 -21q37 0 37 60v529h134z" />
    <glyph glyph-name="circumflex" unicode="&#x2c6;" horiz-adv-x="358" 
d="M258 767q44 0 66 -39l25 -54q16 -28 6.5 -47t-40.5 -19q-40 0 -68 29l-68 71l-68 -71q-28 -29 -67 -29q-31 0 -41 19t6 47l25 54q22 39 66 39h158z" />
    <glyph glyph-name="caron" unicode="&#x2c7;" horiz-adv-x="359" 
d="M260 622h-159q-44 0 -66 39l-24 54q-16 29 -6.5 47.5t41.5 18.5q38 0 67 -29l67 -71l68 71q29 29 68 29q31 0 40.5 -18.5t-6.5 -47.5l-24 -54q-22 -39 -66 -39z" />
    <glyph glyph-name="breve" unicode="&#x2d8;" horiz-adv-x="373" 
d="M310 774q29 0 44 -22t9 -47q-20 -58 -64.5 -95t-112.5 -37q-61 0 -106.5 37.5t-66.5 93.5q-7 30 8.5 50t41.5 20q38 0 49 -32q22 -46 75 -46q51 0 74 45q12 33 49 33z" />
    <glyph glyph-name="dotaccent" unicode="&#x2d9;" horiz-adv-x="148" 
d="M74 622q-28 0 -48.5 20.5t-20.5 48.5t20.5 48.5t48.5 20.5t48.5 -20.5t20.5 -48.5t-20.5 -48.5t-48.5 -20.5z" />
    <glyph glyph-name="ring" unicode="&#x2da;" horiz-adv-x="220" 
d="M112 808q44 0 76 -32.5t32 -76.5t-32 -76.5t-76 -32.5q-47 0 -79.5 32t-32.5 77t32.5 77t79.5 32zM109 728q-11 0 -18.5 -8t-7.5 -20q0 -11 7.5 -19t18.5 -8t19.5 8t8.5 19q0 12 -8.5 20t-19.5 8z" />
    <glyph glyph-name="ogonek" unicode="&#x2db;" horiz-adv-x="259" 
d="M259 0q-75 -28 -103.5 -48t-28.5 -46q0 -22 14.5 -35.5t34.5 -14.5q12 -1 19 -2t14 -6t11 -14q7 -16 2 -29t-22 -15q-43 -6 -87.5 1.5t-78.5 33.5t-34 67q0 47 36.5 74.5t97.5 33.5h125z" />
    <glyph glyph-name="tilde" unicode="&#x2dc;" horiz-adv-x="423" 
d="M134 745q39 0 97.5 -34t81.5 -34q29 0 40 14q10 16 30 16q18 0 28 -13t6 -30q-13 -41 -46 -66.5t-77 -25.5q-39 0 -100 39t-86 39q-29 0 -39 -20q-8 -19 -30 -19q-16 0 -26 12t-6 28q12 42 45.5 68t81.5 26z" />
    <glyph glyph-name="hungarumlaut" unicode="&#x2dd;" horiz-adv-x="434" 
d="M109 774q29 0 49 -20t20 -49q0 -27 -16 -44l-73 -81q-15 -18 -36 -18q-25 0 -40 18.5t-5 45.5l35 101q18 47 66 47zM310 774q28 0 48.5 -20t20.5 -49q0 -27 -16 -44l-73 -81q-15 -18 -36 -18q-25 0 -40 18.5t-5 45.5l35 101q18 47 66 47z" />
    <glyph glyph-name="uni0326" unicode="&#x326;" horiz-adv-x="0" 
d="M-197 -215q-29 0 -43 17t-6 46l13 65q15 50 61 50h52q34 0 45.5 -17.5t-4.5 -50.5l-36 -69q-21 -41 -67 -41h-15z" />
    <glyph glyph-name="Delta" unicode="&#x394;" horiz-adv-x="733" 
d="M382 700l301 -700h-633l301 700h31zM367 484l-149 -369h297z" />
    <glyph glyph-name="Omega" unicode="&#x3a9;" horiz-adv-x="790" 
d="M652 128q65 0 65 -63q0 -65 -66 -65h-165v154l33 26q86 71 86 176q0 100 -61.5 159t-148.5 59t-148 -59t-61 -159q0 -106 85 -176l33 -26v-154h-165q-66 0 -66 65q0 63 65 63q-90 98 -90 228q0 99 51.5 181t130.5 126t165 44t165 -44t130.5 -126t51.5 -181
q0 -130 -90 -228z" />
    <glyph glyph-name="mu" unicode="&#x3bc;" 
d="M488 523q27 0 47 -19.5t20 -47.5v-394q0 -28 -20 -47.5t-47 -19.5t-47 19.5t-20 47.5v46q-10 -37 -54 -75.5t-106 -38.5q-39 0 -72 10v-134q0 -28 -20 -47.5t-47 -19.5t-47 19.5t-20 47.5v586q0 28 20 47.5t47 19.5t47 -19.5t20 -47.5v-226q0 -62 24 -91.5t61 -29.5
q56 0 99.5 47.5t47.5 86.5v213q0 28 20 47.5t47 19.5z" />
    <glyph glyph-name="pi" unicode="&#x3c0;" horiz-adv-x="737" 
d="M617 109h13q25 3 43.5 -14t18.5 -41q0 -20 -12.5 -35t-32.5 -20q-37 -5 -72 -5q-50 0 -92 24.5t-42 75.5v311h-154v-346q0 -27 -20 -46.5t-47 -19.5q-28 0 -47.5 19.5t-19.5 46.5v346h-50q-24 0 -41 17t-17 41t17 40.5t41 16.5h520q24 0 41 -16.5t17 -40.5t-17 -41
t-41 -17h-48v-241q0 -33 9.5 -44t32.5 -11z" />
    <glyph glyph-name="uni0401" unicode="&#x401;" horiz-adv-x="603" 
d="M184 752q-30 0 -51 21t-21 51q0 29 21 49.5t51 20.5q29 0 50 -20.5t21 -49.5q0 -30 -21 -51t-50 -21zM440 752q-29 0 -50 21t-21 51q0 29 21 49.5t50 20.5q30 0 51 -20.5t21 -49.5q0 -30 -21 -51t-51 -21zM207 120h285q25 0 43 -17.5t18 -41.5q0 -25 -18 -43t-43 -18
h-351q-33 0 -54.5 21.5t-21.5 54.5v548q0 33 21.5 54.5t54.5 21.5h341q25 0 43 -17.5t18 -41.5q0 -25 -18 -43t-43 -18h-275v-169h175q25 0 43 -17t18 -42t-18 -43t-43 -18h-175v-171z" />
    <glyph glyph-name="uni0404" unicode="&#x404;" horiz-adv-x="648" 
d="M522 163q28 0 48 -20t20 -48q0 -37 -32 -57q-78 -45 -166 -45q-137 0 -242 102t-105 254q0 102 50.5 185.5t129.5 128t167 44.5q85 0 166 -45q32 -20 32 -57q0 -28 -20 -48t-48 -20q-20 0 -36 11q-51 28 -91 28q-70 0 -125.5 -47t-73.5 -121h71q24 0 41.5 -16.5
t17.5 -40.5t-17.5 -41t-41.5 -17h-71q17 -74 73 -121.5t126 -47.5q41 0 90 28q14 11 37 11z" />
    <glyph glyph-name="uni0407" unicode="&#x407;" horiz-adv-x="263" 
d="M4 752q-30 0 -51 21t-21 51q0 29 21 49.5t51 20.5q29 0 50 -20.5t21 -49.5q0 -30 -21 -51t-50 -21zM260 752q-29 0 -50 21t-21 51q0 29 21 49.5t50 20.5q30 0 51 -20.5t21 -49.5q0 -30 -21 -51t-51 -21zM132 703q28 0 49 -21t21 -50v-568q0 -29 -21 -50t-49 -21
q-29 0 -50 21t-21 50v568q0 29 21 50t50 21z" />
    <glyph glyph-name="uni0410" unicode="&#x410;" horiz-adv-x="725" 
d="M362 704q32 0 55 -46l257 -570q6 -16 6 -28q0 -28 -20 -48t-48 -20q-19 0 -36 11.5t-25 29.5l-68 149h-242l-67 -149q-8 -17 -25 -28.5t-37 -11.5q-27 0 -47 19.5t-20 47.5q0 16 6 28l257 570q23 46 54 46zM362 474l-78 -176h157z" />
    <glyph glyph-name="uni0411" unicode="&#x411;" horiz-adv-x="630" 
d="M329 429q115 0 185.5 -61t70.5 -153q0 -91 -70.5 -153t-185.5 -62h-183q-33 0 -54.5 21.5t-21.5 54.5v553v7v7q0 24 17 40.5t41 16.5h319q24 0 41 -16.5t17 -40.5q0 -25 -17 -41.5t-41 -16.5h-239v-156h121zM321 118q130 0 130 97q0 96 -130 96h-113v-193h113z" />
    <glyph glyph-name="uni0412" unicode="&#x412;" horiz-adv-x="631" 
d="M459 389q127 -55 127 -181q0 -97 -66.5 -152.5t-191.5 -55.5h-182q-33 0 -54.5 21.5t-21.5 54.5v548q0 33 21.5 54.5t54.5 21.5h171q98 0 159 -47t61 -139q0 -39 -19.5 -73t-58.5 -52zM206 584v-152h111q42 0 64 23.5t22 58.5q0 33 -26 51.5t-60 18.5h-111zM328 116
q63 0 93.5 26.5t30.5 65.5q0 46 -30.5 77t-93.5 31h-122v-200h122z" />
    <glyph glyph-name="uni0413" unicode="&#x413;" horiz-adv-x="585" 
d="M482 700q24 0 41 -16.5t17 -40.5q0 -25 -17 -41.5t-41 -16.5h-278v-524q0 -28 -20 -47.5t-47 -19.5t-47 19.5t-20 47.5v563q0 33 21.5 54.5t54.5 21.5h336z" />
    <glyph glyph-name="uni0414" unicode="&#x414;" horiz-adv-x="945" 
d="M765 115h69q33 0 54.5 -21.5t21.5 -54.5v-62q0 -33 -23.5 -57t-57.5 -24t-57.5 24t-23.5 57v23h-551v-23q0 -33 -23.5 -57t-57.5 -24t-57.5 24t-23.5 57v62q0 33 21.5 54.5t54.5 21.5h55q16 45 24.5 121.5t9.5 137.5t1 186v64q0 33 21.5 54.5t54.5 21.5h412
q33 0 54.5 -21.5t21.5 -54.5v-509zM298 115h333v470h-296v-25q0 -125 -1.5 -186t-10 -137.5t-25.5 -121.5z" />
    <glyph glyph-name="uni0415" unicode="&#x415;" horiz-adv-x="603" 
d="M207 120h285q25 0 43 -17.5t18 -41.5q0 -25 -18 -43t-43 -18h-351q-33 0 -54.5 21.5t-21.5 54.5v548q0 33 21.5 54.5t54.5 21.5h341q25 0 43 -17.5t18 -41.5q0 -25 -18 -43t-43 -18h-275v-169h175q25 0 43 -17t18 -42t-18 -43t-43 -18h-175v-171z" />
    <glyph glyph-name="uni0416" unicode="&#x416;" horiz-adv-x="1258" 
d="M1136 94q16 -18 16 -41q0 -24 -18.5 -42t-43.5 -18q-27 0 -45 20l-214 243l-132 -164v-30q0 -28 -20.5 -48.5t-48.5 -20.5h-1q-29 0 -49.5 20.5t-20.5 48.5v30l-132 164l-214 -243q-18 -20 -45 -20q-25 0 -43 18t-18 42q0 25 15 41l226 258l-200 254q-14 19 -14 39
q0 25 18 43.5t44 18.5q30 0 49 -23l314 -400v354q0 28 20.5 48.5t49.5 20.5h1q28 0 48.5 -20.5t20.5 -48.5v-354l315 400q19 23 48 23q26 0 44.5 -18.5t18.5 -43.5q0 -18 -15 -39l-200 -254z" />
    <glyph glyph-name="uni0417" unicode="&#x417;" horiz-adv-x="604" 
d="M293 707q93 0 161.5 -58.5t68.5 -136.5q0 -58 -36 -98t-83 -50q50 0 102.5 -45t52.5 -112q0 -96 -78.5 -156.5t-187.5 -60.5q-81 0 -144.5 32.5t-96.5 88.5q-17 31 3.5 65t58.5 34q22 0 40 -12.5t25 -33.5q27 -59 114 -59q124 0 124 102q0 36 -23.5 59.5t-85.5 32.5
q-22 3 -37 20t-15 40q0 21 15 38t36 20q24 4 39 11.5t22.5 12.5t11 20t3.5 21v30q0 35 -32 57.5t-58 22.5q-74 0 -93 -51q-17 -50 -67 -50q-37 0 -56.5 28.5t-7.5 67.5q30 56 90 88t134 32z" />
    <glyph glyph-name="uni0418" unicode="&#x418;" horiz-adv-x="685" 
d="M132 703q29 0 50 -21t21 -50v-373l281 404q29 40 73 40q25 0 44 -17t19 -47v-574q0 -29 -21 -50t-50 -21q-28 0 -49 21t-21 50v377l-288 -407q-29 -42 -73 -42q-23 0 -39 17t-16 47v575q0 29 20.5 50t48.5 21z" />
    <glyph glyph-name="uni0419" unicode="&#x419;" horiz-adv-x="685" 
d="M486 954q29 0 44 -22t9 -47q-20 -58 -64.5 -95t-112.5 -37q-61 0 -106.5 37.5t-66.5 93.5q-7 30 8.5 50t40.5 20q39 0 50 -32q22 -46 75 -46q52 0 73 45q14 33 50 33zM132 703q29 0 50 -21t21 -50v-373l281 404q29 40 73 40q25 0 44 -17t19 -47v-574q0 -29 -21 -50
t-50 -21q-28 0 -49 21t-21 50v377l-288 -407q-29 -42 -73 -42q-23 0 -39 17t-16 47v575q0 29 20.5 50t48.5 21z" />
    <glyph glyph-name="uni041A" unicode="&#x41a;" horiz-adv-x="704" 
d="M570 707q26 0 44 -18.5t18 -43.5q0 -20 -14 -39l-200 -254l226 -258q15 -16 15 -41q0 -24 -18 -42t-43 -18q-27 0 -45 20l-214 243l-132 -164v-30q0 -28 -20.5 -48.5t-49.5 -20.5q-28 0 -48.5 20.5t-20.5 48.5v576q0 28 20.5 48.5t48.5 20.5q29 0 49.5 -20.5t20.5 -48.5
v-354l314 400q19 23 49 23z" />
    <glyph glyph-name="uni041B" unicode="&#x41b;" horiz-adv-x="791" 
d="M650 700q33 0 54.5 -21.5t21.5 -54.5v-563q0 -28 -20 -47.5t-47 -19.5q-28 0 -47.5 19.5t-19.5 47.5v524h-324v-427q0 -95 -38 -129.5t-107 -34.5q-108 0 -108 66q0 28 19 42.5t45 12.5h13q21 0 31.5 14t10.5 31v464q0 33 21.5 54.5t54.5 21.5h440z" />
    <glyph glyph-name="uni041C" unicode="&#x41c;" horiz-adv-x="890" 
d="M759 703q24 0 42.5 -17t18.5 -47v-572q0 -28 -20.5 -49t-49.5 -21q-28 0 -49 21t-21 49v309l-173 -310q-21 -38 -62 -38t-62 38l-173 310v-309q0 -28 -20.5 -49t-48.5 -21q-29 0 -50 21t-21 49v572q0 30 18.5 47t42.5 17q21 0 41.5 -13.5t31.5 -32.5l241 -427l242 427
q11 19 31 32.5t41 13.5z" />
    <glyph glyph-name="uni041D" unicode="&#x41d;" horiz-adv-x="718" 
d="M517 634q0 28 20.5 48.5t49.5 20.5q28 0 48 -20.5t20 -48.5v-568q0 -28 -20 -48.5t-48 -20.5q-29 0 -49.5 20.5t-20.5 48.5v224h-316v-224q0 -28 -20.5 -48.5t-48.5 -20.5t-48.5 20.5t-20.5 48.5v568q0 28 20.5 48.5t48.5 20.5t48.5 -20.5t20.5 -48.5v-227h316v227z" />
    <glyph glyph-name="uni041E" unicode="&#x41e;" horiz-adv-x="793" 
d="M396 707q137 0 243 -102t106 -255t-106 -255t-243 -102q-88 0 -167.5 44.5t-130 127.5t-50.5 185t50.5 185t130 127.5t167.5 44.5zM396 576q-83 0 -143.5 -63.5t-60.5 -162.5t60.5 -162.5t143.5 -63.5q84 0 144 63.5t60 162.5t-59.5 162.5t-144.5 63.5z" />
    <glyph glyph-name="uni041F" unicode="&#x41f;" horiz-adv-x="722" 
d="M581 700q33 0 54.5 -21.5t21.5 -54.5v-563q0 -28 -20 -47.5t-47 -19.5t-47 19.5t-20 47.5v524h-324v-524q0 -28 -20 -47.5t-47 -19.5t-47 19.5t-20 47.5v563q0 33 21.5 54.5t54.5 21.5h440z" />
    <glyph glyph-name="uni0420" unicode="&#x420;" horiz-adv-x="633" 
d="M329 700q115 0 185.5 -62t70.5 -153q0 -92 -70.5 -153t-185.5 -61h-121v-209q0 -28 -20 -48.5t-49 -20.5t-49 20.5t-20 48.5v562q0 33 21.5 54.5t54.5 21.5h183zM321 389q130 0 130 96q0 97 -130 97h-113v-193h113z" />
    <glyph glyph-name="uni0421" unicode="&#x421;" horiz-adv-x="630" 
d="M392 707q85 0 166 -45q32 -20 32 -57q0 -28 -20 -48t-48 -20q-20 0 -36 11q-51 28 -91 28q-84 0 -145 -66t-61 -160q0 -96 61 -161t145 -65q41 0 90 28q14 11 37 11q28 0 48 -20t20 -48q0 -37 -32 -57q-78 -45 -166 -45q-137 0 -242 102t-105 254q0 102 50.5 185.5
t129.5 128t167 44.5z" />
    <glyph glyph-name="uni0422" unicode="&#x422;" horiz-adv-x="649" 
d="M543 700q25 0 43 -18t18 -43t-18 -43t-43 -18h-145v-512q0 -29 -21.5 -51t-50.5 -22q-30 0 -52 21.5t-22 51.5v512h-146q-25 0 -43 18t-18 43t18 43t43 18h437z" />
    <glyph glyph-name="uni0423" unicode="&#x423;" horiz-adv-x="676" 
d="M511 674q17 33 53 33q26 0 44 -18t18 -44q0 -17 -7 -31l-322 -587q-17 -33 -53 -33q-26 0 -44.5 18t-18.5 44q0 16 7 30l79 143l-210 385q-7 14 -7 31q0 25 18 43.5t44 18.5q36 0 54 -33l172 -315z" />
    <glyph glyph-name="uni0424" unicode="&#x424;" horiz-adv-x="911" 
d="M861 350q0 -118 -98 -197.5t-249 -86.5v-7q0 -27 -20 -46.5t-47 -19.5t-47 19.5t-20 46.5v7q-150 8 -247.5 87t-97.5 197t97.5 197t247.5 87v6q0 28 20 47.5t47 19.5t47 -19.5t20 -47.5v-6q151 -7 249 -86.5t98 -197.5zM514 181q60 3 104 19.5t66.5 42t32.5 52t10 55.5
t-10 55.5t-32.5 52t-66.5 42t-104 19.5v-338zM169 350q0 -63 48.5 -113t162.5 -56v338q-114 -6 -162.5 -56t-48.5 -113z" />
    <glyph glyph-name="uni0425" unicode="&#x425;" horiz-adv-x="630" 
d="M573 97q12 -17 12 -38q0 -28 -19 -47t-47 -19q-34 0 -54 28l-151 217l-151 -217q-19 -28 -53 -28q-27 0 -46 19t-19 45q0 23 11 37l178 259l-171 245q-12 17 -12 39q0 27 19 46.5t47 19.5q35 0 54 -29l143 -205l142 205q21 29 54 29q28 0 47.5 -19.5t19.5 -46.5
q0 -23 -13 -39l-170 -244z" />
    <glyph glyph-name="uni0426" unicode="&#x426;" horiz-adv-x="826" 
d="M705 115q33 0 54.5 -21.5t21.5 -54.5v-62q0 -28 -19 -47.5t-47 -19.5t-47.5 19.5t-19.5 47.5v23h-507q-33 0 -54.5 21.5t-21.5 54.5v563q0 28 20 47.5t47 19.5t47 -19.5t20 -47.5v-524h324v524q0 28 20 47.5t47 19.5t47 -19.5t20 -47.5v-524h48z" />
    <glyph glyph-name="uni0427" unicode="&#x427;" horiz-adv-x="655" 
d="M458 636q0 28 20 47.5t47 19.5t47 -19.5t20 -47.5v-575q0 -28 -20 -47.5t-47 -19.5t-47 19.5t-20 47.5v237q-12 -30 -57 -58t-109 -28q-105 0 -167 52.5t-62 165.5v206q0 28 20 47.5t47 19.5t47 -19.5t20 -47.5v-206q0 -55 34.5 -79t85.5 -24q84 0 141 99v210z" />
    <glyph glyph-name="uni0428" unicode="&#x428;" horiz-adv-x="1186" 
d="M1048 706q27 0 47 -19.5t20 -47.5v-563q0 -33 -21.5 -54.5t-54.5 -21.5h-440h-9h-9h-440q-33 0 -54.5 21.5t-21.5 54.5v563q0 28 20 47.5t47 19.5t47 -19.5t20 -47.5v-524h324v524q0 28 20 47.5t47 19.5t47 -19.5t20 -47.5v-524h324v524q0 28 20 47.5t47 19.5z" />
    <glyph glyph-name="uni0429" unicode="&#x429;" horiz-adv-x="1281" 
d="M1160 115q33 0 54.5 -21.5t21.5 -54.5v-62q0 -28 -19 -47.5t-47 -19.5t-47.5 19.5t-19.5 47.5v23h-504h-9h-9h-440q-33 0 -54.5 21.5t-21.5 54.5v563q0 28 20 47.5t47 19.5t47 -19.5t20 -47.5v-524h324v524q0 28 20 47.5t47 19.5t47 -19.5t20 -47.5v-524h324v524
q0 28 20 47.5t47 19.5t47 -19.5t20 -47.5v-524h45z" />
    <glyph glyph-name="uni042A" unicode="&#x42a;" horiz-adv-x="765" 
d="M464 429q115 0 185.5 -61t70.5 -153q0 -91 -70.5 -153t-185.5 -62h-183q-33 0 -54.5 21.5t-21.5 54.5v516h-122q-23 0 -40.5 17t-17.5 41t17 40.5t41 16.5h191q10 0 15 -2q23 -5 38.5 -23.5t15.5 -43.5v-209h121zM456 118q130 0 130 97q0 96 -130 96h-113v-193h113z" />
    <glyph glyph-name="uni042B" unicode="&#x42b;" horiz-adv-x="925" 
d="M327 0h-183q-33 0 -54.5 21.5t-21.5 54.5v562q0 28 20 48.5t49 20.5t49 -20.5t20 -48.5v-209h121q115 0 185.5 -61t70.5 -153q0 -91 -70.5 -153t-185.5 -62zM781 703q28 0 48.5 -21t20.5 -50v-568q0 -29 -20.5 -50t-48.5 -21q-29 0 -50 21t-21 50v568q0 29 21 50t50 21z
M319 311h-113v-193h113q130 0 130 97q0 96 -130 96z" />
    <glyph glyph-name="uni042C" unicode="&#x42c;" horiz-adv-x="656" 
d="M329 0h-183q-33 0 -54.5 21.5t-21.5 54.5v562q0 28 20 48.5t49 20.5t49 -20.5t20 -48.5v-209h121q115 0 185.5 -61t70.5 -153q0 -91 -70.5 -153t-185.5 -62zM321 311h-113v-193h113q130 0 130 97q0 96 -130 96z" />
    <glyph glyph-name="uni042D" unicode="&#x42d;" horiz-adv-x="648" 
d="M256 707q88 0 167 -44.5t129.5 -128t50.5 -185.5q0 -152 -105 -254t-242 -102q-88 0 -166 45q-32 20 -32 57q0 28 20 48t48 20q23 0 37 -11q49 -28 90 -28q71 0 126.5 47t73.5 122h-72q-24 0 -41.5 17t-17.5 41t17.5 40.5t41.5 16.5h71q-18 74 -73.5 121t-125.5 47
q-40 0 -91 -28q-16 -11 -36 -11q-28 0 -48 20t-20 48q0 37 32 57q81 45 166 45z" />
    <glyph glyph-name="uni042E" unicode="&#x42e;" horiz-adv-x="986" 
d="M592 707q137 0 243 -102t106 -255t-106 -255t-243 -102q-80 0 -153 37t-125 106.5t-66 156.5h-46v-229q0 -29 -21 -50t-49 -21q-29 0 -50 21t-21 50v568q0 29 21 50t50 21q28 0 49 -21t21 -50v-224h46q21 131 121.5 215t222.5 84zM592 124q84 0 144 63.5t60 162.5
t-59.5 162.5t-144.5 63.5q-83 0 -143.5 -63.5t-60.5 -162.5t60.5 -162.5t143.5 -63.5z" />
    <glyph glyph-name="uni042F" unicode="&#x42f;" horiz-adv-x="640" 
d="M494 700q33 0 54.5 -21.5t21.5 -54.5v-562q0 -28 -20 -48.5t-49 -20.5t-49 20.5t-20 48.5v209h-53l-206 -253q-18 -25 -53 -25q-27 0 -46.5 19t-19.5 46q0 23 17 43l154 181q-79 20 -124.5 75t-45.5 128q0 91 70.5 153t185.5 62h183zM432 389v193h-113q-130 0 -130 -97
q0 -96 130 -96h113z" />
    <glyph glyph-name="uni0430" unicode="&#x430;" horiz-adv-x="612" 
d="M489 527q27 0 47 -19.5t20 -47.5v-399q0 -28 -20 -47.5t-47 -19.5t-47 19t-20 46q-8 -23 -48.5 -44.5t-91.5 -21.5q-42 0 -84 16.5t-78.5 48t-59 84.5t-22.5 118q0 64 22.5 116t58.5 84t78 49t85 17q83 0 140 -54v-12q0 28 19.5 47.5t47.5 19.5zM300 108q55 0 91.5 37
t36.5 115t-36 114.5t-92 36.5q-50 0 -89 -41.5t-39 -109.5q0 -69 39 -110.5t89 -41.5z" />
    <glyph glyph-name="uni0431" unicode="&#x431;" horiz-adv-x="606" 
d="M334 526q42 0 84 -17t78.5 -48.5t59 -84t22.5 -116.5q0 -65 -22.5 -118t-59 -84.5t-78.5 -48t-84 -16.5q-52 0 -92.5 21.5t-47.5 44.5q-1 -27 -21 -46t-46 -19q-27 0 -47 19.5t-20 47.5v399q0 9 1 13v47q0 180 207 180h66q48 0 65 15q16 14 36 14q22 0 38.5 -16.5
t16.5 -39.5q0 -27 -18 -43q-51 -45 -120 -45h-84q-45 0 -59 -14.5t-14 -50.5v-47q56 53 139 53zM315 108q51 0 90 41.5t39 110.5q0 68 -39 109.5t-90 41.5q-55 0 -91 -36.5t-36 -114.5t36 -115t91 -37z" />
    <glyph glyph-name="uni0432" unicode="&#x432;" horiz-adv-x="616" 
d="M465 289q106 -42 106 -133q0 -80 -62.5 -118t-168.5 -38h-194q-33 0 -54.5 21.5t-21.5 54.5v368q0 33 21.5 54.5t54.5 21.5h194q85 0 137.5 -36.5t52.5 -102.5q0 -69 -65 -92zM204 412v-75h136q20 0 33 4.5t17 12t5 11.5t1 10v2v3v4.5t-0.5 5t-2 5.5t-4 5t-7 5t-10 3.5
t-14 2.5t-18.5 1h-136zM340 108q96 0 96 48q0 67 -96 67h-136v-115h136z" />
    <glyph glyph-name="uni0433" unicode="&#x433;" horiz-adv-x="552" 
d="M449 520q24 0 41 -16.5t17 -40.5q0 -25 -17 -41.5t-41 -16.5h-245v-344q0 -28 -20 -47.5t-47 -19.5t-47 19.5t-20 47.5v383q0 33 21.5 54.5t54.5 21.5h303z" />
    <glyph glyph-name="uni0434" unicode="&#x434;" horiz-adv-x="720" 
d="M640 109q45 -18 45 -70v-90q0 -28 -20 -47.5t-47 -19.5t-47 19.5t-20 47.5v48l-8 3h-374v-51q0 -28 -20 -47.5t-47 -19.5t-47 19.5t-20 47.5v90q0 33 21.5 54.5t54.5 21.5h1q26 117 26 249v80q0 33 21.5 54.5t54.5 21.5h350q33 0 54.5 -21.5t21.5 -54.5v-335zM272 364
q0 -159 -27 -249h261v290h-234v-41z" />
    <glyph glyph-name="uni0435" unicode="&#x435;" horiz-adv-x="608" 
d="M309 526q57 0 114 -28t98.5 -87t41.5 -134q0 -37 -19 -53t-60 -16h-300q10 -46 48 -72.5t80 -26.5q50 0 83 19q22 14 40 14q27 0 42.5 -16t15.5 -43q0 -35 -31 -54q-64 -36 -152 -36q-42 0 -87 16.5t-85.5 47.5t-66.5 84t-26 118q0 64 26 117t66 84.5t85 48.5t87 17z
M309 410q-40 0 -76 -24.5t-47 -67.5h243q-11 43 -46 67.5t-74 24.5z" />
    <glyph glyph-name="uni0436" unicode="&#x436;" horiz-adv-x="942" 
d="M808 100q17 -17 17 -44q0 -26 -18.5 -44t-43.5 -18q-28 0 -45 20l-153 161l-27 -28v-86q0 -28 -20 -47.5t-47 -19.5t-47 19.5t-20 47.5v86l-27 28l-153 -161q-17 -20 -45 -20q-25 0 -43.5 18t-18.5 44q0 27 17 44l158 163l-151 155q-18 18 -18 43t18.5 43.5t43.5 18.5
q27 0 44 -20l175 -176v129q0 28 20 47.5t47 19.5t47 -19.5t20 -47.5v-129l175 176q17 20 44 20q25 0 43.5 -18.5t18.5 -43.5t-18 -43l-151 -155z" />
    <glyph glyph-name="uni0437" unicode="&#x437;" horiz-adv-x="551" 
d="M265 525q88 0 152 -42.5t64 -102.5q0 -24 -6 -41.5t-18 -28t-20.5 -15.5t-24 -10.5t-17.5 -6.5q15 -2 30 -7t37.5 -17.5t36.5 -38t14 -60.5q0 -73 -74 -117.5t-174 -44.5q-142 0 -209 78q-22 33 -3 68t59 35q38 0 57 -34q30 -32 96 -32q43 0 78.5 11.5t35.5 35.5
q0 49 -86 61q-22 3 -37.5 20t-15.5 40q0 22 14.5 39t35.5 20q25 5 39 14t16 15.5t2 15.5q0 30 -82 30q-59 0 -76 -15q-19 -28 -52 -28q-41 0 -57.5 37.5t12.5 71.5q66 49 173 49z" />
    <glyph glyph-name="uni0438" unicode="&#x438;" horiz-adv-x="659" 
d="M429 484q28 36 67.5 41.5t68.5 -20.5t29 -71v-375q0 -27 -19.5 -46.5t-47.5 -19.5q-27 0 -47 19.5t-20 46.5v270l-230 -293q-28 -36 -67.5 -41.5t-68.5 20.5t-29 71v374q0 28 20 47.5t47 19.5t47 -19.5t20 -47.5v-269z" />
    <glyph glyph-name="uni0439" unicode="&#x439;" horiz-adv-x="659" 
d="M453 774q29 0 44 -22t9 -47q-20 -58 -64.5 -95t-112.5 -37q-61 0 -106.5 37.5t-66.5 93.5q-7 30 8.5 50t41.5 20q38 0 49 -32q22 -46 75 -46q52 0 74 45q12 33 49 33zM429 484q28 36 67.5 41.5t68.5 -20.5t29 -71v-375q0 -27 -19.5 -46.5t-47.5 -19.5q-27 0 -47 19.5
t-20 46.5v270l-230 -293q-28 -36 -67.5 -41.5t-68.5 20.5t-29 71v374q0 28 20 47.5t47 19.5t47 -19.5t20 -47.5v-269z" />
    <glyph glyph-name="uni043A" unicode="&#x43a;" horiz-adv-x="534" 
d="M472 100q17 -17 17 -44q0 -26 -18.5 -44t-43.5 -18q-28 0 -45 20l-153 161l-27 -28v-86q0 -28 -20 -47.5t-47 -19.5t-47 19.5t-20 47.5v395q0 28 20 47.5t47 19.5t47 -19.5t20 -47.5v-129l175 176q17 20 44 20q25 0 43.5 -18.5t18.5 -43.5t-18 -43l-151 -155z" />
    <glyph glyph-name="uni043B" unicode="&#x43b;" horiz-adv-x="718" 
d="M577 520q33 0 54.5 -21.5t21.5 -54.5v-385q0 -27 -20 -46.5t-47 -19.5q-28 0 -47.5 19.5t-19.5 46.5v346h-253v-247q0 -94 -39 -129t-105 -35q-107 0 -107 59q0 27 19 43.5t44 13.5h12q21 0 31.5 16t10.5 34v284q0 33 21.5 54.5t54.5 21.5h369z" />
    <glyph glyph-name="uni043C" unicode="&#x43c;" horiz-adv-x="900" 
d="M620 462q29 48 80 59t90.5 -18.5t39.5 -86.5v-355q0 -28 -20 -47.5t-47 -19.5t-47 19.5t-20 47.5v264l-181 -296q-20 -34 -65 -34t-65 34l-181 296v-264q0 -28 -20 -47.5t-47 -19.5t-47 19.5t-20 47.5v355q0 57 39.5 86.5t90.5 18.5t80 -59l170 -275z" />
    <glyph glyph-name="uni043D" unicode="&#x43d;" horiz-adv-x="616" 
d="M414 456q0 28 20 47.5t47 19.5t47 -19.5t20 -47.5v-395q0 -28 -20 -47.5t-47 -19.5t-47 19.5t-20 47.5v142h-212v-142q0 -28 -20 -47.5t-47 -19.5t-47 19.5t-20 47.5v395q0 28 20 47.5t47 19.5t47 -19.5t20 -47.5v-138h212v138z" />
    <glyph glyph-name="uni043E" unicode="&#x43e;" horiz-adv-x="602" 
d="M301 526q42 0 87 -17t85 -48.5t66 -84.5t26 -117q0 -52 -17 -97t-44.5 -75.5t-63 -52t-71 -31.5t-68.5 -10t-68.5 10t-71 31.5t-63 52t-44.5 75.5t-17 97q0 64 26 117t66 84.5t85 48.5t87 17zM301 410q-52 0 -91 -40t-39 -111q0 -70 39 -110t91 -40q51 0 90.5 40
t39.5 110t-39.5 110.5t-90.5 40.5z" />
    <glyph glyph-name="uni043F" unicode="&#x43f;" horiz-adv-x="638" 
d="M494 520q33 0 54.5 -21.5t21.5 -54.5v-383q0 -28 -20 -47.5t-47 -19.5t-47 19.5t-20 47.5v344h-234v-344q0 -28 -20 -47.5t-47 -19.5t-47 19.5t-20 47.5v383q0 33 21.5 54.5t54.5 21.5h350z" />
    <glyph glyph-name="uni0440" unicode="&#x440;" horiz-adv-x="606" 
d="M334 526q42 0 84 -17t78.5 -48.5t59 -84t22.5 -116.5q0 -65 -22.5 -118t-59 -84.5t-78.5 -48t-84 -16.5q-52 0 -92.5 21.5t-47.5 44.5v-189q0 -28 -20 -47.5t-47 -19.5t-47 19.5t-20 47.5v190v1v399q0 28 20 47.5t47 19.5t47 -19.5t20 -47.5v12q57 54 140 54zM315 108
q51 0 90 41.5t39 110.5q0 68 -39 109.5t-90 41.5q-55 0 -91 -36.5t-36 -114.5t36 -115t91 -37z" />
    <glyph glyph-name="uni0441" unicode="&#x441;" horiz-adv-x="540" 
d="M309 526q81 0 146 -42q35 -27 35 -55q0 -26 -17.5 -43.5t-42.5 -17.5q-24 0 -40 14q-36 28 -81 28q-52 0 -91 -40t-39 -111q0 -70 39 -110t91 -40q45 0 80 27q21 15 41 15q25 0 42.5 -17.5t17.5 -43.5q0 -28 -33 -53q-67 -44 -148 -44q-43 0 -88 16.5t-85 48t-65.5 84
t-25.5 117.5t25 118t65.5 84.5t85.5 48t88 16.5z" />
    <glyph glyph-name="uni0442" unicode="&#x442;" horiz-adv-x="521" 
d="M418 520q24 0 41 -16.5t17 -40.5t-17 -41t-41 -17h-90v-344q0 -28 -20 -47.5t-47 -19.5q-28 0 -47.5 19.5t-19.5 47.5v344h-91q-24 0 -41 17t-17 41t17 40.5t41 16.5h315z" />
    <glyph glyph-name="uni0443" unicode="&#x443;" horiz-adv-x="595" 
d="M442 488q17 40 56 40q25 0 43.5 -18.5t18.5 -44.5q0 -3 -5 -23l-257 -602q-17 -38 -55 -38q-25 0 -43 18t-18 44q0 9 4 21l52 130l-198 427q-5 10 -5 25q0 24 17.5 42.5t42.5 18.5q38 0 56 -37l150 -320z" />
    <glyph glyph-name="uni0444" unicode="&#x444;" horiz-adv-x="964" 
d="M693 526q42 0 84 -17t78.5 -48.5t59 -84t22.5 -116.5q0 -65 -22.5 -118t-59 -84.5t-78.5 -48t-84 -16.5q-52 0 -92.5 21.5t-47.5 44.5v-189q0 -28 -20 -47.5t-47 -19.5q-28 0 -47.5 19.5t-19.5 47.5v178q-57 -54 -140 -54q-42 0 -84 17t-78.5 48.5t-59 84t-22.5 116.5
q0 65 22.5 118t59 84.5t78.5 48t84 16.5q52 0 92.5 -21.5t47.5 -44.5v189q0 28 19.5 47.5t47.5 19.5q27 0 47 -19.5t20 -47.5v-178q57 54 140 54zM298 109q44 0 76.5 23t44.5 73v110q-24 97 -121 97q-51 0 -90 -41.5t-39 -110.5q0 -68 39 -109.5t90 -41.5zM674 108
q51 0 90 41.5t39 110.5q0 68 -39 109.5t-90 41.5q-44 0 -76.5 -23t-44.5 -73v-110q24 -97 121 -97z" />
    <glyph glyph-name="uni0445" unicode="&#x445;" horiz-adv-x="576" 
d="M505 88q11 -14 11 -36q0 -24 -17.5 -41.5t-40.5 -17.5q-29 0 -48 24l-122 150l-122 -150q-19 -24 -48 -24q-23 0 -40.5 17.5t-17.5 41.5q0 22 11 36l141 172l-141 172q-11 12 -11 36q0 25 17.5 42.5t40.5 17.5q30 0 48 -25l122 -150l122 150q19 25 48 25q23 0 40.5 -17.5
t17.5 -42.5q0 -20 -11 -36l-141 -172z" />
    <glyph glyph-name="uni0446" unicode="&#x446;" horiz-adv-x="663" 
d="M567 111q23 -7 37 -26.5t14 -45.5v-62q0 -28 -19 -47.5t-47 -19.5t-47.5 19.5t-19.5 47.5v23h-344q-33 0 -54.5 21.5t-21.5 54.5v383q0 28 20 47.5t47 19.5t47 -19.5t20 -47.5v-344h234v344q0 28 20 47.5t47 19.5t47 -19.5t20 -47.5v-348z" />
    <glyph glyph-name="uni0447" unicode="&#x447;" horiz-adv-x="626" 
d="M429 456q0 28 20 47.5t47 19.5t47 -19.5t20 -47.5v-395q0 -28 -20 -47.5t-47 -19.5t-47 19.5t-20 47.5v170q-56 -95 -144 -95q-92 0 -157 61t-65 163v96q0 28 20 47.5t47 19.5t47 -19.5t20 -47.5v-97q0 -105 89 -105q99 0 143 117v85z" />
    <glyph glyph-name="uni0448" unicode="&#x448;" horiz-adv-x="858" 
d="M653 460q0 28 20 47.5t47 19.5t47 -19.5t20 -47.5v-384q0 -33 -21.5 -54.5t-54.5 -21.5h-570q-33 0 -54.5 21.5t-21.5 54.5v384q0 28 20 47.5t47 19.5t47 -19.5t20 -47.5v-345h160v345q0 28 20 47.5t47 19.5t47 -19.5t20 -47.5v-345h160v345z" />
    <glyph glyph-name="uni0449" unicode="&#x449;" horiz-adv-x="885" 
d="M787 112q24 -7 38.5 -26.5t14.5 -46.5v-62q0 -28 -19 -47.5t-47 -19.5t-47.5 19.5t-19.5 47.5v23h-566q-33 0 -54.5 21.5t-21.5 54.5v384q0 28 20 47.5t47 19.5t47 -19.5t20 -47.5v-345h160v345q0 28 20 47.5t47 19.5t47 -19.5t20 -47.5v-345h160v345q0 28 20 47.5
t47 19.5t47 -19.5t20 -47.5v-348z" />
    <glyph glyph-name="uni044A" unicode="&#x44a;" horiz-adv-x="687" 
d="M437 306q91 0 148 -43t57 -114q0 -68 -56.5 -108.5t-148.5 -40.5h-224q-33 0 -54.5 21.5t-21.5 54.5v332h-44q-24 0 -41 17t-17 41t17 40.5t41 16.5h120q24 0 41 -16.5t17 -40.5v-2v-8v-150h166zM437 115q46 0 58.5 8t12.5 26q0 12 -3 19.5t-20 15t-48 7.5h-166v-76h166z
" />
    <glyph glyph-name="uni044B" unicode="&#x44b;" horiz-adv-x="834" 
d="M371 306q91 0 147.5 -43t56.5 -114q0 -68 -56 -108.5t-148 -40.5h-225q-33 0 -54.5 21.5t-21.5 54.5v380q0 28 20 47.5t47 19.5t47 -19.5t20 -47.5v-150h167zM699 523q27 0 47 -19.5t20 -47.5v-395q0 -28 -20 -47.5t-47 -19.5t-47 19.5t-20 47.5v395q0 28 20 47.5
t47 19.5zM370 115q33 0 49 5t19 11t3 18q0 9 -1.5 14.5t-8 13t-22 11t-39.5 3.5h-166v-76h166z" />
    <glyph glyph-name="uni044C" unicode="&#x44c;" horiz-adv-x="620" 
d="M371 306q91 0 147.5 -43t56.5 -114q0 -68 -56 -108.5t-148 -40.5h-225q-33 0 -54.5 21.5t-21.5 54.5v380q0 28 20 47.5t47 19.5t47 -19.5t20 -47.5v-150h167zM370 115q33 0 49 5t19 11t3 18q0 9 -1.5 14.5t-8 13t-22 11t-39.5 3.5h-166v-76h166z" />
    <glyph glyph-name="uni044D" unicode="&#x44d;" horiz-adv-x="540" 
d="M226 526q43 0 88 -16.5t85.5 -48t66 -84.5t24.5 -118q0 -65 -25.5 -117.5t-65.5 -84t-85 -48t-88 -16.5q-80 0 -147 44q-34 25 -34 53q0 26 17.5 43.5t43.5 17.5q21 0 40 -15q35 -27 80 -27q38 0 71 22.5t48 63.5h-49q-25 0 -43 18t-18 43t18 43t43 18h52q-14 45 -48 69
t-74 24q-45 0 -80 -28q-16 -14 -40 -14q-26 0 -43.5 18t-17.5 43q0 28 35 55q67 42 146 42z" />
    <glyph glyph-name="uni044E" unicode="&#x44e;" horiz-adv-x="842" 
d="M527 526q42 0 87 -17t85 -48.5t66 -84.5t26 -117q0 -52 -17 -97t-44.5 -75.5t-63 -52t-71 -31.5t-68.5 -10q-80 0 -157.5 53t-99.5 149h-75v-134q0 -28 -20 -47.5t-47 -19.5t-47 19.5t-20 47.5v395q0 28 20 47.5t47 19.5t47 -19.5t20 -47.5v-139h74q20 98 98.5 153.5
t159.5 55.5zM527 109q51 0 90.5 40t39.5 110t-39.5 110.5t-90.5 40.5q-52 0 -91 -40t-39 -111q0 -70 39 -110t91 -40z" />
    <glyph glyph-name="uni044F" unicode="&#x44f;" horiz-adv-x="634" 
d="M488 520q33 0 54.5 -21.5t21.5 -54.5v-383q0 -28 -20 -47.5t-47 -19.5q-28 0 -47.5 19.5t-19.5 47.5v90h-108l-127 -138q-21 -19 -43 -19q-24 0 -41.5 17.5t-17.5 41.5q0 21 17 40l70 72q-55 25 -90 73t-35 105q0 77 64 127t158 50h211zM430 266v139h-152q-43 0 -66 -17
t-23 -45q0 -30 24 -53.5t65 -23.5h152z" />
    <glyph glyph-name="uni0451" unicode="&#x451;" horiz-adv-x="608" 
d="M164 572q-30 0 -51 21t-21 51q0 29 21 49.5t51 20.5q29 0 50 -20.5t21 -49.5q0 -30 -21 -51t-50 -21zM420 572q-29 0 -50 21t-21 51q0 29 21 49.5t50 20.5q30 0 51 -20.5t21 -49.5q0 -30 -21 -51t-51 -21zM309 526q57 0 114 -28t98.5 -87t41.5 -134q0 -37 -19 -53
t-60 -16h-300q10 -46 48 -72.5t80 -26.5q50 0 83 19q22 14 40 14q27 0 42.5 -16t15.5 -43q0 -35 -31 -54q-64 -36 -152 -36q-42 0 -87 16.5t-85.5 47.5t-66.5 84t-26 118q0 64 26 117t66 84.5t85 48.5t87 17zM309 410q-40 0 -76 -24.5t-47 -67.5h243q-11 43 -46 67.5
t-74 24.5z" />
    <glyph glyph-name="uni0454" unicode="&#x454;" horiz-adv-x="540" 
d="M430 151q25 0 42.5 -17.5t17.5 -43.5q0 -28 -33 -53q-67 -44 -148 -44q-43 0 -88 16.5t-85 48t-65.5 84t-25.5 117.5t25 118t65.5 84.5t85.5 48t88 16.5q81 0 146 -42q35 -27 35 -55q0 -26 -17.5 -43.5t-42.5 -17.5q-24 0 -40 14q-36 28 -81 28q-39 0 -73 -24t-48 -69h52
q25 0 43 -18t18 -43t-18 -43t-43 -18h-50q15 -41 48 -63.5t71 -22.5q45 0 80 27q21 15 41 15z" />
    <glyph glyph-name="uni0457" unicode="&#x457;" horiz-adv-x="284" 
d="M14 572q-30 0 -51 21t-21 51q0 29 21 49.5t51 20.5q29 0 50 -20.5t21 -49.5q0 -30 -21 -51t-50 -21zM270 572q-29 0 -50 21t-21 51q0 29 21 49.5t50 20.5q30 0 51 -20.5t21 -49.5q0 -30 -21 -51t-51 -21zM142 523q27 0 47 -19.5t20 -47.5v-395q0 -28 -20 -47.5t-47 -19.5
t-47 19.5t-20 47.5v395q0 28 20 47.5t47 19.5z" />
    <glyph glyph-name="uni0490" unicode="&#x490;" horiz-adv-x="585" 
d="M540 686v-33v-5v-5q0 -25 -17 -41.5t-41 -16.5h-278v-524q0 -28 -20 -47.5t-47 -19.5t-47 19.5t-20 47.5v563q0 33 21.5 54.5t54.5 21.5h258q5 24 24 39t43 15q29 0 49 -20t20 -48z" />
    <glyph glyph-name="uni0491" unicode="&#x491;" horiz-adv-x="552" 
d="M507 506v-33v-5v-5q0 -25 -17 -41.5t-41 -16.5h-245v-344q0 -28 -20 -47.5t-47 -19.5t-47 19.5t-20 47.5v383q0 33 21.5 54.5t54.5 21.5h225q5 24 24 39t43 15q29 0 49 -20t20 -48z" />
    <glyph glyph-name="Wgrave" unicode="&#x1e80;" horiz-adv-x="1157" 
d="M533 954q48 0 66 -47l35 -101q10 -27 -5 -45.5t-40 -18.5q-21 0 -36 18l-73 81q-16 17 -16 44q0 29 20 49t49 20zM1034 707q28 0 48 -19.5t20 -48.5q0 -12 -7 -28l-226 -565q-20 -51 -57 -51q-39 0 -59 51l-175 418l-175 -418q-21 -51 -57 -51q-39 0 -58 51l-225 565
q-8 18 -8 28q0 28 20 48t48 20q20 0 37.5 -11t24.5 -29l161 -452l170 454q14 38 62 38q46 0 61 -38l173 -454l161 452q6 18 23 29t38 11z" />
    <glyph glyph-name="wgrave" unicode="&#x1e81;" horiz-adv-x="889" 
d="M402 774q48 0 66 -47l35 -101q10 -27 -5 -45.5t-40 -18.5q-21 0 -36 18l-73 81q-16 17 -16 44q0 29 20.5 49t48.5 20zM791 523q26 0 44.5 -18.5t18.5 -44.5q0 -6 -9 -31l-146 -380q-19 -51 -60 -51q-39 0 -63 51l-131 275l-132 -275q-24 -51 -63 -51q-40 0 -61 51
l-145 380q-9 25 -9 31q0 26 18.5 44.5t44.5 18.5q19 0 35 -10t21 -26l104 -296l127 291q17 41 60 41q42 0 59 -41l126 -291l105 296q6 16 22 26t34 10z" />
    <glyph glyph-name="Wacute" unicode="&#x1e82;" horiz-adv-x="1157" 
d="M614 954q28 0 48.5 -20t20.5 -49q0 -27 -16 -44l-73 -81q-15 -18 -36 -18q-25 0 -40 18.5t-5 45.5l35 101q18 47 66 47zM1034 707q28 0 48 -19.5t20 -48.5q0 -12 -7 -28l-226 -565q-20 -51 -57 -51q-39 0 -59 51l-175 418l-175 -418q-21 -51 -57 -51q-39 0 -58 51
l-225 565q-8 18 -8 28q0 28 20 48t48 20q20 0 37.5 -11t24.5 -29l161 -452l170 454q14 38 62 38q46 0 61 -38l173 -454l161 452q6 18 23 29t38 11z" />
    <glyph glyph-name="wacute" unicode="&#x1e83;" horiz-adv-x="889" 
d="M483 774q29 0 49 -20t20 -49q0 -27 -16 -44l-73 -81q-15 -18 -36 -18q-25 0 -40 18.5t-5 45.5l35 101q18 47 66 47zM791 523q26 0 44.5 -18.5t18.5 -44.5q0 -6 -9 -31l-146 -380q-19 -51 -60 -51q-39 0 -63 51l-131 275l-132 -275q-24 -51 -63 -51q-40 0 -61 51l-145 380
q-9 25 -9 31q0 26 18.5 44.5t44.5 18.5q19 0 35 -10t21 -26l104 -296l127 291q17 41 60 41q42 0 59 -41l126 -291l105 296q6 16 22 26t34 10z" />
    <glyph glyph-name="Wdieresis" unicode="&#x1e84;" horiz-adv-x="1157" 
d="M450 752q-30 0 -51 21t-21 51q0 29 21 49.5t51 20.5q29 0 50 -20.5t21 -49.5q0 -30 -21 -51t-50 -21zM706 752q-29 0 -50 21t-21 51q0 29 21 49.5t50 20.5q30 0 51 -20.5t21 -49.5q0 -30 -21 -51t-51 -21zM1034 707q28 0 48 -19.5t20 -48.5q0 -12 -7 -28l-226 -565
q-20 -51 -57 -51q-39 0 -59 51l-175 418l-175 -418q-21 -51 -57 -51q-39 0 -58 51l-225 565q-8 18 -8 28q0 28 20 48t48 20q20 0 37.5 -11t24.5 -29l161 -452l170 454q14 38 62 38q46 0 61 -38l173 -454l161 452q6 18 23 29t38 11z" />
    <glyph glyph-name="wdieresis" unicode="&#x1e85;" horiz-adv-x="889" 
d="M319 572q-30 0 -51 21t-21 51q0 29 21 49.5t51 20.5q29 0 50 -20.5t21 -49.5q0 -30 -21 -51t-50 -21zM575 572q-29 0 -50 21t-21 51q0 29 21 49.5t50 20.5q30 0 51 -20.5t21 -49.5q0 -30 -21 -51t-51 -21zM791 523q26 0 44.5 -18.5t18.5 -44.5q0 -6 -9 -31l-146 -380
q-19 -51 -60 -51q-39 0 -63 51l-131 275l-132 -275q-24 -51 -63 -51q-40 0 -61 51l-145 380q-9 25 -9 31q0 26 18.5 44.5t44.5 18.5q19 0 35 -10t21 -26l104 -296l127 291q17 41 60 41q42 0 59 -41l126 -291l105 296q6 16 22 26t34 10z" />
    <glyph glyph-name="Ygrave" unicode="&#x1ef2;" horiz-adv-x="649" 
d="M280 954q48 0 66 -47l35 -101q10 -27 -5 -45.5t-40 -18.5q-21 0 -36 18l-73 81q-16 17 -16 44q0 29 20.5 49t48.5 20zM552 703q26 0 44 -18.5t18 -43.5q0 -22 -11 -37l-211 -289v-256q0 -27 -20 -46.5t-47 -19.5q-28 0 -47.5 19.5t-19.5 46.5v256l-212 289q-11 15 -11 37
q0 25 18.5 43.5t43.5 18.5q35 0 53 -27l175 -236l174 236q18 27 53 27z" />
    <glyph glyph-name="ygrave" unicode="&#x1ef3;" horiz-adv-x="595" 
d="M256 774q48 0 66 -47l35 -101q10 -27 -5 -45.5t-40 -18.5q-21 0 -36 18l-73 81q-16 17 -16 44q0 29 20.5 49t48.5 20zM442 488q17 40 56 40q25 0 43.5 -18.5t18.5 -44.5q0 -3 -5 -23l-257 -602q-17 -38 -55 -38q-25 0 -43 18t-18 44q0 9 4 21l52 130l-198 427
q-5 10 -5 25q0 24 17.5 42.5t42.5 18.5q38 0 56 -37l150 -320z" />
    <glyph glyph-name="endash" unicode="&#x2013;" 
d="M515 330q22 0 38.5 -16t16.5 -39t-16.5 -39t-38.5 -16h-415q-22 0 -38.5 16t-16.5 39t16.5 39t38.5 16h415z" />
    <glyph glyph-name="emdash" unicode="&#x2014;" horiz-adv-x="675" 
d="M575 330q22 0 38.5 -16t16.5 -39t-16.5 -39t-38.5 -16h-475q-22 0 -38.5 16t-16.5 39t16.5 39t38.5 16h475z" />
    <glyph glyph-name="quoteleft" unicode="&#x2018;" horiz-adv-x="250" 
d="M162 700q29 0 43 -17t6 -46l-12 -65q-15 -50 -62 -50h-51q-34 0 -45.5 17.5t4.5 50.5l35 69q22 41 67 41h15z" />
    <glyph glyph-name="quoteright" unicode="&#x2019;" horiz-adv-x="221" 
d="M88 545q-29 0 -43 17t-6 46l12 65q15 50 62 50h52q34 0 45 -17.5t-5 -50.5l-35 -69q-21 -41 -67 -41h-15z" />
    <glyph glyph-name="quotesinglbase" unicode="&#x201a;" horiz-adv-x="319" 
d="M77 -135q-29 0 -43 17t-6 46l13 65q15 50 61 50h52q34 0 45.5 -17.5t-4.5 -50.5l-36 -69q-21 -41 -67 -41h-15z" />
    <glyph glyph-name="quotedblleft" unicode="&#x201c;" horiz-adv-x="525" 
d="M162 700q29 0 43 -17t6 -46l-12 -65q-15 -50 -62 -50h-51q-34 0 -45.5 17.5t4.5 50.5l35 69q22 41 67 41h15zM406 700q29 0 43 -17t6 -46l-12 -65q-15 -50 -62 -50h-51q-34 0 -45.5 17.5t4.5 50.5l35 69q22 41 67 41h15z" />
    <glyph glyph-name="quotedblright" unicode="&#x201d;" horiz-adv-x="532" 
d="M88 545q-29 0 -43 17t-6 46l12 65q15 50 62 50h51q34 0 45.5 -17.5t-4.5 -50.5l-35 -69q-22 -41 -67 -41h-15zM331 545q-29 0 -43 17t-6 46l12 65q15 50 62 50h51q34 0 45.5 -17.5t-4.5 -50.5l-35 -69q-22 -41 -67 -41h-15z" />
    <glyph glyph-name="quotedblbase" unicode="&#x201e;" horiz-adv-x="562" 
d="M77 -135q-29 0 -43 17t-6 46l13 65q15 50 61 50h52q34 0 45.5 -17.5t-4.5 -50.5l-36 -69q-21 -41 -67 -41h-15zM320 -135q-29 0 -43 17t-6 46l13 65q15 50 61 50h52q34 0 45.5 -17.5t-4.5 -50.5l-36 -69q-21 -41 -67 -41h-15z" />
    <glyph glyph-name="dagger" unicode="&#x2020;" horiz-adv-x="373" 
d="M328 565v-115h-108l-21 -138h-24l-21 138h-109v115h92l-21 135h142l-21 -135h91z" />
    <glyph glyph-name="daggerdbl" unicode="&#x2021;" horiz-adv-x="363" 
d="M201 384h-38l2 -10h-2l-12 76h-111v115h93l-22 135h142l-22 -135h92v-115h-110l-12 -76h-1zM165 374h35l-18 -123zM361 192l-10 -3h-160l34 -243h-86l35 243h-162l-10 3h172l8 59l8 -59h171z" />
    <glyph glyph-name="bullet" unicode="&#x2022;" horiz-adv-x="238" 
d="M119 230q-31 0 -52.5 21.5t-21.5 52.5q0 32 21.5 53t52.5 21t52.5 -21.5t21.5 -52.5t-21.5 -52.5t-52.5 -21.5z" />
    <glyph glyph-name="ellipsis" unicode="&#x2026;" horiz-adv-x="748" 
d="M113 -4q-32 0 -55 22.5t-23 55.5q0 31 23 53.5t55 22.5q31 0 53.5 -22.5t22.5 -53.5q0 -33 -22 -55.5t-54 -22.5zM360 -4q-32 0 -55 22.5t-23 55.5q0 31 23 53.5t55 22.5q31 0 53.5 -22.5t22.5 -53.5q0 -33 -22 -55.5t-54 -22.5zM607 -4q-32 0 -55 22.5t-23 55.5
q0 31 23 53.5t55 22.5q31 0 53.5 -22.5t22.5 -53.5q0 -33 -22 -55.5t-54 -22.5z" />
    <glyph glyph-name="perthousand" unicode="&#x2030;" horiz-adv-x="1024" 
d="M158 705q52 0 88 -35.5t36 -87.5q0 -51 -36 -87t-88 -36q-51 0 -87 36t-36 87q0 52 36 87.5t87 35.5zM472 657q20 29 53 29q25 0 43.5 -18.5t18.5 -44.5q0 -21 -11 -35l-364 -543q-19 -28 -52 -28q-26 0 -44 18.5t-18 43.5q0 21 9 35zM158 603q-10 0 -17 -6t-7 -15
t7 -15.5t17 -6.5q7 0 13 6.5t6 15.5t-6 15t-13 6zM539 241q52 0 88 -35.5t36 -87.5q0 -51 -36 -87t-88 -36q-51 0 -87 36t-36 87q0 52 36 87.5t87 35.5zM865 241q52 0 88 -35.5t36 -87.5q0 -51 -36 -87t-88 -36q-51 0 -87 36t-36 87q0 52 36 87.5t87 35.5zM539 139
q-10 0 -17 -6t-7 -15t7 -15.5t17 -6.5q7 0 13 6.5t6 15.5t-6 15t-13 6zM865 139q-10 0 -16.5 -6t-6.5 -15t6.5 -15.5t16.5 -6.5q7 0 13 6.5t6 15.5t-6 15t-13 6z" />
    <glyph glyph-name="guilsinglleft" unicode="&#x2039;" horiz-adv-x="215" 
d="M25 360q0 44 39 66l54 24q28 16 47 6.5t19 -40.5q0 -39 -29 -68l-71 -67l71 -68q29 -29 29 -67q0 -31 -19 -41t-47 6l-54 24q-39 22 -39 66v159z" />
    <glyph glyph-name="guilsinglright" unicode="&#x203a;" horiz-adv-x="201" 
d="M190 417v-158q0 -44 -39 -66l-54 -25q-29 -16 -47.5 -6t-18.5 41q0 39 29 67l71 68l-71 68q-29 28 -29 68q0 31 18.5 40.5t47.5 -6.5l54 -25q39 -22 39 -66z" />
    <glyph glyph-name="fraction" unicode="&#x2044;" horiz-adv-x="108" 
d="M288 700l-430 -700h-48l436 700h42z" />
    <glyph glyph-name="Euro" unicode="&#x20ac;" horiz-adv-x="682" 
d="M575 163q28 0 47.5 -20t19.5 -48q0 -36 -31 -57q-78 -45 -166 -45q-100 0 -188.5 59t-130.5 156h-40q-21 0 -36 15t-15 36t15 36t36 15h14q-2 26 -2 39q0 19 1 28h-13q-21 0 -36 15t-15 36t15 36t36 15h35q39 103 129.5 165.5t194.5 62.5q85 0 166 -45q31 -21 31 -57
q0 -28 -19.5 -48t-47.5 -20q-22 0 -36 11q-53 28 -92 28q-50 0 -95 -26t-73 -71h16q21 0 36 -15t15 -36t-15 -36t-36 -15h-52q-1 -9 -1 -27q0 -20 3 -40h50q21 0 36 -15t15 -36t-15 -36t-36 -15h-8q29 -39 71 -61.5t89 -22.5q41 0 90 28q16 11 38 11z" />
    <glyph glyph-name="uni20B4" unicode="&#x20b4;" horiz-adv-x="603" 
d="M507 208h-302q-1 -3 -1 -11q0 -43 32.5 -64.5t75.5 -21.5q71 0 121 58q18 26 50 26q25 0 44 -18.5t19 -44.5q0 -20 -12 -36q-89 -103 -222 -103q-55 0 -109.5 21.5t-95 70t-40.5 112.5q0 13 1 20q-23 15 -23 42q0 21 15 36t36 15h5q29 39 74 67h-79q-21 0 -36 15t-15 36
t15 36t36 15h295q14 15 14 42q0 31 -26 50t-65 19q-64 0 -97 -34q-16 -23 -47 -23q-25 0 -41.5 16.5t-16.5 41.5q0 23 13 39q75 77 189 77q94 0 161 -52t67 -134q0 -30 -7 -51q23 -15 23 -42q0 -21 -15 -36t-36 -15h-35q-45 -35 -120 -59l-26 -8h181q21 0 36 -15t15 -36
t-15 -36t-36 -15z" />
    <glyph glyph-name="trademark" unicode="&#x2122;" horiz-adv-x="581" 
d="M236 700v-44h-59v-136h-53v136h-59v44h171zM516 700v-180h-50v77l-64 -77h-18l-63 77v-77h-50v180h28l94 -117l94 117h29z" />
    <glyph glyph-name="oneeighth" unicode="&#x215b;" horiz-adv-x="556" 
d="M100 701v-261h-37v221l-17 -11l-18 31l35 20h37zM503 700l-430 -700h-48l436 700h42zM439 263q36 0 57.5 -20t21.5 -47q0 -34 -30 -53q43 -21 43 -66q0 -34 -27 -56.5t-65 -22.5q-37 0 -64 22.5t-27 56.5q0 45 43 66q-30 19 -30 53q0 26 21.5 46.5t56.5 20.5zM439 232
q-20 0 -30.5 -10.5t-10.5 -25.5t12.5 -27t28.5 -12q17 0 29 11.5t12 27.5q0 36 -41 36zM439 126q-22 0 -38 -14t-16 -35q0 -20 16 -34t38 -14q24 0 39 13t15 35t-15 35.5t-39 13.5z" />
    <glyph glyph-name="threeeighths" unicode="&#x215c;" horiz-adv-x="574" 
d="M116 703q32 0 56 -20.5t24 -47.5q0 -32 -30 -53q42 -18 42 -66q0 -34 -27.5 -57t-64.5 -23q-41 0 -68 27.5t-23 63.5h38q-6 -23 11 -41t42 -18q22 0 38 13.5t16 34.5q0 28 -20 39t-54 5v32q63 3 63 43q0 15 -12.5 26t-30.5 11q-22 0 -35.5 -16t-10.5 -42h-38
q-4 38 21.5 63.5t62.5 25.5zM523 700l-430 -700h-48l436 700h42zM457 263q36 0 57.5 -20t21.5 -47q0 -34 -30 -53q43 -21 43 -66q0 -34 -27 -56.5t-65 -22.5q-37 0 -64 22.5t-27 56.5q0 45 43 66q-30 19 -30 53q0 26 21.5 46.5t56.5 20.5zM457 232q-20 0 -30.5 -10.5
t-10.5 -25.5t12.5 -27t28.5 -12q17 0 29 11.5t12 27.5q0 36 -41 36zM457 126q-22 0 -38 -14t-16 -35q0 -20 16 -34t38 -14q24 0 39 13t15 35t-15 35.5t-39 13.5z" />
    <glyph glyph-name="fiveeighths" unicode="&#x215d;" horiz-adv-x="576" 
d="M186 701v-32h-104l-8 -58q22 10 45 10q35 0 63 -26.5t28 -65.5t-28 -66t-67 -27q-33 0 -58.5 18.5t-31.5 43.5l33 19q2 -20 17.5 -34.5t39.5 -14.5q23 0 40 17.5t17 43.5q0 25 -16.5 42.5t-36.5 17.5q-35 0 -57 -29l-32 8l18 133h138zM523 700l-430 -700h-48l436 700h42z
M459 263q36 0 57.5 -20t21.5 -47q0 -34 -30 -53q43 -21 43 -66q0 -34 -27 -56.5t-65 -22.5q-37 0 -64 22.5t-27 56.5q0 45 43 66q-30 19 -30 53q0 26 21.5 46.5t56.5 20.5zM459 232q-20 0 -30.5 -10.5t-10.5 -25.5t12.5 -27t28.5 -12q17 0 29 11.5t12 27.5q0 36 -41 36z
M459 126q-22 0 -38 -14t-16 -35q0 -20 16 -34t38 -14q24 0 39 13t15 35t-15 35.5t-39 13.5z" />
    <glyph glyph-name="seveneighths" unicode="&#x215e;" horiz-adv-x="556" 
d="M200 701l-102 -261h-39l89 229h-121v32h173zM503 700l-430 -700h-48l436 700h42zM439 263q36 0 57.5 -20t21.5 -47q0 -34 -30 -53q43 -21 43 -66q0 -34 -27 -56.5t-65 -22.5q-37 0 -64 22.5t-27 56.5q0 45 43 66q-30 19 -30 53q0 26 21.5 46.5t56.5 20.5zM439 232
q-20 0 -30.5 -10.5t-10.5 -25.5t12.5 -27t28.5 -12q17 0 29 11.5t12 27.5q0 36 -41 36zM439 126q-22 0 -38 -14t-16 -35q0 -20 16 -34t38 -14q24 0 39 13t15 35t-15 35.5t-39 13.5z" />
    <glyph glyph-name="partialdiff" unicode="&#x2202;" horiz-adv-x="560" 
d="M256 682l117 -168q9 -12 30.5 -41.5t30.5 -42.5t25.5 -38.5t23.5 -42t16 -40t12.5 -47t3.5 -49.5q0 -92 -73 -157.5t-164 -65.5q-89 0 -160.5 65t-71.5 158q0 90 72 160t160 70q2 0 0 1t0 1l-120 168q-12 17 -12 35q0 25 17.5 42t43.5 17q32 0 49 -25zM280 319
q-45 0 -76 -32t-31 -74q0 -44 31 -75.5t76 -31.5q46 0 77.5 31.5t31.5 75.5q0 43 -29.5 74.5t-79.5 31.5z" />
    <glyph glyph-name="product" unicode="&#x220f;" horiz-adv-x="732" 
d="M45 724q0 33 21.5 54.5t54.5 21.5h490q33 0 54.5 -21.5t21.5 -54.5v-856q0 -27 -19 -46t-45 -19t-45.5 19t-19.5 46v812h-384v-812q0 -27 -19 -46t-45 -19t-45.5 19t-19.5 46v856z" />
    <glyph glyph-name="summation" unicode="&#x2211;" horiz-adv-x="635" 
d="M530 800q24 0 42 -17.5t18 -42.5t-18 -42.5t-42 -17.5h-336l190 -343q17 -32 0 -64l-190 -343h336q24 0 42 -17.5t18 -42.5t-18 -42.5t-42 -17.5h-390q-58 0 -83.5 43t1.5 93l199 359l-199 359q-27 50 -1.5 93t83.5 43h390z" />
    <glyph glyph-name="minus" unicode="&#x2212;" horiz-adv-x="425" 
d="M337 330q24 0 41.5 -16t17.5 -39t-17.5 -39t-41.5 -16h-233q-24 0 -41.5 16t-17.5 39t17.5 39t41.5 16h233z" />
    <glyph glyph-name="radical" unicode="&#x221a;" horiz-adv-x="813" 
d="M706 808q31 0 49 -23.5t12 -58.5l-235 -847q-10 -33 -37.5 -54.5t-63.5 -21.5q-32 0 -58.5 18t-37.5 47l-161 372h-55q-31 0 -52.5 21.5t-21.5 52.5t21.5 52.5t52.5 21.5h98q46 0 63 -44l148 -361l216 777q5 21 22 34.5t40 13.5z" />
    <glyph glyph-name="infinity" unicode="&#x221e;" horiz-adv-x="854" 
d="M617 428q75 0 131 -49.5t56 -116.5q0 -69 -56 -119t-131 -50q-99 0 -190 84q-91 -84 -189 -84q-76 0 -132 50t-56 119q0 67 56 116.5t132 49.5q98 0 189 -83q91 83 190 83zM240 195q40 0 61.5 11.5t53.5 55.5q-32 44 -53.5 55.5t-61.5 11.5q-30 0 -48 -21t-18 -46
q0 -26 18 -46.5t48 -20.5zM614 195q30 0 48 20.5t18 46.5q0 25 -18 46t-48 21q-40 0 -61.5 -11.5t-53.5 -55.5q32 -44 53.5 -55.5t61.5 -11.5z" />
    <glyph glyph-name="integral" unicode="&#x222b;" horiz-adv-x="303" 
d="M288 800v-115q-24 0 -38.5 -5t-20.5 -19.5t-7 -26t-1 -38.5v-7v-596q0 -183 -201 -183v115q24 0 38.5 5t20.5 19.5t7 26t1 38.5v7v596q0 183 201 183z" />
    <glyph glyph-name="approxequal" unicode="&#x2248;" horiz-adv-x="525" 
d="M173 441q43 0 107 -35t93 -35q28 0 43 6q3 3 7 6.5t6.5 5t5.5 3.5t6 3t7 1q15 0 23 -8t5 -22q-9 -44 -40 -71.5t-83 -27.5q-44 0 -109.5 40t-95.5 40q-29 0 -45 -13q-1 -1 -3 -4t-3 -4t-2.5 -3t-3 -3t-3 -2.5t-3 -2t-3.5 -1.5t-4.5 -1h-5.5q-30 0 -25 25q7 47 38.5 75
t87.5 28zM173 281q43 0 107 -35t93 -35q28 0 43 6q3 3 7 6.5t6.5 5t5.5 3.5t6 3t7 1q15 0 23 -8t5 -22q-9 -44 -40 -71.5t-83 -27.5q-44 0 -109.5 40t-95.5 40q-29 0 -45 -13q-1 -1 -3 -4t-3 -4t-2.5 -3t-3 -3t-3 -2.5t-3 -2t-3.5 -1.5t-4.5 -1h-5.5q-30 0 -25 25
q7 47 38.5 75t87.5 28z" />
    <glyph glyph-name="notequal" unicode="&#x2260;" horiz-adv-x="441" 
d="M337 250q24 0 41.5 -16t17.5 -39t-17.5 -39t-41.5 -16h-122l-44 -113q-5 -16 -19 -25.5t-31 -9.5q-29 0 -44 25.5t-5 46.5l30 76q-23 1 -40 17t-17 38q0 23 17.5 39t41.5 16h41l19 50h-60q-24 0 -41.5 16t-17.5 39t17.5 39t41.5 16h103l48 124q10 34 49 34q29 0 44.5 -25
t5.5 -46l-34 -87h17q24 0 41.5 -16t17.5 -39t-17.5 -39t-41.5 -16h-60l-19 -50h79z" />
    <glyph glyph-name="lessequal" unicode="&#x2264;" horiz-adv-x="419" 
d="M276 558q8 6 21 6q18 0 31.5 -14.5t13.5 -35.5q0 -30 -24 -44l-170 -95l170 -94q24 -13 24 -44q0 -21 -13 -36t-32 -15q-12 0 -22 7l-184 105q-47 26 -47 76.5t47 76.5zM345 111q24 0 41.5 -16t17.5 -39t-17.5 -39t-41.5 -16h-233q-24 0 -41.5 16t-17.5 39t17.5 39
t41.5 16h233z" />
    <glyph glyph-name="greaterequal" unicode="&#x2265;" horiz-adv-x="434" 
d="M158 558l184 -107q46 -26 46.5 -76.5t-45.5 -76.5l-185 -105q-10 -7 -21 -7q-19 0 -32.5 15t-13.5 36q0 31 25 44l170 94l-170 95q-25 14 -25 44q0 21 13.5 35.5t32.5 14.5q11 0 21 -6zM89 111h233q24 0 41.5 -16t17.5 -39t-17.5 -39t-41.5 -16h-233q-24 0 -41.5 16
t-17.5 39t17.5 39t41.5 16z" />
    <glyph glyph-name="lozenge" unicode="&#x25ca;" horiz-adv-x="578" 
d="M289 707q42 0 77 -23t51 -59l110 -249q11 -26 0 -52l-110 -249q-16 -36 -51 -59t-77 -23t-76.5 22.5t-50.5 59.5l-111 249q-11 26 0 52l111 249q16 37 50.5 59.5t76.5 22.5zM289 95l113 255l-113 255l-113 -255z" />
    <glyph glyph-name="fi" unicode="&#xfb01;" horiz-adv-x="679" 
d="M382 671q24 -16 24 -46q0 -23 -16 -38.5t-39 -15.5q-16 0 -25 5q-34 16 -66 16q-7 0 -12.5 -1t-9.5 -2.5t-7.5 -4.5t-5.5 -5t-3.5 -6.5t-2 -7t-1 -7.5t-0.5 -6.5v-6.5v-6v-19h52q24 0 41 -16.5t17 -40.5q0 -25 -17 -41.5t-41 -16.5h-52v-344q0 -28 -20 -47.5t-47 -19.5
t-47 19.5t-20 47.5v344h-13q-24 0 -41.5 17t-17.5 41t17.5 40.5t41.5 16.5h13v26q0 40 12.5 70.5t31 47t44 27t46 13.5t42.5 3q64 0 122 -36zM550 569q-28 0 -48.5 20.5t-20.5 48.5t20.5 48.5t48.5 20.5t48.5 -20.5t20.5 -48.5t-20.5 -48.5t-48.5 -20.5zM550 523
q28 0 48 -19.5t20 -48.5v-393q0 -28 -20 -48t-48 -20t-48 20t-20 48v393q0 28 20 48t48 20z" />
    <glyph glyph-name="i.loclTRK" horiz-adv-x="284" 
d="M142 622q-28 0 -48.5 20.5t-20.5 48.5t20.5 48.5t48.5 20.5t48.5 -20.5t20.5 -48.5t-20.5 -48.5t-48.5 -20.5zM142 523q27 0 47 -19.5t20 -47.5v-395q0 -28 -20 -47.5t-47 -19.5t-47 19.5t-20 47.5v395q0 28 20 47.5t47 19.5z" />
    <glyph glyph-name="t_t" horiz-adv-x="766" 
d="M682 108q21 2 38 -13.5t17 -40.5q0 -35 -27 -48.5t-82 -13.5q-68 0 -106 34.5t-38 128.5v250h-247v-255q0 -43 30 -43q21 0 34 1q21 2 38 -13.5t17 -40.5q0 -35 -27 -48.5t-82 -13.5q-68 0 -106 34.5t-38 128.5v250h-19q-24 0 -41.5 17t-17.5 41t17.5 40.5t41.5 16.5h19
v30q0 28 20 47.5t47 19.5t47 -19.5t20 -47.5v-30h247v30q0 28 20 47.5t47 19.5q28 0 47.5 -19.5t19.5 -47.5v-30h59q24 0 41 -16.5t17 -40.5t-17 -41t-41 -17h-59v-255q0 -43 30 -43q22 0 34 1z" />
    <glyph glyph-name="zero.tf" horiz-adv-x="700" 
d="M357 707q126 0 213 -90.5t87 -253.5v-24q0 -164 -87 -254t-213 -90t-213 90.5t-87 253.5v24q0 163 87 253.5t213 90.5zM357 592q-46 0 -80 -21t-52 -55.5t-26 -72.5t-8 -80v-24q0 -58 13.5 -106.5t52.5 -85.5t100 -37t100 37t52.5 85.5t13.5 106.5v24q0 42 -8 80
t-26 72.5t-52 55.5t-80 21z" />
    <glyph glyph-name="one.tf" horiz-adv-x="700" 
d="M338 700q33 0 54.5 -21.5t21.5 -54.5v-563q0 -28 -19.5 -47.5t-47.5 -19.5q-27 0 -47 19.5t-20 47.5v524h-64q-24 0 -41.5 17t-17.5 41t17.5 40.5t41.5 16.5h122z" />
    <glyph glyph-name="two.tf" horiz-adv-x="700" 
d="M341 707q103 0 170 -65t67 -146q0 -32 -6.5 -56t-29 -54t-41 -49t-68.5 -67q-20 -19 -31 -30l-128 -125h251q24 0 41 -16.5t17 -40.5q0 -25 -17 -41.5t-41 -16.5h-306q-46 0 -77.5 28.5t-31.5 66t32 73.5l117 110q22 21 51 49t43 41t32.5 31.5t26.5 28.5t16.5 23t11 23.5
t2.5 21.5q0 51 -30.5 72t-70.5 21q-78 0 -101 -63q-6 -21 -24 -34.5t-40 -13.5q-35 0 -54.5 28t-8.5 62q26 61 85.5 100t142.5 39z" />
    <glyph glyph-name="three.tf" horiz-adv-x="700" 
d="M474 700q60 0 88.5 -47t-8.5 -93l-129 -142q68 -18 120.5 -70t52.5 -132q0 -98 -77.5 -162t-182.5 -64q-83 0 -146.5 37.5t-92.5 100.5q-14 31 6 60.5t55 29.5q22 0 39 -12.5t24 -33.5q15 -36 48.5 -51.5t66.5 -15.5q17 0 36 5t40.5 16t35.5 34.5t14 55.5q0 12 -2.5 23.5
t-6 19.5t-10.5 16t-12 13.5t-15.5 11t-16 8.5t-18 7t-17.5 5.5t-18.5 5t-16.5 4.5q-21 5 -33 20.5t-12 34.5q0 28 25 57l123 143h-260q-24 0 -41 17t-17 41t17 40.5t41 16.5h300z" />
    <glyph glyph-name="four.tf" horiz-adv-x="700" 
d="M501 303h24q24 0 41 -16.5t17 -40.5q0 -25 -17 -41.5t-41 -16.5h-24v-129q0 -27 -19.5 -46.5t-47.5 -19.5q-27 0 -47 19.5t-20 46.5v129h-181q-64 0 -84.5 42t15.5 88l256 342q24 33 55 39.5t52 -14t21 -56.5v-326zM367 439l-98 -136h98v136z" />
    <glyph glyph-name="five.tf" horiz-adv-x="700" 
d="M442 700q24 0 41 -16.5t17 -40.5q0 -25 -17 -41.5t-41 -16.5h-199l-13 -121q10 -3 13.5 -1.5t23 5t42.5 3.5q102 0 175.5 -67.5t73.5 -172.5q0 -103 -72 -172t-173 -69q-129 0 -208 86q-13 19 -13 39q0 26 18 44t43 18q28 0 47 -23q16 -16 26 -24t33.5 -16.5t53.5 -8.5
q35 0 73 31.5t38 94.5q0 36 -12.5 62.5t-31.5 39t-37 18t-34 5.5q-53 0 -78 -11q-22 -15 -48 -15q-40 0 -66 30t-21 70l26 206q3 28 23 46t49 18h248z" />
    <glyph glyph-name="six.tf" horiz-adv-x="700" 
d="M420 707q26 0 43.5 -17t17.5 -42q0 -18 -12 -35l-121 -168q3 0 0.5 -1t-0.5 -1q88 0 160.5 -70t72.5 -160q0 -93 -71.5 -158t-161.5 -65t-163 65.5t-73 157.5q0 30 6.5 59.5t12.5 48.5t25.5 51.5t26.5 43t36 50.5t35 48l117 168q17 25 49 25zM347 319q-50 0 -79.5 -31.5
t-29.5 -74.5q0 -44 31.5 -75.5t77.5 -31.5q45 0 76 31.5t31 75.5q0 42 -31 74t-76 32z" />
    <glyph glyph-name="seven.tf" horiz-adv-x="700" 
d="M540 700q52 0 77.5 -39.5t3.5 -86.5l-249 -543q-17 -38 -58 -38q-26 0 -45 19t-19 45q0 17 6 27l237 501h-297q-24 0 -41 17t-17 41t17 40.5t41 16.5h344z" />
    <glyph glyph-name="eight.tf" horiz-adv-x="700" 
d="M498 400q85 -62 85 -180q0 -99 -74.5 -163t-163.5 -64q-90 0 -165 64t-75 163q0 118 85 180q-42 53 -42 117q0 81 54 135.5t143 54.5q87 0 141 -54.5t54 -135.5q0 -64 -42 -117zM281 517q0 -27 18.5 -48t45.5 -21t45.5 21t18.5 48q0 29 -19 50t-45 21t-45 -21t-19 -50z
M345 114q37 0 66 30.5t29 75.5q0 50 -29 78.5t-66 28.5q-32 0 -63 -29t-31 -78q0 -46 27 -76t67 -30z" />
    <glyph glyph-name="nine.tf" horiz-adv-x="700" 
d="M280 -8q-26 0 -43.5 17t-17.5 42q0 18 12 35l121 168q-3 0 -0.5 1t0.5 1q-88 0 -160.5 70t-72.5 160q0 93 71.5 158t161.5 65t163 -65.5t73 -157.5q0 -30 -6.5 -59.5t-12.5 -48.5t-25.5 -51.5t-26.5 -43t-36 -50.5t-35 -48l-117 -168q-17 -25 -49 -25zM353 380
q50 0 79.5 31.5t29.5 74.5q0 44 -31.5 75.5t-77.5 31.5q-45 0 -76 -31.5t-31 -75.5q0 -42 31 -74t76 -32z" />
    <glyph glyph-name="zero.dnom" horiz-adv-x="260" 
d="M130 263q47 0 76 -35t29 -91v-13q0 -56 -29 -91t-76 -35q-45 0 -75 35t-30 91v13q0 56 30 91t75 35zM130 232q-29 0 -48.5 -25.5t-19.5 -69.5v-13q0 -44 19.5 -69.5t48.5 -25.5q31 0 49.5 25t18.5 70v13q0 45 -18.5 70t-49.5 25z" />
    <glyph glyph-name="one.dnom" horiz-adv-x="122" 
d="M97 261v-261h-37v221l-17 -11l-18 31l35 20h37z" />
    <glyph glyph-name="two.dnom" horiz-adv-x="221" 
d="M109 264q34 0 59 -22.5t25 -52.5q0 -26 -14.5 -47t-53.5 -61l-47 -49h118v-32h-168v32l68 69q28 29 36.5 38.5t15.5 22.5t7 27q0 18 -14 31t-32 13q-19 0 -33 -13t-14 -37v-14h-37v14q0 35 24.5 58t59.5 23z" />
    <glyph glyph-name="three.dnom" horiz-adv-x="233" 
d="M116 263q32 0 56 -20.5t24 -47.5q0 -32 -30 -53q42 -18 42 -66q0 -34 -27.5 -57t-64.5 -23q-41 0 -68 27.5t-23 63.5h38q-6 -23 11 -41t42 -18q22 0 38 13.5t16 34.5q0 28 -20 39t-54 5v32q63 3 63 43q0 15 -12.5 26t-30.5 11q-22 0 -35.5 -16t-10.5 -42h-38
q-4 38 21.5 63.5t62.5 25.5z" />
    <glyph glyph-name="four.dnom" horiz-adv-x="246" 
d="M194 261v-154h27v-31h-27v-76h-37v76h-132l132 185h37zM157 202l-65 -95h65v95z" />
    <glyph glyph-name="five.dnom" horiz-adv-x="235" 
d="M186 261v-32h-104l-8 -58q22 10 45 10q35 0 63 -26.5t28 -65.5t-28 -66t-67 -27q-33 0 -58.5 18.5t-31.5 43.5l33 19q2 -20 17.5 -34.5t39.5 -14.5q23 0 40 17.5t17 43.5q0 25 -16.5 42.5t-36.5 17.5q-35 0 -57 -29l-32 8l18 133h138z" />
    <glyph glyph-name="six.dnom" horiz-adv-x="223" 
d="M174 261l-68 -96h6q34 0 60 -25t26 -59q0 -35 -26 -60t-60 -25t-60.5 25t-26.5 60q0 16 5.5 31.5t10 23t18 25t16.5 21.5l57 79h42zM112 133q-22 0 -36 -14t-14 -38q0 -23 15.5 -38t34.5 -15q18 0 33.5 15t15.5 38t-15 37.5t-34 14.5z" />
    <glyph glyph-name="seven.dnom" horiz-adv-x="223" 
d="M198 261l-102 -261h-39l89 229h-121v32h173z" />
    <glyph glyph-name="eight.dnom" horiz-adv-x="233" 
d="M116 263q36 0 57.5 -20t21.5 -47q0 -34 -30 -53q43 -21 43 -66q0 -34 -27 -56.5t-65 -22.5q-37 0 -64 22.5t-27 56.5q0 45 43 66q-30 19 -30 53q0 26 21.5 46.5t56.5 20.5zM116 232q-20 0 -30.5 -10.5t-10.5 -25.5t12.5 -27t28.5 -12q18 0 29.5 11.5t11.5 27.5
q0 36 -41 36zM116 126q-22 0 -38 -14t-16 -35q0 -20 16 -34t38 -14q24 0 39 13t15 35t-15 35.5t-39 13.5z" />
    <glyph glyph-name="nine.dnom" horiz-adv-x="224" 
d="M112 264q34 0 60.5 -24.5t26.5 -59.5q0 -13 -2.5 -24t-9 -22.5t-10.5 -18t-14.5 -19.5t-14.5 -18l-56 -78h-43l68 95h-5q-35 0 -61 25.5t-26 59.5q0 35 26.5 59.5t60.5 24.5zM112 232q-19 0 -34.5 -15t-15.5 -37q0 -23 15.5 -38t34.5 -15q22 0 35.5 14.5t13.5 38.5
q0 22 -15.5 37t-33.5 15z" />
    <glyph glyph-name="zero.numr" horiz-adv-x="260" 
d="M130 703q47 0 76 -35t29 -91v-13q0 -56 -29 -91t-76 -35q-45 0 -75 35t-30 91v13q0 56 30 91t75 35zM130 672q-29 0 -48.5 -25.5t-19.5 -69.5v-13q0 -44 19.5 -69.5t48.5 -25.5q31 0 49.5 25t18.5 70v13q0 45 -18.5 70t-49.5 25z" />
    <glyph glyph-name="one.numr" horiz-adv-x="122" 
d="M97 701v-261h-37v221l-17 -11l-18 31l35 20h37z" />
    <glyph glyph-name="two.numr" horiz-adv-x="221" 
d="M109 704q34 0 59 -22.5t25 -52.5q0 -26 -14.5 -47t-53.5 -61l-47 -49h118v-32h-168v32l68 69q28 29 36.5 38.5t15.5 22.5t7 27q0 18 -14 31t-32 13q-19 0 -33 -13t-14 -37v-14h-37v14q0 35 24.5 58t59.5 23z" />
    <glyph glyph-name="three.numr" horiz-adv-x="233" 
d="M116 703q32 0 56 -20.5t24 -47.5q0 -32 -30 -53q42 -18 42 -66q0 -34 -27.5 -57t-64.5 -23q-41 0 -68 27.5t-23 63.5h38q-6 -23 11 -41t42 -18q22 0 38 13.5t16 34.5q0 28 -20 39t-54 5v32q63 3 63 43q0 15 -12.5 26t-30.5 11q-22 0 -35.5 -16t-10.5 -42h-38
q-4 38 21.5 63.5t62.5 25.5z" />
    <glyph glyph-name="four.numr" horiz-adv-x="246" 
d="M194 701v-154h27v-31h-27v-76h-37v76h-132l132 185h37zM157 642l-65 -95h65v95z" />
    <glyph glyph-name="five.numr" horiz-adv-x="235" 
d="M186 701v-32h-104l-8 -58q22 10 45 10q35 0 63 -26.5t28 -65.5t-28 -66t-67 -27q-33 0 -58.5 18.5t-31.5 43.5l33 19q2 -20 17.5 -34.5t39.5 -14.5q23 0 40 17.5t17 43.5q0 25 -16.5 42.5t-36.5 17.5q-35 0 -57 -29l-32 8l18 133h138z" />
    <glyph glyph-name="six.numr" horiz-adv-x="223" 
d="M174 701l-68 -96h6q34 0 60 -25t26 -59q0 -35 -26 -60t-60 -25t-60.5 25t-26.5 60q0 16 5.5 31.5t10 23t18 25t16.5 21.5l57 79h42zM112 573q-22 0 -36 -14t-14 -38q0 -23 15.5 -38t34.5 -15q18 0 33.5 15t15.5 38t-15 37.5t-34 14.5z" />
    <glyph glyph-name="seven.numr" horiz-adv-x="223" 
d="M198 701l-102 -261h-39l89 229h-121v32h173z" />
    <glyph glyph-name="eight.numr" horiz-adv-x="233" 
d="M116 703q36 0 57.5 -20t21.5 -47q0 -34 -30 -53q43 -21 43 -66q0 -34 -27 -56.5t-65 -22.5q-37 0 -64 22.5t-27 56.5q0 45 43 66q-30 19 -30 53q0 26 21.5 46.5t56.5 20.5zM116 672q-20 0 -30.5 -10.5t-10.5 -25.5t12.5 -27t28.5 -12q18 0 29.5 11.5t11.5 27.5
q0 36 -41 36zM116 566q-22 0 -38 -14t-16 -35q0 -20 16 -34t38 -14q24 0 39 13t15 35t-15 35.5t-39 13.5z" />
    <glyph glyph-name="nine.numr" horiz-adv-x="224" 
d="M112 704q34 0 60.5 -24.5t26.5 -59.5q0 -13 -2.5 -24t-9 -22.5t-10.5 -18t-14.5 -19.5t-14.5 -18l-56 -78h-43l68 95h-5q-35 0 -61 25.5t-26 59.5q0 35 26.5 59.5t60.5 24.5zM112 672q-19 0 -34.5 -15t-15.5 -37q0 -23 15.5 -38t34.5 -15q22 0 35.5 14.5t13.5 38.5
q0 22 -15.5 37t-33.5 15z" />
    </font>
</defs>
</svg>
